<?xml version="1.0" encoding="UTF-8" standalone="no"?>
<svg width="780px" height="262px" viewBox="0 0 780 262" version="1.1" xmlns="http://www.w3.org/2000/svg" xmlns:xlink="http://www.w3.org/1999/xlink" xmlns:sketch="http://www.bohemiancoding.com/sketch/ns">
    <!-- Generator: Sketch 3.5.1 (25234) - http://www.bohemiancoding.com/sketch -->
    <title>Group 9</title>
    <desc>Created with Sketch.</desc>
    <defs></defs>
    <g id="Page-1" stroke="none" stroke-width="1" fill="none" fill-rule="evenodd" sketch:type="MSPage">
        <g id="Group-9" sketch:type="MSLayerGroup" transform="translate(0.000000, -19.000000)">
            <rect id="Rectangle-26" fill="#FFFFFF" sketch:type="MSShapeGroup" x="0" y="19" width="780" height="262"></rect>
            <path d="M118.75,199.655179 L118.75,240.109419" id="Path-195-Copy" stroke="#FFFFFF" stroke-width="1.5" sketch:type="MSShapeGroup"></path>
            <path d="M155.946865,188.858703 L212.693709,221.621449 L212.693709,156.093129 L155.942152,123.328498 L155.946865,188.858703 Z" id="Fill-1" fill="#23B0E8" sketch:type="MSShapeGroup"></path>
            <path d="M212.693709,156.094166 L212.693709,221.622486 L269.448094,188.857855 L269.446209,123.32765 L212.693709,156.094166 Z" id="Fill-2" fill="#1D93C2" sketch:type="MSShapeGroup"></path>
            <path d="M212.698799,90.5625474 L155.948184,123.327179 L212.695029,156.094638 L269.446586,123.328121 L212.698799,90.5625474 Z" id="Fill-3" fill="#6BCFF7" sketch:type="MSShapeGroup"></path>
            <path d="M176.892578,244.136719 C176.450519,244.136719 176.062013,244.020509 175.727051,243.788086 C175.392088,243.555663 175.1403,243.238934 174.97168,242.837891 L174.90332,242.837891 L174.424805,244 L173.570312,244 L175.826172,233.363281 L176.974609,233.363281 C176.742186,234.466151 176.563314,235.310381 176.437988,235.895996 C176.312662,236.481611 176.140626,237.166337 175.921875,237.950195 L175.983398,237.950195 C176.407229,237.412432 176.825356,237.017091 177.237793,236.76416 C177.65023,236.511229 178.075193,236.384766 178.512695,236.384766 C179.155277,236.384766 179.656574,236.610349 180.016602,237.061523 C180.376629,237.512698 180.556641,238.132483 180.556641,238.920898 C180.556641,239.873377 180.400555,240.754065 180.088379,241.562988 C179.776203,242.371912 179.340986,243.00309 178.782715,243.456543 C178.224444,243.909996 177.594405,244.136719 176.892578,244.136719 L176.892578,244.136719 Z M178.164062,237.334961 C177.72656,237.334961 177.28109,237.55143 176.827637,237.984375 C176.374184,238.41732 176.014161,238.961911 175.747559,239.618164 C175.480956,240.274417 175.347656,240.946611 175.347656,241.634766 C175.347656,242.13607 175.47412,242.520018 175.727051,242.786621 C175.979982,243.053224 176.345701,243.186523 176.824219,243.186523 C177.275393,243.186523 177.695799,243.001955 178.085449,242.632812 C178.4751,242.26367 178.78841,241.738447 179.025391,241.057129 C179.262371,240.37581 179.380859,239.652348 179.380859,238.886719 C179.380859,237.852208 178.975264,237.334961 178.164062,237.334961 L178.164062,237.334961 Z M184.330078,236.507812 L183.304688,241.258789 C183.222656,241.66439 183.181641,241.981119 183.181641,242.208984 C183.181641,242.86068 183.516598,243.186523 184.186523,243.186523 C184.587567,243.186523 184.981769,243.049806 185.369141,242.776367 C185.756512,242.502928 186.098306,242.111005 186.394531,241.600586 C186.690757,241.090167 186.91634,240.474938 187.071289,239.754883 L187.754883,236.507812 L188.889648,236.507812 L187.310547,244 L186.360352,244 L186.510742,242.612305 L186.428711,242.612305 C185.982094,243.181969 185.555992,243.578449 185.150391,243.801758 C184.74479,244.025066 184.325523,244.136719 183.892578,244.136719 C183.309242,244.136719 182.851239,243.978354 182.518555,243.661621 C182.185871,243.344888 182.019531,242.892581 182.019531,242.304688 C182.019531,242.022134 182.069661,241.630211 182.169922,241.128906 L183.167969,236.507812 L184.330078,236.507812 Z M190.878906,244 L189.730469,244 L191.330078,236.507812 L192.478516,236.507812 L190.878906,244 Z M191.651367,234.59375 C191.651367,234.33854 191.724283,234.130046 191.870117,233.968262 C192.015951,233.806477 192.205077,233.725586 192.4375,233.725586 C192.838544,233.725586 193.039062,233.930662 193.039062,234.34082 C193.039062,234.591473 192.962729,234.803385 192.810059,234.976562 C192.657389,235.14974 192.480795,235.236328 192.280273,235.236328 C192.097981,235.236328 191.947592,235.180502 191.829102,235.068848 C191.710611,234.957193 191.651367,234.798829 191.651367,234.59375 L191.651367,234.59375 Z M194.419922,244 L193.271484,244 L195.541016,233.363281 L196.689453,233.363281 L194.419922,244 Z M200.804688,236.384766 C201.688807,236.384766 202.3291,236.817704 202.725586,237.683594 L202.793945,237.683594 C202.87142,236.97721 202.973958,236.352867 203.101562,235.810547 L203.634766,233.363281 L204.769531,233.363281 L202.513672,244 L201.563477,244 L201.713867,242.571289 L201.65918,242.571289 C201.198891,243.140953 200.768231,243.54427 200.367188,243.78125 C199.966144,244.01823 199.551434,244.136719 199.123047,244.136719 C198.48958,244.136719 197.995119,243.913414 197.639648,243.466797 C197.284178,243.02018 197.106445,242.400395 197.106445,241.607422 C197.106445,240.632157 197.270506,239.738936 197.598633,238.927734 C197.926759,238.116532 198.369952,237.489911 198.928223,237.047852 C199.486494,236.605792 200.111976,236.384766 200.804688,236.384766 L200.804688,236.384766 Z M199.505859,243.186523 C199.934247,243.186523 200.3763,242.973472 200.832031,242.547363 C201.287763,242.121254 201.648924,241.576663 201.915527,240.913574 C202.18213,240.250485 202.31543,239.574873 202.31543,238.886719 C202.31543,238.380857 202.192384,237.99577 201.946289,237.731445 C201.700194,237.467121 201.34245,237.334961 200.873047,237.334961 C200.412758,237.334961 199.985516,237.522947 199.591309,237.898926 C199.197101,238.274904 198.880372,238.803545 198.641113,239.484863 C198.401854,240.166182 198.282227,240.882809 198.282227,241.634766 C198.282227,242.669276 198.6901,243.186523 199.505859,243.186523 L199.505859,243.186523 Z M212.521484,236.371094 C212.940757,236.371094 213.314451,236.483886 213.642578,236.709473 C213.970705,236.93506 214.225911,237.259764 214.408203,237.683594 L214.483398,237.683594 L214.941406,236.507812 L215.80957,236.507812 L214.216797,244 L213.307617,244 L213.485352,242.571289 L213.430664,242.571289 C212.614905,243.614914 211.755864,244.136719 210.853516,244.136719 C210.220049,244.136719 209.723309,243.911135 209.363281,243.459961 C209.003253,243.008787 208.823242,242.39128 208.823242,241.607422 C208.823242,240.6595 208.985024,239.779952 209.308594,238.96875 C209.632163,238.157548 210.078773,237.521812 210.648438,237.061523 C211.218102,236.601235 211.842445,236.371094 212.521484,236.371094 L212.521484,236.371094 Z M211.222656,243.186523 C211.664716,243.186523 212.10449,242.975751 212.541992,242.554199 C212.979494,242.132648 213.33496,241.583499 213.608398,240.906738 C213.881837,240.229977 214.018555,239.552087 214.018555,238.873047 C214.018555,238.403643 213.890952,238.029949 213.635742,237.751953 C213.380533,237.473957 213.045575,237.334961 212.630859,237.334961 C212.156899,237.334961 211.715985,237.530923 211.308105,237.922852 C210.900226,238.314781 210.580079,238.8457 210.347656,239.515625 C210.115233,240.18555 209.999023,240.891923 209.999023,241.634766 C209.999023,242.154299 210.106119,242.542805 210.320312,242.800293 C210.534506,243.057781 210.835285,243.186523 211.222656,243.186523 L211.222656,243.186523 Z M221.203125,236.371094 C221.51758,236.371094 221.791014,236.402994 222.023438,236.466797 L221.777344,237.492188 C221.535806,237.432942 221.296551,237.40332 221.05957,237.40332 C220.644855,237.40332 220.256349,237.540038 219.894043,237.813477 C219.531736,238.086915 219.215008,238.466306 218.943848,238.95166 C218.672687,239.437014 218.473308,239.975908 218.345703,240.568359 L217.614258,244 L216.46582,244 L218.06543,236.507812 L219.015625,236.507812 L218.865234,237.895508 L218.933594,237.895508 C219.26172,237.462563 219.532877,237.151531 219.74707,236.962402 C219.961264,236.773274 220.185708,236.627442 220.42041,236.524902 C220.655112,236.422363 220.916014,236.371094 221.203125,236.371094 L221.203125,236.371094 Z M224.306641,243.200195 C224.557293,243.200195 224.885415,243.140951 225.291016,243.022461 L225.291016,243.904297 C225.136067,243.968099 224.944663,244.022786 224.716797,244.068359 C224.488931,244.113933 224.306641,244.136719 224.169922,244.136719 C223.600258,244.136719 223.163901,244.001141 222.86084,243.72998 C222.557778,243.45882 222.40625,243.054365 222.40625,242.516602 C222.40625,242.215819 222.447265,241.874025 222.529297,241.491211 L223.397461,237.375977 L222.22168,237.375977 L222.317383,236.876953 L223.582031,236.34375 L224.436523,234.785156 L225.106445,234.785156 L224.730469,236.507812 L226.603516,236.507812 L226.425781,237.375977 L224.55957,237.375977 L223.677734,241.504883 C223.595703,241.901369 223.554688,242.202147 223.554688,242.407227 C223.554688,242.662436 223.620768,242.858398 223.75293,242.995117 C223.885092,243.131837 224.06966,243.200195 224.306641,243.200195 L224.306641,243.200195 Z M227.697266,244 L226.548828,244 L228.148438,236.507812 L229.296875,236.507812 L227.697266,244 Z M228.469727,234.59375 C228.469727,234.33854 228.542642,234.130046 228.688477,233.968262 C228.834311,233.806477 229.023436,233.725586 229.255859,233.725586 C229.656903,233.725586 229.857422,233.930662 229.857422,234.34082 C229.857422,234.591473 229.781088,234.803385 229.628418,234.976562 C229.475748,235.14974 229.299155,235.236328 229.098633,235.236328 C228.91634,235.236328 228.765951,235.180502 228.647461,235.068848 C228.528971,234.957193 228.469727,234.798829 228.469727,234.59375 L228.469727,234.59375 Z M228.989258,247.363281 C228.674803,247.363281 228.389975,247.31543 228.134766,247.219727 L228.134766,246.255859 C228.426434,246.35612 228.68164,246.40625 228.900391,246.40625 C229.246747,246.40625 229.513345,246.264975 229.700195,245.982422 C229.887045,245.699868 230.037434,245.296552 230.151367,244.772461 L231.703125,237.375977 L230.383789,237.375977 L230.472656,236.917969 L231.880859,236.466797 L232.038086,235.783203 C232.247722,234.87174 232.538247,234.228029 232.909668,233.852051 C233.281089,233.476072 233.831377,233.288086 234.560547,233.288086 C234.742839,233.288086 234.966145,233.31429 235.230469,233.366699 C235.494793,233.419108 235.699869,233.477213 235.845703,233.541016 L235.551758,234.422852 C235.205402,234.290689 234.893231,234.224609 234.615234,234.224609 C234.218748,234.224609 233.914552,234.335123 233.702637,234.556152 C233.490722,234.777182 233.318686,235.181638 233.186523,235.769531 L233.015625,236.507812 L234.642578,236.507812 L234.47168,237.375977 L232.851562,237.375977 L231.265625,244.881836 C231.08789,245.743168 230.814455,246.372068 230.445312,246.768555 C230.07617,247.165041 229.590823,247.363281 228.989258,247.363281 L228.989258,247.363281 Z M238.450195,236.371094 C238.869468,236.371094 239.243162,236.483886 239.571289,236.709473 C239.899416,236.93506 240.154621,237.259764 240.336914,237.683594 L240.412109,237.683594 L240.870117,236.507812 L241.738281,236.507812 L240.145508,244 L239.236328,244 L239.414062,242.571289 L239.359375,242.571289 C238.543616,243.614914 237.684575,244.136719 236.782227,244.136719 C236.14876,244.136719 235.65202,243.911135 235.291992,243.459961 C234.931964,243.008787 234.751953,242.39128 234.751953,241.607422 C234.751953,240.6595 234.913735,239.779952 235.237305,238.96875 C235.560874,238.157548 236.007484,237.521812 236.577148,237.061523 C237.146813,236.601235 237.771155,236.371094 238.450195,236.371094 L238.450195,236.371094 Z M237.151367,243.186523 C237.593427,243.186523 238.033201,242.975751 238.470703,242.554199 C238.908205,242.132648 239.263671,241.583499 239.537109,240.906738 C239.810548,240.229977 239.947266,239.552087 239.947266,238.873047 C239.947266,238.403643 239.819663,238.029949 239.564453,237.751953 C239.309244,237.473957 238.974286,237.334961 238.55957,237.334961 C238.08561,237.334961 237.644696,237.530923 237.236816,237.922852 C236.828937,238.314781 236.50879,238.8457 236.276367,239.515625 C236.043944,240.18555 235.927734,240.891923 235.927734,241.634766 C235.927734,242.154299 236.03483,242.542805 236.249023,242.800293 C236.463217,243.057781 236.763995,243.186523 237.151367,243.186523 L237.151367,243.186523 Z M245.450195,244.136719 C244.566076,244.136719 243.880211,243.892906 243.392578,243.405273 C242.904945,242.917641 242.661133,242.229497 242.661133,241.34082 C242.661133,240.429357 242.829751,239.588546 243.166992,238.818359 C243.504233,238.048173 243.970212,237.447756 244.564941,237.01709 C245.159671,236.586424 245.828447,236.371094 246.571289,236.371094 C247.195641,236.371094 247.806312,236.487304 248.40332,236.719727 L248.082031,237.683594 C247.535154,237.451171 247.036135,237.334961 246.584961,237.334961 C246.074542,237.334961 245.608563,237.509276 245.187012,237.85791 C244.76546,238.206545 244.43506,238.691891 244.195801,239.313965 C243.956542,239.936038 243.836914,240.61165 243.836914,241.34082 C243.836914,241.924157 243.988442,242.377603 244.291504,242.701172 C244.594565,243.024741 245.012693,243.186523 245.545898,243.186523 C245.874025,243.186523 246.183918,243.140951 246.475586,243.049805 C246.767254,242.958658 247.054361,242.851563 247.336914,242.728516 L247.336914,243.706055 C246.771807,243.993165 246.142907,244.136719 245.450195,244.136719 L245.450195,244.136719 Z M250.994141,243.200195 C251.244793,243.200195 251.572915,243.140951 251.978516,243.022461 L251.978516,243.904297 C251.823567,243.968099 251.632163,244.022786 251.404297,244.068359 C251.176431,244.113933 250.994141,244.136719 250.857422,244.136719 C250.287758,244.136719 249.851401,244.001141 249.54834,243.72998 C249.245278,243.45882 249.09375,243.054365 249.09375,242.516602 C249.09375,242.215819 249.134765,241.874025 249.216797,241.491211 L250.084961,237.375977 L248.90918,237.375977 L249.004883,236.876953 L250.269531,236.34375 L251.124023,234.785156 L251.793945,234.785156 L251.417969,236.507812 L253.291016,236.507812 L253.113281,237.375977 L251.24707,237.375977 L250.365234,241.504883 C250.283203,241.901369 250.242188,242.202147 250.242188,242.407227 C250.242188,242.662436 250.308268,242.858398 250.44043,242.995117 C250.572592,243.131837 250.75716,243.200195 250.994141,243.200195 L250.994141,243.200195 Z" id="build-artifact-copy" fill="#9B9B9B" sketch:type="MSShapeGroup"></path>
            <path d="M426.398779,132.516219 C401.32007,139.830322 383,162.948677 383,190.339682 C383,223.607475 410.022795,250.655179 443.358681,250.655179 C444.811557,250.655179 446.250595,250.57797 447.677873,250.57797 L560.467377,250.57797 C561.89327,250.57797 563.333001,250.655179 564.785877,250.655179 C598.123146,250.655179 625.145941,223.646079 625.145941,190.378975 C625.145941,162.607444 606.313906,139.209898 580.699708,132.241165 C573.497596,97.1300245 541.707985,70.6551785 503.578301,70.6551785 C465.342765,70.6551785 433.48397,97.2589347 426.398779,132.516219 Z" id="Path" stroke="#EBEEF0" stroke-width="4" fill="#FAFAFA" sketch:type="MSShapeGroup"></path>
            <path d="M447,134.596007 L447.004676,200.474857 L503.998129,233.411941 L503.998129,233.411941 L561,200.472984 L560.998129,134.596007 L560.999065,134.595071 L504.005612,101.655179 L447.007482,134.595071" id="Stroke-3" stroke="#23B0E8" stroke-width="4" stroke-linecap="round" stroke-dasharray="10,7" sketch:type="MSShapeGroup"></path>
            <path d="M271.78799,203.618605 C413.414263,186.702392 453.456277,67.897467 454.763057,57.8458087 C451.567971,57.3178816 446.041969,55.7713802 445.876892,55.737107 L465.45514,45.3448215 L477.519552,61.8362274 C477.519552,61.8362274 469.94137,60.3438415 467.677508,59.9719475 C419.621017,203.618605 271.78799,203.618605 271.78799,203.618605 L271.78799,203.618605 Z" id="Stroke-3" fill="#B0B8C6" sketch:type="MSShapeGroup" transform="translate(374.653771, 124.481713) scale(1, -1) rotate(-325.000000) translate(-374.653771, -124.481713) "></path>
        </g>
    </g>
</svg>