<?xml version="1.0" encoding="UTF-8" standalone="no"?>
<svg width="780px" height="445px" viewBox="0 0 780 445" version="1.1" xmlns="http://www.w3.org/2000/svg" xmlns:xlink="http://www.w3.org/1999/xlink" xmlns:sketch="http://www.bohemiancoding.com/sketch/ns">
    <!-- Generator: Sketch 3.5 (25232) - http://www.bohemiancoding.com/sketch -->
    <title>learn_interface</title>
    <desc>Created with Sketch.</desc>
    <defs>
        <filter x="-50%" y="-50%" width="200%" height="200%" filterUnits="objectBoundingBox" id="filter-1">
            <feGaussianBlur stdDeviation="10" in="SourceGraphic" result="blur"></feGaussianBlur>
        </filter>
        <circle id="path-2" cx="8" cy="8" r="8"></circle>
        <filter x="-50%" y="-50%" width="200%" height="200%" filterUnits="objectBoundingBox" id="filter-4">
            <feOffset dx="0" dy="1" in="SourceAlpha" result="shadowOffsetOuter1"></feOffset>
            <feGaussianBlur stdDeviation="0" in="shadowOffsetOuter1" result="shadowBlurOuter1"></feGaussianBlur>
            <feColorMatrix values="0 0 0 0 0.615686275   0 0 0 0 0.619607843   0 0 0 0 0.619607843  0 0 0 0.7 0" in="shadowBlurOuter1" type="matrix" result="shadowMatrixOuter1"></feColorMatrix>
            <feMerge>
                <feMergeNode in="shadowMatrixOuter1"></feMergeNode>
                <feMergeNode in="SourceGraphic"></feMergeNode>
            </feMerge>
        </filter>
        <circle id="path-5" cx="8" cy="8" r="8"></circle>
    </defs>
    <g id="Page-1" stroke="none" stroke-width="1" fill="none" fill-rule="evenodd" sketch:type="MSPage">
        <g id="learn_interface" sketch:type="MSLayerGroup" transform="translate(0.000000, 1.000000)">
            <rect id="Rectangle-26" fill="#FFFFFF" sketch:type="MSShapeGroup" x="0" y="0" width="780" height="444"></rect>
            <g id="app.wercker.com" transform="translate(71.000000, 24.000000)">
                <rect id="Rectangle-20" fill-opacity="0.4" fill="#60718C" filter="url(#filter-1)" sketch:type="MSShapeGroup" x="0" y="0" width="639" height="385"></rect>
                <rect id="Rectangle-20" fill="#FFFFFF" sketch:type="MSShapeGroup" x="0" y="26" width="639" height="359"></rect>
                <rect id="Rectangle-5" fill="#FAFAFA" sketch:type="MSShapeGroup" x="0" y="0" width="639" height="55" rx="4"></rect>
                <rect id="Rectangle-28" fill="#60718C" sketch:type="MSShapeGroup" x="0" y="27" width="639" height="28"></rect>
                <rect id="Rectangle-33" fill="#FF3362" sketch:type="MSShapeGroup" x="18" y="68" width="19" height="19"></rect>
                <g id="Oval-4-+-Oval-4-Copy-+-Oval-4-Copy-2" transform="translate(9.000000, 10.000000)" sketch:type="MSShapeGroup">
                    <ellipse id="Oval-4" fill="#EE5132" cx="3.5" cy="3.50168894" rx="3.5" ry="3.50168894"></ellipse>
                    <circle id="Oval-4-Copy" fill="#FFC006" cx="15.5" cy="3.5" r="3.5"></circle>
                    <circle id="Oval-4-Copy-2" fill="#6DBE44" cx="27.5" cy="3.5" r="3.5"></circle>
                </g>
                <g id="Path-57-+-Path-57-Copy" transform="translate(50.000000, 8.000000)" fill="#DCDFE0" sketch:type="MSShapeGroup">
                    <path d="M0,19 C0,19 2.94663007,18.2374358 4.73088783,15.3954278 C6.51514559,12.5534198 10.308864,3.7739634 10.308864,3.7739634 C10.308864,3.7739634 12.0021025,-7.41133823e-08 14.6443022,0 C17.286502,7.41133821e-08 72.9926758,0 72.9926758,0 L72.9926758,18.8758796 L0,19 Z" id="Path-57"></path>
                    <path d="M62,19 C62,19 64.9466301,18.2374358 66.7308878,15.3954278 C68.5151456,12.5534198 72.308864,3.7739634 72.308864,3.7739634 C72.308864,3.7739634 74.0021025,-7.41133823e-08 76.6443022,0 C79.286502,7.41133821e-08 104.992676,0 104.992676,0 L104.992676,18.8758796 L62,19 Z" id="Path-57-Copy" transform="translate(83.496338, 9.500000) scale(-1, 1) translate(-83.496338, -9.500000) "></path>
                </g>
                <g id="logo" transform="translate(20.000000, 31.000000)" fill="#FFFFFF" sketch:type="MSShapeGroup">
                    <path d="M0,4.42374571 L2.44216651e-08,11.0195311 L1.47129738,11.0195311 L1.47129736,5.2195059 L7.94431274,1.60553618 L14.4183472,5.2195059 L14.4183472,11.7536189 C14.4183472,12.7514548 14.0384209,13.5596581 13.3824161,14.3957339 C11.7729267,16.4509334 8.8608035,17.9907901 7.94553568,18.4186332 C7.03250991,17.988401 4.1895846,16.3629153 2.48175049,14.4227894 L11.2334387,14.4227897 C11.8516343,13.8402542 12.0453682,13.6662501 12.5579834,12.9859617 L0.132263184,12.9859617 C1.32829739,16.9897484 7.94298789,20 7.94298789,20 C7.94298789,20 14.4940675,17.2742675 15.6844966,13.2461919 C15.815453,12.8006299 15.8893389,12.2337229 15.8893389,11.7536189 L15.8893389,4.42374571 L7.94431274,0.0250652496 L0,4.42374571 Z" id="Fill-8"></path>
                    <path d="M4,6 L11.3613505,6 L11.3613505,7.19839729 L4,7.19839729 L4,6 Z" id="Fill-9"></path>
                    <path d="M3,8 L12,8 L12,9.19830121 L3,9.19830121 L3,8 Z" id="Fill-10"></path>
                    <path d="M3,10 L12,10 L12,11.1984934 L3,11.1984934 L3,10 Z" id="Fill-11"></path>
                    <path d="M6,4 L9.37397692,4 L9.37397692,5.19839729 L6,5.19839729 L6,4 Z" id="Fill-12"></path>
                </g>
                <rect id="Rectangle-29" opacity="0.5" fill="#FFFFFF" sketch:type="MSShapeGroup" x="46" y="39" width="70" height="4"></rect>
                <rect id="Rectangle-29-Copy" opacity="0.5" fill="#FFFFFF" sketch:type="MSShapeGroup" x="122" y="39" width="50" height="4"></rect>
                <g id="dropdown" transform="translate(192.000000, 31.000000)" sketch:type="MSShapeGroup">
                    <rect id="Rectangle-31" fill="#6DBE44" x="0" y="0" width="75" height="20" rx="2"></rect>
                    <rect id="Rectangle-32" opacity="0.5" fill="#FFFFFF" x="8" y="8" width="45" height="4"></rect>
                    <path d="M62.0355339,6.03553391 L64.5355339,8.53553391 L67.0355339,11.0355339 L62.0355339,11.0355339" id="Rectangle-33" opacity="0.5" fill="#FFFFFF" transform="translate(64.535534, 8.535534) rotate(-45.000000) translate(-64.535534, -8.535534) "></path>
                </g>
                <g id="notifications" transform="translate(556.000000, 33.000000)" sketch:type="MSShapeGroup">
                    <path d="M6.62170179,4.40791902 C6.41312978,4.28180571 6.18273392,4.21875 5.9305073,4.21875 C5.67828068,4.21875 5.44545961,4.28180571 5.23203708,4.40791902 C5.01861456,4.53403233 4.84884919,4.7037977 4.72273588,4.91722022 C4.59662257,5.13064274 4.53356686,5.36346382 4.53356686,5.61569044 C4.53356686,5.82911296 4.58207125,6.03283141 4.67908149,6.22685188 C3.97090675,6.64399591 3.3694523,7.16299289 2.87470009,7.78385842 C2.37994787,8.40472394 2.12772504,9.10318718 2.11802402,9.87926908 C2.10832299,10.4128254 2.04041684,10.905145 1.91430353,11.3562426 C1.78819023,11.8073402 1.64995271,12.1541466 1.49958684,12.3966722 C1.34922097,12.6391978 1.17703038,12.9083971 0.983009907,13.2042784 C0.788989432,13.5001596 0.653177136,13.7305554 0.575568945,13.8954728 C0.527063826,14.0118851 0.529489046,14.1040435 0.582844677,14.1719506 C0.636200308,14.2398578 0.747760408,14.2907874 0.917528324,14.324741 C1.08729624,14.3586946 1.27161293,14.3829468 1.47048392,14.3974983 C1.6693549,14.4120499 1.9288534,14.4193255 2.24898718,14.4193255 L4.56266979,14.4193255 C4.70818514,14.7685624 4.90220271,15.0474626 5.1447283,15.2560346 C5.3872539,15.4646066 5.64917761,15.5688911 5.9305073,15.5688911 C6.21183699,15.5688911 6.47133549,15.4646066 6.70901057,15.2560346 C6.94668565,15.0474626 7.138278,14.7685624 7.28379336,14.4193255 L9.59747596,14.4193255 C9.91760975,14.4193255 10.174683,14.4120499 10.3687035,14.3974983 C10.562724,14.3829468 10.7446154,14.3586946 10.9143834,14.324741 C11.0841513,14.2907874 11.1957114,14.2398578 11.249067,14.1719506 C11.3024226,14.1040435 11.3048479,14.0118851 11.2563427,13.8954728 C11.1787345,13.7305554 11.0429222,13.5025848 10.8489018,13.2115541 C10.6548813,12.9205234 10.4851159,12.6585997 10.3396006,12.4257751 C10.1940852,12.1929505 10.0606981,11.8534198 9.93943534,11.4071727 C9.81817254,10.9609256 9.75269161,10.4710312 9.74299059,9.93747493 C9.73328957,9.16139303 9.48106673,8.46292979 8.98631452,7.84206427 C8.4915623,7.22119875 7.88040697,6.69735132 7.15283019,6.27050627 C7.25954145,6.05708375 7.31289628,5.83881399 7.31289628,5.61569044 C7.31289628,5.36346382 7.24984057,5.13064274 7.12372726,4.91722022 C6.99761395,4.7037977 6.8302738,4.53403233 6.62170179,4.40791902 L6.62170179,4.40791902 Z M5.40665464,5.09183778 C5.55216999,4.94632242 5.7267858,4.87356583 5.9305073,4.87356583 C6.1342288,4.87356583 6.30641939,4.94632242 6.44708424,5.09183778 C6.58774908,5.23735313 6.65808045,5.41196894 6.65808045,5.61569044 C6.65808045,5.73210273 6.62897781,5.84851327 6.57077167,5.96492555 C6.3379471,5.84851327 6.12452778,5.75150448 5.9305073,5.67389629 C5.7267858,5.74180346 5.5036656,5.82911136 5.26114001,5.93582263 C5.21263489,5.82911136 5.18838269,5.7224017 5.18838269,5.61569044 C5.18838269,5.41196894 5.26113928,5.23735313 5.40665464,5.09183778 L5.40665464,5.09183778 Z" id="" fill="#FFFFFF"></path>
                    <circle id="Oval-20" fill="#FFDB06" cx="12" cy="6" r="6"></circle>
                    <path d="M13.9394531,9 L10.0683594,9 L10.0683594,8.3046875 L11.5410156,6.82421875 C11.9759136,6.37890402 12.2643222,6.06315197 12.40625,5.87695312 C12.5481778,5.69075428 12.6516924,5.51562582 12.7167969,5.3515625 C12.7819014,5.18749918 12.8144531,5.01171969 12.8144531,4.82421875 C12.8144531,4.56640496 12.7369799,4.36328199 12.5820312,4.21484375 C12.4270826,4.06640551 12.212892,3.9921875 11.9394531,3.9921875 C11.720702,3.9921875 11.5091156,4.03255168 11.3046875,4.11328125 C11.1002594,4.19401082 10.8639336,4.3398427 10.5957031,4.55078125 L10.0996094,3.9453125 C10.4173193,3.67708199 10.72591,3.48697973 11.0253906,3.375 C11.3248713,3.26302027 11.6438785,3.20703125 11.9824219,3.20703125 C12.5136745,3.20703125 12.9394515,3.34570174 13.2597656,3.62304688 C13.5800797,3.90039201 13.7402344,4.27343516 13.7402344,4.7421875 C13.7402344,5.00000129 13.6940109,5.24479051 13.6015625,5.4765625 C13.5091141,5.70833449 13.3671885,5.94726439 13.1757812,6.19335938 C12.984374,6.43945436 12.6660179,6.77213332 12.2207031,7.19140625 L11.2285156,8.15234375 L11.2285156,8.19140625 L13.9394531,8.19140625 L13.9394531,9 Z" id="2" fill="#626463"></path>
                </g>
                <path d="M587.936279,43.7626953 L587.936279,43.5063477 C587.936279,43.1010722 587.970459,42.7629408 588.038818,42.4919434 C588.107178,42.2209459 588.237792,41.940187 588.430664,41.6496582 C588.623536,41.3591294 588.91284,41.0087911 589.298584,40.5986328 L589.752686,40.1152344 C589.840577,40.0224605 589.967528,39.8710948 590.133545,39.6611328 L590.616943,39.0532227 C591.027102,38.5454076 591.232178,38.1059589 591.232178,37.7348633 C591.232178,37.3930647 591.085695,37.0903333 590.792725,36.8266602 C590.499754,36.562987 590.023685,36.4311523 589.364502,36.4311523 C588.939695,36.4311523 588.50635,36.4885248 588.064453,36.6032715 C587.622556,36.7180182 587.106204,36.9414046 586.515381,37.2734375 L586.515381,35.9550781 C587.418706,35.5156228 588.36352,35.2958984 589.349854,35.2958984 C590.443609,35.2958984 591.277341,35.5192849 591.851074,35.9660645 C592.424808,36.412844 592.71167,36.9926722 592.71167,37.7055664 C592.71167,38.4086949 592.34058,39.1386681 591.598389,39.8955078 L591.11499,40.3935547 L590.543701,40.9868164 L590.023682,41.5214844 C589.833251,41.7363292 589.664796,41.9829088 589.518311,42.2612305 C589.371825,42.5395522 589.298584,42.9277319 589.298584,43.4257812 L589.298584,43.7626953 L587.936279,43.7626953 Z M588.68335,47.3442383 C588.400145,47.3442383 588.154786,47.2404796 587.947266,47.032959 C587.739745,46.8254384 587.635986,46.5776382 587.635986,46.2895508 C587.635986,46.0014634 587.739745,45.7548838 587.947266,45.5498047 C588.154786,45.3447255 588.400145,45.2421875 588.68335,45.2421875 C588.971437,45.2421875 589.219237,45.3435048 589.426758,45.5461426 C589.634278,45.7487803 589.738037,45.9965806 589.738037,46.2895508 C589.738037,46.582521 589.633058,46.8315419 589.423096,47.0366211 C589.213134,47.2417002 588.966554,47.3442383 588.68335,47.3442383 L588.68335,47.3442383 Z" id="?" fill="#FFFFFF" sketch:type="MSShapeGroup"></path>
                <g id="" transform="translate(603.000000, 33.000000)">
                    <mask id="mask-3" sketch:name="Mask" fill="white">
                        <use xlink:href="#path-2"></use>
                    </mask>
                    <use id="Mask" fill="#FFFFFF" sketch:type="MSShapeGroup" xlink:href="#path-2"></use>
                    <path d="M6.85742188,3.79882812 C6.88085949,3.78710932 6.91015607,3.77539068 6.9453125,3.76367188 C6.99218773,3.75195307 6.9804691,3.7636717 6.91015625,3.79882812 C6.79296816,3.86914098 6.72851568,3.92187482 6.71679688,3.95703125 C6.70507807,3.96875006 6.6816408,3.97753903 6.64648438,3.98339844 C6.61132795,3.98925784 6.5585941,4.00683579 6.48828125,4.03613281 C6.4179684,4.06542983 6.34179729,4.12695266 6.25976562,4.22070312 C6.18945277,4.29101598 6.09863337,4.37890572 5.98730469,4.484375 C5.87597601,4.58984428 5.77636763,4.68066368 5.68847656,4.75683594 C5.6005855,4.83300819 5.52148473,4.90917931 5.45117188,4.98535156 C5.38085902,5.06152382 5.34570312,5.11718732 5.34570312,5.15234375 C5.34570312,5.19921898 5.27246167,5.37206882 5.12597656,5.67089844 C4.97949146,5.96972806 4.90625,6.14843721 4.90625,6.20703125 L4.90625,6.78710938 C4.88281238,6.85742223 4.90624965,6.93945266 4.9765625,7.03320312 C4.9765625,7.06835955 4.97070318,7.10937477 4.95898438,7.15625 C4.87695271,7.08593715 4.83007818,7.1035151 4.81835938,7.20898438 C4.74804652,7.68945553 4.75976516,8.08202973 4.85351562,8.38671875 C4.86523443,8.43359398 4.86816409,8.52441339 4.86230469,8.65917969 C4.85644528,8.79394599 4.88281221,8.86132812 4.94140625,8.86132812 C4.98828148,8.90820336 5.02343738,8.91992199 5.046875,8.89648438 C5.23437594,9.7519574 5.59179424,10.5488244 6.11914062,11.2871094 C6.15429705,11.6621113 6.171875,12.0136702 6.171875,12.3417969 C6.05468691,12.3769533 5.91406332,12.4589837 5.75,12.5878906 C5.58593668,12.7167975 5.41894616,12.8427728 5.24902344,12.9658203 C5.07910071,13.0888678 4.92382883,13.1679686 4.78320312,13.203125 C4.54882695,13.261719 4.30566532,13.3056639 4.05371094,13.3349609 C3.80175655,13.364258 3.54687629,13.3994139 3.2890625,13.4404297 C3.03124871,13.4814455 2.77343879,13.537109 2.515625,13.6074219 C2.29296764,13.6777347 2.0996102,13.821288 1.93554688,14.0380859 C1.77148355,14.2548839 1.64843791,14.4980455 1.56640625,14.7675781 C1.48437459,15.0371107 1.41699245,15.3037096 1.36425781,15.5673828 C1.31152317,15.831056 1.27929693,16.0449211 1.26757812,16.2089844 L1.25,16.4726562 L14.328125,16.4726562 C14.269531,15.3593694 14.0351583,14.5390651 13.625,14.0117188 C13.4492179,13.812499 13.2617197,13.6777347 13.0625,13.6074219 C12.7343734,13.5136714 12.3388695,13.44043 11.8759766,13.3876953 C11.4130836,13.3349607 11.0527357,13.2734379 10.7949219,13.203125 C10.6074209,13.1562498 10.3613296,13.0126965 10.0566406,12.7724609 C9.7519516,12.5322254 9.53515689,12.3886721 9.40625,12.3417969 C9.40625,11.9785138 9.42968727,11.5859396 9.4765625,11.1640625 C9.95703365,10.4374964 10.2851554,9.66992592 10.4609375,8.86132812 C10.4726563,8.91992217 10.5136715,8.91992217 10.5839844,8.86132812 C10.6308596,8.8261717 10.6542969,8.75000059 10.6542969,8.6328125 C10.6542969,8.51562441 10.6660155,8.43359398 10.6894531,8.38671875 C10.7832036,8.08202973 10.8007815,7.68945553 10.7421875,7.20898438 C10.7304687,7.08007748 10.6660162,7.07421816 10.5488281,7.19140625 C10.5371093,7.14453102 10.53125,7.10937512 10.53125,7.0859375 C10.6132817,7.02734346 10.6718748,6.87500123 10.7070312,6.62890625 C10.7187501,6.54687459 10.6953128,6.39453236 10.6367188,6.171875 C10.5781247,5.94921764 10.5488281,5.80859404 10.5488281,5.75 C10.5488281,5.69140596 10.5019536,5.57421963 10.4082031,5.3984375 C10.3144527,5.22265537 10.2119146,5.0380869 10.1005859,4.84472656 C9.98925726,4.65136622 9.92187512,4.52539092 9.8984375,4.46679688 C9.86328107,4.40820283 9.75781338,4.33496138 9.58203125,4.24707031 C9.40624912,4.15917925 9.20117305,4.07421916 8.96679688,3.9921875 C8.7324207,3.91015584 8.60937506,3.86328131 8.59765625,3.8515625 L8.03515625,3.65820312 C8.21093838,3.71679717 8.24023496,3.75195307 8.12304688,3.76367188 C7.98242117,3.76367188 7.84179758,3.71679734 7.70117188,3.62304688 C7.66601545,3.61132807 7.62500023,3.60546875 7.578125,3.60546875 C7.3261707,3.60546875 7.09179805,3.66992123 6.85742188,3.79882812 Z" fill="#9D9E9E" sketch:type="MSShapeGroup" mask="url(#mask-3)"></path>
                </g>
                <path d="M-1.66533454e-16,100.5 L638.500183,100.5" id="Line" stroke="#DCDFE0" stroke-linecap="square" sketch:type="MSShapeGroup"></path>
                <path d="M18,176.5 L486.5,176.5" id="Line-Copy" stroke="#E5E7E8" stroke-linecap="square" sketch:type="MSShapeGroup"></path>
                <path d="M30.265625,81 L29.1992188,78.2753906 L25.765625,78.2753906 L24.7109375,81 L23.703125,81 L27.0898438,72.3984375 L27.9277344,72.3984375 L31.296875,81 L30.265625,81 Z M28.8886719,77.3789062 L27.8925781,74.7246094 C27.7636712,74.3886702 27.6308601,73.9765649 27.4941406,73.4882812 C27.4082027,73.8632831 27.2851571,74.2753884 27.125,74.7246094 L26.1171875,77.3789062 L28.8886719,77.3789062 Z" id="A" fill="#FFFFFF" sketch:type="MSShapeGroup"></path>
                <rect id="Rectangle-34" fill="#FF99B1" sketch:type="MSShapeGroup" x="46" y="75" width="101" height="5"></rect>
                <rect id="Rectangle-34-Copy" fill="#FF99B1" sketch:type="MSShapeGroup" x="163" y="75" width="41" height="5"></rect>
                <path d="M157.46875,69.5742188 L150.722656,85.6640625" id="Path-93" stroke="#DCDFE0" stroke-width="2" sketch:type="MSShapeGroup"></path>
                <g id="Rectangle-36-+-" transform="translate(600.000000, 67.000000)" sketch:type="MSShapeGroup">
                    <rect id="Rectangle-36" fill="#DCDFE0" filter="url(#filter-4)" x="0" y="0" width="20" height="20" rx="2"></rect>
                    <path d="M9.32910156,6 L8.70703125,7.47265625 C8.57161391,7.51497417 8.45312551,7.56152318 8.3515625,7.61230469 L6.87890625,7.015625 L6.00292969,7.89160156 L6.61230469,9.3515625 C6.56152318,9.45312551 6.51074244,9.57584563 6.45996094,9.71972656 L5,10.3417969 L5,11.5732422 L6.45996094,12.1826172 C6.51074244,12.3264981 6.56152318,12.4492182 6.61230469,12.5507812 L6.015625,14.0234375 L6.89160156,14.8994141 L8.3515625,14.2900391 C8.45312551,14.3408206 8.57584563,14.3873696 8.71972656,14.4296875 L9.34179688,15.9023438 L10.5859375,15.9023438 L11.1953125,14.4296875 C11.3222663,14.378906 11.4365229,14.332357 11.5380859,14.2900391 L13.0234375,14.8740234 L13.8994141,14.0107422 L13.2900391,12.5253906 C13.332357,12.4322912 13.3746743,12.3222663 13.4169922,12.1953125 L14.9023438,11.5605469 L14.9023438,10.3164062 L13.4169922,9.70703125 C13.3746743,9.58007749 13.3281253,9.46582082 13.2773438,9.36425781 L13.8867188,7.87890625 L13.0107422,7.00292969 L11.5380859,7.61230469 C11.4365229,7.56998677 11.3180345,7.52343775 11.1826172,7.47265625 L10.5605469,6 L9.32910156,6 Z M8.63085938,9.63720703 C8.99479349,9.27750471 9.43277739,9.09765625 9.94482422,9.09765625 C10.456871,9.09765625 10.8927391,9.27750471 11.2524414,9.63720703 C11.6121437,9.99690935 11.7919922,10.4348933 11.7919922,10.9511719 C11.7919922,11.4674505 11.6121437,11.9054344 11.2524414,12.2651367 C10.8927391,12.624839 10.456871,12.8046875 9.94482422,12.8046875 C9.43277739,12.8046875 8.99479349,12.624839 8.63085938,12.2651367 C8.26692526,11.9054344 8.08496094,11.4674505 8.08496094,10.9511719 C8.08496094,10.4348933 8.26692526,9.99690935 8.63085938,9.63720703 L8.63085938,9.63720703 Z" id="" fill="#60718C"></path>
                </g>
                <g id="Rectangle-34-Copy-2-+-Rectangle-34-Copy-2-+-Rectangle-34-Copy-2" transform="translate(472.000000, 75.000000)" fill="#DCDFE0" sketch:type="MSShapeGroup">
                    <rect id="Rectangle-34-Copy-2" x="0" y="0" width="38" height="5"></rect>
                    <rect id="Rectangle-34-Copy-2" x="48" y="0" width="32" height="5"></rect>
                    <rect id="Rectangle-34-Copy-2" x="90" y="0" width="28" height="5"></rect>
                </g>
                <rect id="Rectangle-40" fill="#E2F2DA" sketch:type="MSShapeGroup" x="18" y="114" width="602" height="35"></rect>
                <rect id="Rectangle-34-Copy-3" fill-opacity="0.5" fill="#6DBE44" sketch:type="MSShapeGroup" x="46" y="129" width="71" height="5"></rect>
                <path d="M37.8915321,125 L30.534857,134.62961 L26.9432727,130.222545 L25,131.68 L30.5695583,138.36 L39.8521555,126.440104 L37.8915321,125 Z" id="" fill="#6DBE44" sketch:type="MSShapeGroup"></path>
                <path d="M131.905273,123.271484 C131.654621,123.013671 131.353843,122.881185 131.00293,122.874023 C130.652016,122.866862 130.351238,122.988606 130.100586,123.239258 C129.849934,123.48991 129.724609,123.794269 129.724609,124.152344 C129.710286,124.610679 129.903644,124.97591 130.304687,125.248047 L130.369141,137.214844 C129.996743,137.472658 129.803385,137.830727 129.789062,138.289062 C129.789062,138.647137 129.910806,138.955077 130.154297,139.212891 C130.397788,139.470704 130.698566,139.60319 131.056641,139.610352 C131.414715,139.617513 131.719074,139.495769 131.969727,139.245117 C132.220379,138.994465 132.345703,138.690106 132.345703,138.332031 C132.360026,137.873696 132.166669,137.508465 131.765625,137.236328 L131.765625,136.591797 L131.765625,136.570312 C131.751302,135.524734 131.937498,134.647464 132.324219,133.938477 C132.710939,133.229489 133.491531,132.452478 134.666016,131.607422 C135.682948,130.862626 136.356118,130.178714 136.685547,129.555664 C137.014976,128.932614 137.186849,128.24154 137.201172,127.482422 C137.57357,127.224608 137.759766,126.8737 137.759766,126.429688 C137.774089,126.071613 137.655926,125.763673 137.405273,125.505859 C137.154621,125.248046 136.853843,125.119141 136.50293,125.119141 C136.152016,125.119141 135.851238,125.244465 135.600586,125.495117 C135.349934,125.745769 135.217448,126.050128 135.203125,126.408203 C135.203125,126.866539 135.403644,127.231769 135.804687,127.503906 C135.804687,127.776043 135.779623,128.015949 135.729492,128.223633 C135.679362,128.431316 135.586264,128.653319 135.450195,128.889648 C135.314127,129.125978 135.117189,129.369465 134.859375,129.620117 C134.601561,129.870769 134.264976,130.146483 133.849609,130.447266 C132.932938,131.106123 132.223961,131.736325 131.722656,132.337891 L131.701172,125.226562 C132.07357,124.968749 132.259766,124.625002 132.259766,124.195312 C132.274089,123.837238 132.155926,123.529298 131.905273,123.271484 L131.905273,123.271484 Z" id="" fill-opacity="0.5" fill="#6DBE44" sketch:type="MSShapeGroup"></path>
                <rect id="Rectangle-34-Copy-3" fill-opacity="0.5" fill="#6DBE44" sketch:type="MSShapeGroup" x="147" y="129" width="61" height="5"></rect>
                <rect id="Rectangle-31" fill="#24B2E8" sketch:type="MSShapeGroup" x="507" y="118" width="109" height="27" rx="2"></rect>
                <rect id="Rectangle-32" opacity="0.5" fill="#FFFFFF" sketch:type="MSShapeGroup" x="533" y="130" width="55" height="4"></rect>
                <path d="M602.035534,127.035534 L605.035534,130.035534 L608.035534,133.035534 L602.035534,133.035534" id="Rectangle-33" opacity="0.5" fill="#FFFFFF" sketch:type="MSShapeGroup" transform="translate(605.035534, 130.035534) rotate(-45.000000) translate(-605.035534, -130.035534) "></path>
                <path d="M521.119141,125.916992 C520.660154,125.916992 520.203616,125.992675 519.749512,126.144043 C519.295408,126.295411 518.877932,126.50537 518.49707,126.773926 C518.116209,127.042482 517.803712,127.35742 517.55957,127.71875 C517.364257,127.992189 517.217774,128.280272 517.120117,128.583008 C516.50488,128.797853 515.987307,129.203122 515.567383,129.798828 C515.040036,130.521488 514.776367,131.312496 514.776367,132.171875 C514.776367,132.74805 514.891112,133.307126 515.120605,133.849121 C515.350099,134.391116 515.682127,134.84033 516.116699,135.196777 C516.551272,135.553224 517.037107,135.731445 517.574219,135.731445 L519.90332,135.731445 L518.746094,134.134766 L517.574219,134.134766 C517.193357,134.134766 516.866212,133.915041 516.592773,133.475586 C516.319335,133.036131 516.182617,132.572268 516.182617,132.083984 C516.182617,131.537107 516.363279,131.017092 516.724609,130.523926 C517.085939,130.030759 517.515623,129.78418 518.013672,129.78418 C518.140626,129.78418 518.296874,129.818359 518.482422,129.886719 C518.326171,129.457029 518.372557,129.037111 518.621582,128.626953 C518.870607,128.216795 519.22949,127.894532 519.698242,127.660156 C520.166995,127.42578 520.640623,127.308594 521.119141,127.308594 C521.695315,127.308594 522.210447,127.411132 522.664551,127.616211 C523.118655,127.82129 523.462889,128.114256 523.697266,128.495117 L524.59082,127.323242 C524.336913,127.030272 524.036623,126.77881 523.689941,126.568848 C523.34326,126.358886 522.952639,126.197754 522.518066,126.085449 C522.083494,125.973144 521.61719,125.916992 521.119141,125.916992 L521.119141,125.916992 Z M526.509766,127.235352 L521.675781,133.475586 L519.610352,130.941406 L518.49707,131.776367 L521.69043,135.614258 L527.623047,128.070312 L526.509766,127.235352 Z M527.40332,130.560547 L526.363281,131.893555 C526.431641,132.118165 526.46582,132.328124 526.46582,132.523438 C526.46582,132.914064 526.353517,133.280272 526.128906,133.62207 C525.904296,133.963869 525.572268,134.134766 525.132812,134.134766 L524.517578,134.134766 L523.433594,135.731445 L525.132812,135.731445 C525.542971,135.731445 525.923826,135.636231 526.275391,135.445801 C526.626955,135.25537 526.917479,135.003908 527.146973,134.691406 C527.376466,134.378905 527.554687,134.029787 527.681641,133.644043 C527.808594,133.258299 527.87207,132.860354 527.87207,132.450195 C527.87207,131.766598 527.715822,131.136722 527.40332,130.560547 L527.40332,130.560547 Z" id="" opacity="0.5" fill="#FFFFFF" sketch:type="MSShapeGroup"></path>
                <rect id="Rectangle-46" stroke="#E5E7E8" fill="#FFFFFF" sketch:type="MSShapeGroup" x="507" y="176" width="113" height="118"></rect>
                <rect id="Rectangle-47" opacity="0.5" fill="#DCDFE0" sketch:type="MSShapeGroup" x="507" y="165" width="52" height="5"></rect>
                <rect id="Rectangle-47-Copy" fill="#DCDFE0" sketch:type="MSShapeGroup" x="537" y="191" width="32" height="5"></rect>
                <rect id="Rectangle-47-Copy-2" opacity="0.5" fill="#DCDFE0" sketch:type="MSShapeGroup" x="515" y="214" width="32" height="3"></rect>
                <rect id="Rectangle-47-Copy-4" opacity="0.5" fill="#DCDFE0" sketch:type="MSShapeGroup" x="515" y="241" width="32" height="3"></rect>
                <rect id="Rectangle-47-Copy-3" fill="#DCDFE0" sketch:type="MSShapeGroup" x="515" y="221" width="70" height="5"></rect>
                <rect id="Rectangle-47-Copy-5" fill="#DCDFE0" sketch:type="MSShapeGroup" x="515" y="248" width="20" height="5"></rect>
                <g id="" transform="translate(515.000000, 185.000000)">
                    <mask id="mask-6" sketch:name="Mask" fill="white">
                        <use xlink:href="#path-5"></use>
                    </mask>
                    <use id="Mask" fill="#EBEEF0" sketch:type="MSShapeGroup" xlink:href="#path-5"></use>
                    <path d="M6.85742188,3.79882812 C6.88085949,3.78710932 6.91015607,3.77539068 6.9453125,3.76367188 C6.99218773,3.75195307 6.9804691,3.7636717 6.91015625,3.79882812 C6.79296816,3.86914098 6.72851568,3.92187482 6.71679688,3.95703125 C6.70507807,3.96875006 6.6816408,3.97753903 6.64648438,3.98339844 C6.61132795,3.98925784 6.5585941,4.00683579 6.48828125,4.03613281 C6.4179684,4.06542983 6.34179729,4.12695266 6.25976562,4.22070312 C6.18945277,4.29101598 6.09863337,4.37890572 5.98730469,4.484375 C5.87597601,4.58984428 5.77636763,4.68066368 5.68847656,4.75683594 C5.6005855,4.83300819 5.52148473,4.90917931 5.45117188,4.98535156 C5.38085902,5.06152382 5.34570312,5.11718732 5.34570312,5.15234375 C5.34570312,5.19921898 5.27246167,5.37206882 5.12597656,5.67089844 C4.97949146,5.96972806 4.90625,6.14843721 4.90625,6.20703125 L4.90625,6.78710938 C4.88281238,6.85742223 4.90624965,6.93945266 4.9765625,7.03320312 C4.9765625,7.06835955 4.97070318,7.10937477 4.95898438,7.15625 C4.87695271,7.08593715 4.83007818,7.1035151 4.81835938,7.20898438 C4.74804652,7.68945553 4.75976516,8.08202973 4.85351562,8.38671875 C4.86523443,8.43359398 4.86816409,8.52441339 4.86230469,8.65917969 C4.85644528,8.79394599 4.88281221,8.86132812 4.94140625,8.86132812 C4.98828148,8.90820336 5.02343738,8.91992199 5.046875,8.89648438 C5.23437594,9.7519574 5.59179424,10.5488244 6.11914062,11.2871094 C6.15429705,11.6621113 6.171875,12.0136702 6.171875,12.3417969 C6.05468691,12.3769533 5.91406332,12.4589837 5.75,12.5878906 C5.58593668,12.7167975 5.41894616,12.8427728 5.24902344,12.9658203 C5.07910071,13.0888678 4.92382883,13.1679686 4.78320312,13.203125 C4.54882695,13.261719 4.30566532,13.3056639 4.05371094,13.3349609 C3.80175655,13.364258 3.54687629,13.3994139 3.2890625,13.4404297 C3.03124871,13.4814455 2.77343879,13.537109 2.515625,13.6074219 C2.29296764,13.6777347 2.0996102,13.821288 1.93554688,14.0380859 C1.77148355,14.2548839 1.64843791,14.4980455 1.56640625,14.7675781 C1.48437459,15.0371107 1.41699245,15.3037096 1.36425781,15.5673828 C1.31152317,15.831056 1.27929693,16.0449211 1.26757812,16.2089844 L1.25,16.4726562 L14.328125,16.4726562 C14.269531,15.3593694 14.0351583,14.5390651 13.625,14.0117188 C13.4492179,13.812499 13.2617197,13.6777347 13.0625,13.6074219 C12.7343734,13.5136714 12.3388695,13.44043 11.8759766,13.3876953 C11.4130836,13.3349607 11.0527357,13.2734379 10.7949219,13.203125 C10.6074209,13.1562498 10.3613296,13.0126965 10.0566406,12.7724609 C9.7519516,12.5322254 9.53515689,12.3886721 9.40625,12.3417969 C9.40625,11.9785138 9.42968727,11.5859396 9.4765625,11.1640625 C9.95703365,10.4374964 10.2851554,9.66992592 10.4609375,8.86132812 C10.4726563,8.91992217 10.5136715,8.91992217 10.5839844,8.86132812 C10.6308596,8.8261717 10.6542969,8.75000059 10.6542969,8.6328125 C10.6542969,8.51562441 10.6660155,8.43359398 10.6894531,8.38671875 C10.7832036,8.08202973 10.8007815,7.68945553 10.7421875,7.20898438 C10.7304687,7.08007748 10.6660162,7.07421816 10.5488281,7.19140625 C10.5371093,7.14453102 10.53125,7.10937512 10.53125,7.0859375 C10.6132817,7.02734346 10.6718748,6.87500123 10.7070312,6.62890625 C10.7187501,6.54687459 10.6953128,6.39453236 10.6367188,6.171875 C10.5781247,5.94921764 10.5488281,5.80859404 10.5488281,5.75 C10.5488281,5.69140596 10.5019536,5.57421963 10.4082031,5.3984375 C10.3144527,5.22265537 10.2119146,5.0380869 10.1005859,4.84472656 C9.98925726,4.65136622 9.92187512,4.52539092 9.8984375,4.46679688 C9.86328107,4.40820283 9.75781338,4.33496138 9.58203125,4.24707031 C9.40624912,4.15917925 9.20117305,4.07421916 8.96679688,3.9921875 C8.7324207,3.91015584 8.60937506,3.86328131 8.59765625,3.8515625 L8.03515625,3.65820312 C8.21093838,3.71679717 8.24023496,3.75195307 8.12304688,3.76367188 C7.98242117,3.76367188 7.84179758,3.71679734 7.70117188,3.62304688 C7.66601545,3.61132807 7.62500023,3.60546875 7.578125,3.60546875 C7.3261707,3.60546875 7.09179805,3.66992123 6.85742188,3.79882812 Z" fill="#9D9E9E" sketch:type="MSShapeGroup" mask="url(#mask-6)"></path>
                </g>
                <rect id="Rectangle-47-Copy-5" fill="#DCDFE0" sketch:type="MSShapeGroup" x="538" y="248" width="40" height="5"></rect>
                <rect id="Rectangle-47-Copy-4" opacity="0.5" fill="#DCDFE0" sketch:type="MSShapeGroup" x="515" y="268" width="32" height="3"></rect>
                <rect id="Rectangle-47-Copy-5" fill="#DCDFE0" sketch:type="MSShapeGroup" x="515" y="275" width="27" height="5"></rect>
                <rect id="Rectangle-47-Copy-5" fill="#DCDFE0" sketch:type="MSShapeGroup" x="545" y="275" width="27" height="5"></rect>
                <rect id="Rectangle-47" opacity="0.5" fill="#DCDFE0" sketch:type="MSShapeGroup" x="18" y="165" width="52" height="5"></rect>
                <path d="M18.1572266,187.594727 L18.1572266,195.841797 L21.0429688,195.841797 L23.09375,198.053711 L25.1152344,195.841797 L30.4912109,195.841797 L30.4912109,187.594727 L18.1572266,187.594727 Z M18.8457031,188.3125 L29.8027344,188.3125 L29.8027344,195.109375 L24.8369141,195.109375 L23.09375,197.02832 L21.3359375,195.109375 L18.8457031,195.109375 L18.8457031,188.3125 Z" id="" fill="#9D9E9E" sketch:type="MSShapeGroup"></path>
                <rect id="Rectangle-47-Copy-6" fill="#DCDFE0" sketch:type="MSShapeGroup" x="36" y="190" width="45" height="5"></rect>
                <rect id="Rectangle-47-Copy-6" fill="#DCDFE0" sketch:type="MSShapeGroup" x="86" y="190" width="95" height="5"></rect>
                <path d="M18,176.5 L486.5,176.5" id="Line-Copy" stroke="#E5E7E8" stroke-linecap="square" sketch:type="MSShapeGroup"></path>
                <path d="M18,209.5 L486.5,209.5" id="Line-Copy" stroke="#E5E7E8" stroke-linecap="square" sketch:type="MSShapeGroup"></path>
                <rect id="Rectangle-47" opacity="0.5" fill="#DCDFE0" sketch:type="MSShapeGroup" x="18" y="230" width="42" height="5"></rect>
                <path d="M18,241.5 L486.5,241.5" id="Line-Copy" stroke="#E5E7E8" stroke-linecap="square" sketch:type="MSShapeGroup"></path>
                <path d="M18,241.5 L486.5,241.5" id="Line-Copy" stroke="#E5E7E8" stroke-linecap="square" sketch:type="MSShapeGroup"></path>
                <path d="M18,274.5 L486.5,274.5" id="Line-Copy" stroke="#E5E7E8" stroke-linecap="square" sketch:type="MSShapeGroup"></path>
                <path d="M29.9967269,253 L24.2919999,260.467272 L21.506909,257.049818 L20,258.18 L24.3189089,263.36 L31.5170905,254.116727 L29.9967269,253 Z" id="" fill="#6DBE44" sketch:type="MSShapeGroup"></path>
                <rect id="Rectangle-47-Copy-6" fill="#DCDFE0" sketch:type="MSShapeGroup" x="38" y="257" width="75" height="5"></rect>
                <rect id="Rectangle-47-Copy-7" fill="#DCDFE0" sketch:type="MSShapeGroup" x="468" y="257" width="20" height="5"></rect>
                <path d="M18,274.5 L486.5,274.5" id="Line-Copy" stroke="#E5E7E8" stroke-linecap="square" sketch:type="MSShapeGroup"></path>
                <path d="M18,307.5 L486.5,307.5" id="Line-Copy" stroke="#E5E7E8" stroke-linecap="square" sketch:type="MSShapeGroup"></path>
                <path d="M29.9967269,286 L24.2919999,293.467272 L21.506909,290.049818 L20,291.18 L24.3189089,296.36 L31.5170905,287.116727 L29.9967269,286 Z" id="" fill="#6DBE44" sketch:type="MSShapeGroup"></path>
                <rect id="Rectangle-47-Copy-6" fill="#DCDFE0" sketch:type="MSShapeGroup" x="38" y="290" width="35" height="5"></rect>
                <rect id="Rectangle-47-Copy-7" fill="#DCDFE0" sketch:type="MSShapeGroup" x="461" y="290" width="27" height="5"></rect>
                <path d="M18,307.5 L486.5,307.5" id="Line-Copy" stroke="#E5E7E8" stroke-linecap="square" sketch:type="MSShapeGroup"></path>
                <path d="M18,340.5 L486.5,340.5" id="Line-Copy" stroke="#E5E7E8" stroke-linecap="square" sketch:type="MSShapeGroup"></path>
                <path d="M29.9967269,319 L24.2919999,326.467272 L21.506909,323.049818 L20,324.18 L24.3189089,329.36 L31.5170905,320.116727 L29.9967269,319 Z" id="" fill="#6DBE44" sketch:type="MSShapeGroup"></path>
                <rect id="Rectangle-47-Copy-6" fill="#DCDFE0" sketch:type="MSShapeGroup" x="38" y="323" width="56" height="5"></rect>
                <rect id="Rectangle-47-Copy-7" fill="#DCDFE0" sketch:type="MSShapeGroup" x="471" y="323" width="17" height="5"></rect>
                <path d="M18,340.5 L486.5,340.5" id="Line-Copy" stroke="#E5E7E8" stroke-linecap="square" sketch:type="MSShapeGroup"></path>
                <path d="M18,373.5 L486.5,373.5" id="Line-Copy" stroke="#E5E7E8" stroke-linecap="square" sketch:type="MSShapeGroup"></path>
                <path d="M29.9967269,352 L24.2919999,359.467272 L21.506909,356.049818 L20,357.18 L24.3189089,362.36 L31.5170905,353.116727 L29.9967269,352 Z" id="" fill="#6DBE44" sketch:type="MSShapeGroup"></path>
                <rect id="Rectangle-47-Copy-6" fill="#DCDFE0" sketch:type="MSShapeGroup" x="38" y="356" width="45" height="5"></rect>
                <rect id="Rectangle-47-Copy-7" fill="#DCDFE0" sketch:type="MSShapeGroup" x="466" y="356" width="22" height="5"></rect>
                <path d="M18,373.5 L486.5,373.5" id="Line-Copy" stroke="#E5E7E8" stroke-linecap="square" sketch:type="MSShapeGroup"></path>
            </g>
        </g>
    </g>
</svg>