<?xml version="1.0" encoding="UTF-8" standalone="no"?>
<svg width="780px" height="262px" viewBox="0 0 780 262" version="1.1" xmlns="http://www.w3.org/2000/svg" xmlns:xlink="http://www.w3.org/1999/xlink" xmlns:sketch="http://www.bohemiancoding.com/sketch/ns">
    <!-- Generator: Sketch 3.5.1 (25234) - http://www.bohemiancoding.com/sketch -->
    <title>Group 6</title>
    <desc>Created with Sketch.</desc>
    <defs></defs>
    <g id="Page-1" stroke="none" stroke-width="1" fill="none" fill-rule="evenodd" sketch:type="MSPage">
        <g id="Group-6" sketch:type="MSLayerGroup">
            <rect id="Rectangle-26" fill="#FFFFFF" sketch:type="MSShapeGroup" x="0" y="0" width="780" height="262"></rect>
            <g id="Group-5" transform="translate(49.000000, 58.000000)" sketch:type="MSShapeGroup">
                <path d="M67.5,115.5 L617.503662,115.5" id="Line" stroke="#B0B8C6" stroke-width="3" stroke-linecap="square"></path>
                <path d="M277.5,135.256579 C288.129817,135.256579 296.746753,126.406746 296.746753,115.5 C296.746753,104.588611 288.129817,95.7434211 277.5,95.7434211 C266.874707,95.7434211 258.253247,104.588611 258.253247,115.5 C258.253247,126.406746 266.874707,135.256579 277.5,135.256579 L277.5,135.256579 Z" id="Stroke-9" stroke="#B0B8C6" stroke-width="3" fill="#FFFFFF"></path>
                <path d="M289.511429,107.191412 L286.418,105 L274.753143,119.681882 L269.072,112.949529 L266,115.175118 L274.826429,125.359706 L289.511429,107.191412" id="Imported-Layers" fill="#6AC03B"></path>
                <path d="M505.5,134.256579 C516.129817,134.256579 524.746753,125.406746 524.746753,114.5 C524.746753,103.588611 516.129817,94.7434211 505.5,94.7434211 C494.874707,94.7434211 486.253247,103.588611 486.253247,114.5 C486.253247,125.406746 494.874707,134.256579 505.5,134.256579 L505.5,134.256579 Z" id="Stroke-9" stroke="#B0B8C6" stroke-width="3" fill="#FFFFFF"></path>
                <path d="M517.511429,106.191412 L514.418,104 L502.753143,118.681882 L497.072,111.949529 L494,114.175118 L502.826429,124.359706 L517.511429,106.191412" id="Imported-Layers" fill="#6AC03B"></path>
                <path d="M25.5297852,151.507812 L25.3588867,152.239258 L23.9165039,152.40332 C24.1033538,152.685874 24.1967773,153.045896 24.1967773,153.483398 C24.1967773,154.353845 23.9313178,155.047686 23.4003906,155.564941 C22.8694635,156.082197 22.1596724,156.34082 21.2709961,156.34082 C21.0203438,156.34082 20.8289395,156.322591 20.6967773,156.286133 C20.0633106,156.52767 19.746582,156.82617 19.746582,157.181641 C19.746582,157.368491 19.8217766,157.492675 19.972168,157.554199 C20.1225593,157.615723 20.3413072,157.664713 20.628418,157.701172 L21.4282227,157.796875 C22.2530966,157.897136 22.8512351,158.097655 23.2226562,158.398438 C23.5940774,158.69922 23.7797852,159.141273 23.7797852,159.724609 C23.7797852,160.563155 23.4471062,161.212563 22.7817383,161.672852 C22.1163704,162.13314 21.1798563,162.363281 19.972168,162.363281 C19.088049,162.363281 18.3953476,162.195802 17.894043,161.86084 C17.3927384,161.525877 17.1420898,161.053063 17.1420898,160.442383 C17.1420898,159.963865 17.3061507,159.549155 17.6342773,159.198242 C17.962404,158.847329 18.4933232,158.548829 19.2270508,158.302734 C18.8715803,158.115884 18.6938477,157.840171 18.6938477,157.475586 C18.6938477,157.161131 18.8100574,156.891114 19.0424805,156.665527 C19.2749035,156.43994 19.598468,156.229168 20.0131836,156.033203 C19.7260728,155.887369 19.4913746,155.672039 19.309082,155.387207 C19.1267895,155.102375 19.0356445,154.770835 19.0356445,154.392578 C19.0356445,153.508459 19.30794,152.783857 19.8525391,152.21875 C20.3971381,151.653643 21.0932575,151.371094 21.940918,151.371094 C22.2963885,151.371094 22.6472964,151.416666 22.9936523,151.507812 L25.5297852,151.507812 Z M18.2495117,160.333008 C18.2495117,160.683921 18.3976222,160.961913 18.6938477,161.166992 C18.9900731,161.372071 19.4298473,161.474609 20.0131836,161.474609 C20.8426148,161.474609 21.4908831,161.329917 21.9580078,161.040527 C22.4251325,160.751138 22.6586914,160.342125 22.6586914,159.813477 C22.6586914,159.530923 22.5356458,159.307618 22.2895508,159.143555 C22.0434558,158.979491 21.6241892,158.86556 21.0317383,158.801758 L19.9448242,158.692383 C19.3979465,158.806316 18.9786798,159.006835 18.6870117,159.293945 C18.3953436,159.581056 18.2495117,159.927407 18.2495117,160.333008 L18.2495117,160.333008 Z M20.1499023,154.351562 C20.1499023,154.738934 20.2524404,155.034016 20.4575195,155.236816 C20.6625987,155.439617 20.9474266,155.541016 21.3120117,155.541016 C21.6720396,155.541016 21.9864895,155.445313 22.2553711,155.253906 C22.5242526,155.062499 22.730468,154.799318 22.8740234,154.464355 C23.0175788,154.129393 23.0893555,153.765952 23.0893555,153.374023 C23.0893555,153.000324 22.9890961,152.715496 22.7885742,152.519531 C22.5880524,152.323567 22.3009459,152.225586 21.9272461,152.225586 C21.5717756,152.225586 21.2607435,152.31787 20.9941406,152.502441 C20.7275377,152.687013 20.520183,152.944497 20.3720703,153.274902 C20.2239576,153.605308 20.1499023,153.964191 20.1499023,154.351562 L20.1499023,154.351562 Z M26.5756836,159 L25.4272461,159 L27.0268555,151.507812 L28.175293,151.507812 L26.5756836,159 Z M27.3481445,149.59375 C27.3481445,149.33854 27.4210605,149.130046 27.5668945,148.968262 C27.7127286,148.806477 27.9018543,148.725586 28.1342773,148.725586 C28.535321,148.725586 28.7358398,148.930662 28.7358398,149.34082 C28.7358398,149.591473 28.659506,149.803385 28.5068359,149.976562 C28.3541659,150.14974 28.1775726,150.236328 27.9770508,150.236328 C27.7947582,150.236328 27.6443691,150.180502 27.5258789,150.068848 C27.4073887,149.957193 27.3481445,149.798829 27.3481445,149.59375 L27.3481445,149.59375 Z M31.2788086,158.200195 C31.5294609,158.200195 31.8575826,158.140951 32.2631836,158.022461 L32.2631836,158.904297 C32.1082349,158.968099 31.9168306,159.022786 31.6889648,159.068359 C31.4610991,159.113933 31.2788093,159.136719 31.1420898,159.136719 C30.5724255,159.136719 30.1360692,159.001141 29.8330078,158.72998 C29.5299464,158.45882 29.378418,158.054365 29.378418,157.516602 C29.378418,157.215819 29.4194332,156.874025 29.5014648,156.491211 L30.3696289,152.375977 L29.1938477,152.375977 L29.2895508,151.876953 L30.5541992,151.34375 L31.4086914,149.785156 L32.0786133,149.785156 L31.7026367,151.507812 L33.5756836,151.507812 L33.3979492,152.375977 L31.5317383,152.375977 L30.6499023,156.504883 C30.5678707,156.901369 30.5268555,157.202147 30.5268555,157.407227 C30.5268555,157.662436 30.5929355,157.858398 30.7250977,157.995117 C30.8572598,158.131837 31.0418282,158.200195 31.2788086,158.200195 L31.2788086,158.200195 Z M40.4799805,159.136719 C40.037921,159.136719 39.650555,159.022788 39.3178711,158.794922 C38.9851871,158.567056 38.7277027,158.248049 38.5454102,157.837891 L38.4770508,157.837891 L38.449707,158.097656 C38.4360351,158.211589 38.4121095,158.371093 38.3779297,158.576172 C38.3437498,158.781251 38.0828475,160.043608 37.5952148,162.363281 L36.4604492,162.363281 L38.7573242,151.507812 L39.7075195,151.507812 L39.5297852,152.936523 L39.5844727,152.936523 C40.4002319,151.902013 41.2478797,151.384766 42.1274414,151.384766 C42.7517935,151.384766 43.2439761,151.606931 43.6040039,152.05127 C43.9640317,152.495608 44.144043,153.118811 44.144043,153.920898 C44.144043,154.887049 43.986818,155.773433 43.6723633,156.580078 C43.3579086,157.386723 42.9226916,158.014483 42.3666992,158.463379 C41.8107069,158.912274 41.1818069,159.136719 40.4799805,159.136719 L40.4799805,159.136719 Z M41.7514648,152.334961 C41.3139627,152.334961 40.8684919,152.55143 40.4150391,152.984375 C39.9615863,153.41732 39.6015638,153.961911 39.3349609,154.618164 C39.068358,155.274417 38.9350586,155.946611 38.9350586,156.634766 C38.9350586,157.13607 39.0615222,157.520018 39.3144531,157.786621 C39.5673841,158.053224 39.9331031,158.186523 40.4116211,158.186523 C40.8627952,158.186523 41.2832012,158.001955 41.6728516,157.632812 C42.0625019,157.26367 42.3758126,156.738447 42.612793,156.057129 C42.8497733,155.37581 42.9682617,154.652348 42.9682617,153.886719 C42.9682617,152.852208 42.5626668,152.334961 41.7514648,152.334961 L41.7514648,152.334961 Z M47.9174805,151.507812 L46.8920898,156.258789 C46.8100582,156.66439 46.769043,156.981119 46.769043,157.208984 C46.769043,157.86068 47.1040006,158.186523 47.7739258,158.186523 C48.1749695,158.186523 48.5691712,158.049806 48.956543,157.776367 C49.3439147,157.502928 49.6857082,157.111005 49.9819336,156.600586 C50.278159,156.090167 50.5037427,155.474938 50.6586914,154.754883 L51.3422852,151.507812 L52.4770508,151.507812 L50.8979492,159 L49.9477539,159 L50.0981445,157.612305 L50.0161133,157.612305 C49.5694965,158.181969 49.143394,158.578449 48.737793,158.801758 C48.332192,159.025066 47.9129253,159.136719 47.4799805,159.136719 C46.8966442,159.136719 46.438641,158.978354 46.105957,158.661621 C45.7732731,158.344888 45.6069336,157.892581 45.6069336,157.304688 C45.6069336,157.022134 45.6570633,156.630211 45.7573242,156.128906 L46.7553711,151.507812 L47.9174805,151.507812 Z M57.9389648,156.874023 C57.9389648,157.584964 57.687177,158.139809 57.1835938,158.538574 C56.6800105,158.937339 55.9702194,159.136719 55.0541992,159.136719 C54.2840131,159.136719 53.589033,158.979494 52.9692383,158.665039 L52.9692383,157.584961 C53.2882503,157.776368 53.6323224,157.924479 54.0014648,158.029297 C54.3706073,158.134115 54.7124008,158.186523 55.0268555,158.186523 C55.6010771,158.186523 56.0340155,158.072592 56.3256836,157.844727 C56.6173517,157.616861 56.7631836,157.325197 56.7631836,156.969727 C56.7631836,156.70996 56.6834318,156.491212 56.5239258,156.313477 C56.3644198,156.135741 56.0203477,155.891929 55.4916992,155.582031 C54.8992483,155.249347 54.4799817,154.923504 54.2338867,154.604492 C53.9877917,154.28548 53.8647461,153.907229 53.8647461,153.469727 C53.8647461,152.840817 54.094887,152.333824 54.5551758,151.94873 C55.0154645,151.563637 55.6215783,151.371094 56.3735352,151.371094 C57.1528359,151.371094 57.9047815,151.539712 58.6293945,151.876953 L58.2602539,152.813477 L57.8774414,152.642578 C57.4171526,152.446614 56.9158556,152.348633 56.3735352,152.348633 C55.9497049,152.348633 55.6170259,152.447753 55.3754883,152.645996 C55.1339506,152.844239 55.0131836,153.100584 55.0131836,153.415039 C55.0131836,153.670249 55.0940747,153.888996 55.2558594,154.071289 C55.417644,154.253582 55.7514623,154.48828 56.2573242,154.775391 C56.7449569,155.048829 57.0947255,155.283528 57.3066406,155.479492 C57.5185557,155.675457 57.67692,155.886229 57.7817383,156.111816 C57.8865565,156.337403 57.9389648,156.59147 57.9389648,156.874023 L57.9389648,156.874023 Z M63.8930664,159 L64.9047852,154.269531 C64.9868168,153.841144 65.027832,153.53353 65.027832,153.34668 C65.027832,152.672197 64.6928744,152.334961 64.0229492,152.334961 C63.6173482,152.334961 63.2220071,152.4694 62.8369141,152.738281 C62.451821,153.007163 62.1123062,153.397947 61.8183594,153.910645 C61.5244126,154.423342 61.3022468,155.041989 61.1518555,155.766602 L60.4614258,159 L59.3129883,159 L61.5688477,148.363281 L62.7172852,148.363281 C62.6352535,148.736981 62.556641,149.099282 62.4814453,149.450195 C62.4062496,149.801109 62.3287764,150.157713 62.2490234,150.52002 C62.1692704,150.882326 62.0826828,151.261717 61.9892578,151.658203 C61.8958329,152.054689 61.7875983,152.485349 61.6645508,152.950195 L61.7397461,152.950195 C62.1681337,152.389646 62.5908182,151.988608 63.0078125,151.74707 C63.4248068,151.505533 63.8611631,151.384766 64.3168945,151.384766 C64.9139027,151.384766 65.3753239,151.548826 65.7011719,151.876953 C66.0270199,152.20508 66.1899414,152.669919 66.1899414,153.271484 C66.1899414,153.554038 66.1375331,153.932289 66.0327148,154.40625 C65.8549796,155.285812 65.5245792,156.817046 65.0415039,159 L63.8930664,159 Z" id="git-push" fill="#9B9B9B"></path>
                <path d="M42,138.315789 C55.0828513,138.315789 65.6883117,127.423687 65.6883117,114 C65.6883117,100.570598 55.0828513,89.6842105 42,89.6842105 C28.9227158,89.6842105 18.3116883,100.570598 18.3116883,114 C18.3116883,127.423687 28.9227158,138.315789 42,138.315789 L42,138.315789 Z" id="Stroke-9" stroke="#B0B8C6" stroke-width="3" fill="#B0B8C6"></path>
                <rect id="Rectangle-path" fill="#FFFFFF" x="36" y="107" width="12" height="1"></rect>
                <rect id="Rectangle-path" fill="#FFFFFF" x="36" y="110" width="5" height="1"></rect>
                <rect id="Rectangle-path" fill="#FFFFFF" x="42" y="110" width="4" height="1"></rect>
                <rect id="Rectangle-path" fill="#FFFFFF" x="38" y="113" width="8" height="1"></rect>
                <rect id="Rectangle-path" fill="#FFFFFF" x="38" y="119" width="6" height="1"></rect>
                <rect id="Rectangle-path" fill="#FFFFFF" x="36" y="116" width="3" height="1"></rect>
                <rect id="Rectangle-path" fill="#FFFFFF" x="40" y="116" width="6" height="1"></rect>
                <path d="M37.9998109,124.75 L36.562238,124.75 L36.1526143,124.75 L34.4997809,124.75 C32.5668008,124.75 30.999895,123.191696 31,121.245606 L31.0009035,104.504394 C31.0010079,102.568971 32.5707726,101 34.4946034,101 L38.0010926,101" id="Shape" stroke="#FFFFFF" stroke-width="1.5"></path>
                <path d="M52.9998109,124.75 L49.4935668,124.75 L49.4935668,124.75 C47.5640187,124.75 45.999895,123.191696 46,121.245606 L46.0009035,104.504394 C46.0010079,102.568971 47.569835,101 49.5020138,101 C49.5020138,101 50.6634331,101 49.4946034,101 C48.3257737,101 51.8322629,101 53.0010926,101" id="Shape" stroke="#FFFFFF" stroke-width="1.5" transform="translate(49.500546, 112.875000) scale(-1, 1) translate(-49.500546, -112.875000) "></path>
                <path d="M588.892578,159.136719 C588.450519,159.136719 588.062013,159.020509 587.727051,158.788086 C587.392088,158.555663 587.1403,158.238934 586.97168,157.837891 L586.90332,157.837891 L586.424805,159 L585.570312,159 L587.826172,148.363281 L588.974609,148.363281 C588.742186,149.466151 588.563314,150.310381 588.437988,150.895996 C588.312662,151.481611 588.140626,152.166337 587.921875,152.950195 L587.983398,152.950195 C588.407229,152.412432 588.825356,152.017091 589.237793,151.76416 C589.65023,151.511229 590.075193,151.384766 590.512695,151.384766 C591.155277,151.384766 591.656574,151.610349 592.016602,152.061523 C592.376629,152.512698 592.556641,153.132483 592.556641,153.920898 C592.556641,154.873377 592.400555,155.754065 592.088379,156.562988 C591.776203,157.371912 591.340986,158.00309 590.782715,158.456543 C590.224444,158.909996 589.594405,159.136719 588.892578,159.136719 L588.892578,159.136719 Z M590.164062,152.334961 C589.72656,152.334961 589.28109,152.55143 588.827637,152.984375 C588.374184,153.41732 588.014161,153.961911 587.747559,154.618164 C587.480956,155.274417 587.347656,155.946611 587.347656,156.634766 C587.347656,157.13607 587.47412,157.520018 587.727051,157.786621 C587.979982,158.053224 588.345701,158.186523 588.824219,158.186523 C589.275393,158.186523 589.695799,158.001955 590.085449,157.632812 C590.4751,157.26367 590.78841,156.738447 591.025391,156.057129 C591.262371,155.37581 591.380859,154.652348 591.380859,153.886719 C591.380859,152.852208 590.975264,152.334961 590.164062,152.334961 L590.164062,152.334961 Z M596.330078,151.507812 L595.304688,156.258789 C595.222656,156.66439 595.181641,156.981119 595.181641,157.208984 C595.181641,157.86068 595.516598,158.186523 596.186523,158.186523 C596.587567,158.186523 596.981769,158.049806 597.369141,157.776367 C597.756512,157.502928 598.098306,157.111005 598.394531,156.600586 C598.690757,156.090167 598.91634,155.474938 599.071289,154.754883 L599.754883,151.507812 L600.889648,151.507812 L599.310547,159 L598.360352,159 L598.510742,157.612305 L598.428711,157.612305 C597.982094,158.181969 597.555992,158.578449 597.150391,158.801758 C596.74479,159.025066 596.325523,159.136719 595.892578,159.136719 C595.309242,159.136719 594.851239,158.978354 594.518555,158.661621 C594.185871,158.344888 594.019531,157.892581 594.019531,157.304688 C594.019531,157.022134 594.069661,156.630211 594.169922,156.128906 L595.167969,151.507812 L596.330078,151.507812 Z M602.878906,159 L601.730469,159 L603.330078,151.507812 L604.478516,151.507812 L602.878906,159 Z M603.651367,149.59375 C603.651367,149.33854 603.724283,149.130046 603.870117,148.968262 C604.015951,148.806477 604.205077,148.725586 604.4375,148.725586 C604.838544,148.725586 605.039062,148.930662 605.039062,149.34082 C605.039062,149.591473 604.962729,149.803385 604.810059,149.976562 C604.657389,150.14974 604.480795,150.236328 604.280273,150.236328 C604.097981,150.236328 603.947592,150.180502 603.829102,150.068848 C603.710611,149.957193 603.651367,149.798829 603.651367,149.59375 L603.651367,149.59375 Z M606.419922,159 L605.271484,159 L607.541016,148.363281 L608.689453,148.363281 L606.419922,159 Z M612.804688,151.384766 C613.688807,151.384766 614.3291,151.817704 614.725586,152.683594 L614.793945,152.683594 C614.87142,151.97721 614.973958,151.352867 615.101562,150.810547 L615.634766,148.363281 L616.769531,148.363281 L614.513672,159 L613.563477,159 L613.713867,157.571289 L613.65918,157.571289 C613.198891,158.140953 612.768231,158.54427 612.367188,158.78125 C611.966144,159.01823 611.551434,159.136719 611.123047,159.136719 C610.48958,159.136719 609.995119,158.913414 609.639648,158.466797 C609.284178,158.02018 609.106445,157.400395 609.106445,156.607422 C609.106445,155.632157 609.270506,154.738936 609.598633,153.927734 C609.926759,153.116532 610.369952,152.489911 610.928223,152.047852 C611.486494,151.605792 612.111976,151.384766 612.804688,151.384766 L612.804688,151.384766 Z M611.505859,158.186523 C611.934247,158.186523 612.3763,157.973472 612.832031,157.547363 C613.287763,157.121254 613.648924,156.576663 613.915527,155.913574 C614.18213,155.250485 614.31543,154.574873 614.31543,153.886719 C614.31543,153.380857 614.192384,152.99577 613.946289,152.731445 C613.700194,152.467121 613.34245,152.334961 612.873047,152.334961 C612.412758,152.334961 611.985516,152.522947 611.591309,152.898926 C611.197101,153.274904 610.880372,153.803545 610.641113,154.484863 C610.401854,155.166182 610.282227,155.882809 610.282227,156.634766 C610.282227,157.669276 610.6901,158.186523 611.505859,158.186523 L611.505859,158.186523 Z M624.521484,151.371094 C624.940757,151.371094 625.314451,151.483886 625.642578,151.709473 C625.970705,151.93506 626.225911,152.259764 626.408203,152.683594 L626.483398,152.683594 L626.941406,151.507812 L627.80957,151.507812 L626.216797,159 L625.307617,159 L625.485352,157.571289 L625.430664,157.571289 C624.614905,158.614914 623.755864,159.136719 622.853516,159.136719 C622.220049,159.136719 621.723309,158.911135 621.363281,158.459961 C621.003253,158.008787 620.823242,157.39128 620.823242,156.607422 C620.823242,155.6595 620.985024,154.779952 621.308594,153.96875 C621.632163,153.157548 622.078773,152.521812 622.648438,152.061523 C623.218102,151.601235 623.842445,151.371094 624.521484,151.371094 L624.521484,151.371094 Z M623.222656,158.186523 C623.664716,158.186523 624.10449,157.975751 624.541992,157.554199 C624.979494,157.132648 625.33496,156.583499 625.608398,155.906738 C625.881837,155.229977 626.018555,154.552087 626.018555,153.873047 C626.018555,153.403643 625.890952,153.029949 625.635742,152.751953 C625.380533,152.473957 625.045575,152.334961 624.630859,152.334961 C624.156899,152.334961 623.715985,152.530923 623.308105,152.922852 C622.900226,153.314781 622.580079,153.8457 622.347656,154.515625 C622.115233,155.18555 621.999023,155.891923 621.999023,156.634766 C621.999023,157.154299 622.106119,157.542805 622.320312,157.800293 C622.534506,158.057781 622.835285,158.186523 623.222656,158.186523 L623.222656,158.186523 Z M633.203125,151.371094 C633.51758,151.371094 633.791014,151.402994 634.023438,151.466797 L633.777344,152.492188 C633.535806,152.432942 633.296551,152.40332 633.05957,152.40332 C632.644855,152.40332 632.256349,152.540038 631.894043,152.813477 C631.531736,153.086915 631.215008,153.466306 630.943848,153.95166 C630.672687,154.437014 630.473308,154.975908 630.345703,155.568359 L629.614258,159 L628.46582,159 L630.06543,151.507812 L631.015625,151.507812 L630.865234,152.895508 L630.933594,152.895508 C631.26172,152.462563 631.532877,152.151531 631.74707,151.962402 C631.961264,151.773274 632.185708,151.627442 632.42041,151.524902 C632.655112,151.422363 632.916014,151.371094 633.203125,151.371094 L633.203125,151.371094 Z M636.306641,158.200195 C636.557293,158.200195 636.885415,158.140951 637.291016,158.022461 L637.291016,158.904297 C637.136067,158.968099 636.944663,159.022786 636.716797,159.068359 C636.488931,159.113933 636.306641,159.136719 636.169922,159.136719 C635.600258,159.136719 635.163901,159.001141 634.86084,158.72998 C634.557778,158.45882 634.40625,158.054365 634.40625,157.516602 C634.40625,157.215819 634.447265,156.874025 634.529297,156.491211 L635.397461,152.375977 L634.22168,152.375977 L634.317383,151.876953 L635.582031,151.34375 L636.436523,149.785156 L637.106445,149.785156 L636.730469,151.507812 L638.603516,151.507812 L638.425781,152.375977 L636.55957,152.375977 L635.677734,156.504883 C635.595703,156.901369 635.554688,157.202147 635.554688,157.407227 C635.554688,157.662436 635.620768,157.858398 635.75293,157.995117 C635.885092,158.131837 636.06966,158.200195 636.306641,158.200195 L636.306641,158.200195 Z M639.697266,159 L638.548828,159 L640.148438,151.507812 L641.296875,151.507812 L639.697266,159 Z M640.469727,149.59375 C640.469727,149.33854 640.542643,149.130046 640.688477,148.968262 C640.834311,148.806477 641.023436,148.725586 641.255859,148.725586 C641.656903,148.725586 641.857422,148.930662 641.857422,149.34082 C641.857422,149.591473 641.781088,149.803385 641.628418,149.976562 C641.475748,150.14974 641.299155,150.236328 641.098633,150.236328 C640.91634,150.236328 640.765951,150.180502 640.647461,150.068848 C640.528971,149.957193 640.469727,149.798829 640.469727,149.59375 L640.469727,149.59375 Z M640.989258,162.363281 C640.674803,162.363281 640.389975,162.31543 640.134766,162.219727 L640.134766,161.255859 C640.426434,161.35612 640.68164,161.40625 640.900391,161.40625 C641.246747,161.40625 641.513345,161.264975 641.700195,160.982422 C641.887045,160.699868 642.037434,160.296552 642.151367,159.772461 L643.703125,152.375977 L642.383789,152.375977 L642.472656,151.917969 L643.880859,151.466797 L644.038086,150.783203 C644.247722,149.87174 644.538247,149.228029 644.909668,148.852051 C645.281089,148.476072 645.831377,148.288086 646.560547,148.288086 C646.742839,148.288086 646.966145,148.31429 647.230469,148.366699 C647.494793,148.419108 647.699869,148.477213 647.845703,148.541016 L647.551758,149.422852 C647.205402,149.290689 646.893231,149.224609 646.615234,149.224609 C646.218748,149.224609 645.914552,149.335123 645.702637,149.556152 C645.490722,149.777182 645.318686,150.181638 645.186523,150.769531 L645.015625,151.507812 L646.642578,151.507812 L646.47168,152.375977 L644.851562,152.375977 L643.265625,159.881836 C643.08789,160.743168 642.814455,161.372068 642.445312,161.768555 C642.07617,162.165041 641.590823,162.363281 640.989258,162.363281 L640.989258,162.363281 Z M650.450195,151.371094 C650.869468,151.371094 651.243162,151.483886 651.571289,151.709473 C651.899416,151.93506 652.154621,152.259764 652.336914,152.683594 L652.412109,152.683594 L652.870117,151.507812 L653.738281,151.507812 L652.145508,159 L651.236328,159 L651.414062,157.571289 L651.359375,157.571289 C650.543616,158.614914 649.684575,159.136719 648.782227,159.136719 C648.14876,159.136719 647.65202,158.911135 647.291992,158.459961 C646.931964,158.008787 646.751953,157.39128 646.751953,156.607422 C646.751953,155.6595 646.913735,154.779952 647.237305,153.96875 C647.560874,153.157548 648.007484,152.521812 648.577148,152.061523 C649.146813,151.601235 649.771155,151.371094 650.450195,151.371094 L650.450195,151.371094 Z M649.151367,158.186523 C649.593427,158.186523 650.033201,157.975751 650.470703,157.554199 C650.908205,157.132648 651.263671,156.583499 651.537109,155.906738 C651.810548,155.229977 651.947266,154.552087 651.947266,153.873047 C651.947266,153.403643 651.819663,153.029949 651.564453,152.751953 C651.309244,152.473957 650.974286,152.334961 650.55957,152.334961 C650.08561,152.334961 649.644696,152.530923 649.236816,152.922852 C648.828937,153.314781 648.50879,153.8457 648.276367,154.515625 C648.043944,155.18555 647.927734,155.891923 647.927734,156.634766 C647.927734,157.154299 648.03483,157.542805 648.249023,157.800293 C648.463217,158.057781 648.763995,158.186523 649.151367,158.186523 L649.151367,158.186523 Z M657.450195,159.136719 C656.566076,159.136719 655.880211,158.892906 655.392578,158.405273 C654.904945,157.917641 654.661133,157.229497 654.661133,156.34082 C654.661133,155.429357 654.829751,154.588546 655.166992,153.818359 C655.504233,153.048173 655.970212,152.447756 656.564941,152.01709 C657.159671,151.586424 657.828447,151.371094 658.571289,151.371094 C659.195641,151.371094 659.806312,151.487304 660.40332,151.719727 L660.082031,152.683594 C659.535154,152.451171 659.036135,152.334961 658.584961,152.334961 C658.074542,152.334961 657.608563,152.509276 657.187012,152.85791 C656.76546,153.206545 656.43506,153.691891 656.195801,154.313965 C655.956542,154.936038 655.836914,155.61165 655.836914,156.34082 C655.836914,156.924157 655.988442,157.377603 656.291504,157.701172 C656.594565,158.024741 657.012693,158.186523 657.545898,158.186523 C657.874025,158.186523 658.183918,158.140951 658.475586,158.049805 C658.767254,157.958658 659.054361,157.851563 659.336914,157.728516 L659.336914,158.706055 C658.771807,158.993165 658.142907,159.136719 657.450195,159.136719 L657.450195,159.136719 Z M662.994141,158.200195 C663.244793,158.200195 663.572915,158.140951 663.978516,158.022461 L663.978516,158.904297 C663.823567,158.968099 663.632163,159.022786 663.404297,159.068359 C663.176431,159.113933 662.994141,159.136719 662.857422,159.136719 C662.287758,159.136719 661.851401,159.001141 661.54834,158.72998 C661.245278,158.45882 661.09375,158.054365 661.09375,157.516602 C661.09375,157.215819 661.134765,156.874025 661.216797,156.491211 L662.084961,152.375977 L660.90918,152.375977 L661.004883,151.876953 L662.269531,151.34375 L663.124023,149.785156 L663.793945,149.785156 L663.417969,151.507812 L665.291016,151.507812 L665.113281,152.375977 L663.24707,152.375977 L662.365234,156.504883 C662.283203,156.901369 662.242188,157.202147 662.242188,157.407227 C662.242188,157.662436 662.308268,157.858398 662.44043,157.995117 C662.572592,158.131837 662.75716,158.200195 662.994141,158.200195 L662.994141,158.200195 Z" id="build-artifact" fill="#9B9B9B"></path>
                <path d="M625,138.315789 C638.082851,138.315789 648.688312,127.423687 648.688312,114 C648.688312,100.570598 638.082851,89.6842105 625,89.6842105 C611.922716,89.6842105 601.311688,100.570598 601.311688,114 C601.311688,127.423687 611.922716,138.315789 625,138.315789 L625,138.315789 Z" id="Stroke-9" stroke="#B0B8C6" stroke-width="3" fill="#B0B8C6"></path>
                <path d="M610,105.512013 L624.998079,114.023327 L639.999004,105.511314 M624.99879,97 L624.998079,97 L624.99879,97 L624.99879,97 Z" id="Shape" stroke="#FFFFFF" stroke-width="1.5"></path>
                <path d="M610.001423,105.512013 L610.001423,122.535341 L624.999502,131.046655 L640.000427,122.534641 L639.999715,105.512013 L625.000925,97 L610.001423,105.512013 Z M625.000213,114.023327 L624.999502,114.023327 L625.000213,114.023327 L625.000213,114.023327 Z" id="Shape" stroke="#FFFFFF" stroke-width="1.5"></path>
                <path d="M624.75,113 L624.75,129.93" id="Path-195" stroke="#FFFFFF" stroke-width="1.5"></path>
                <path d="M139.789551,159.136719 C139.347491,159.136719 138.958986,159.020509 138.624023,158.788086 C138.289061,158.555663 138.037273,158.238934 137.868652,157.837891 L137.800293,157.837891 L137.321777,159 L136.467285,159 L138.723145,148.363281 L139.871582,148.363281 C139.639159,149.466151 139.460287,150.310381 139.334961,150.895996 C139.209635,151.481611 139.037599,152.166337 138.818848,152.950195 L138.880371,152.950195 C139.304201,152.412432 139.722329,152.017091 140.134766,151.76416 C140.547203,151.511229 140.972166,151.384766 141.409668,151.384766 C142.052249,151.384766 142.553546,151.610349 142.913574,152.061523 C143.273602,152.512698 143.453613,153.132483 143.453613,153.920898 C143.453613,154.873377 143.297528,155.754065 142.985352,156.562988 C142.673176,157.371912 142.237959,158.00309 141.679688,158.456543 C141.121416,158.909996 140.491377,159.136719 139.789551,159.136719 L139.789551,159.136719 Z M141.061035,152.334961 C140.623533,152.334961 140.178062,152.55143 139.724609,152.984375 C139.271157,153.41732 138.911134,153.961911 138.644531,154.618164 C138.377928,155.274417 138.244629,155.946611 138.244629,156.634766 C138.244629,157.13607 138.371092,157.520018 138.624023,157.786621 C138.876954,158.053224 139.242673,158.186523 139.721191,158.186523 C140.172366,158.186523 140.592771,158.001955 140.982422,157.632812 C141.372072,157.26367 141.685383,156.738447 141.922363,156.057129 C142.159344,155.37581 142.277832,154.652348 142.277832,153.886719 C142.277832,152.852208 141.872237,152.334961 141.061035,152.334961 L141.061035,152.334961 Z M148.512207,151.371094 C148.93148,151.371094 149.305174,151.483886 149.633301,151.709473 C149.961427,151.93506 150.216633,152.259764 150.398926,152.683594 L150.474121,152.683594 L150.932129,151.507812 L151.800293,151.507812 L150.20752,159 L149.29834,159 L149.476074,157.571289 L149.421387,157.571289 C148.605627,158.614914 147.746587,159.136719 146.844238,159.136719 C146.210772,159.136719 145.714032,158.911135 145.354004,158.459961 C144.993976,158.008787 144.813965,157.39128 144.813965,156.607422 C144.813965,155.6595 144.975747,154.779952 145.299316,153.96875 C145.622886,153.157548 146.069496,152.521812 146.63916,152.061523 C147.208824,151.601235 147.833167,151.371094 148.512207,151.371094 L148.512207,151.371094 Z M147.213379,158.186523 C147.655438,158.186523 148.095213,157.975751 148.532715,157.554199 C148.970217,157.132648 149.325682,156.583499 149.599121,155.906738 C149.87256,155.229977 150.009277,154.552087 150.009277,153.873047 C150.009277,153.403643 149.881674,153.029949 149.626465,152.751953 C149.371255,152.473957 149.036298,152.334961 148.621582,152.334961 C148.147621,152.334961 147.706708,152.530923 147.298828,152.922852 C146.890948,153.314781 146.570802,153.8457 146.338379,154.515625 C146.105956,155.18555 145.989746,155.891923 145.989746,156.634766 C145.989746,157.154299 146.096841,157.542805 146.311035,157.800293 C146.525229,158.057781 146.826007,158.186523 147.213379,158.186523 L147.213379,158.186523 Z M157.077637,156.874023 C157.077637,157.584964 156.825849,158.139809 156.322266,158.538574 C155.818682,158.937339 155.108891,159.136719 154.192871,159.136719 C153.422685,159.136719 152.727705,158.979494 152.10791,158.665039 L152.10791,157.584961 C152.426922,157.776368 152.770994,157.924479 153.140137,158.029297 C153.509279,158.134115 153.851073,158.186523 154.165527,158.186523 C154.739749,158.186523 155.172687,158.072592 155.464355,157.844727 C155.756024,157.616861 155.901855,157.325197 155.901855,156.969727 C155.901855,156.70996 155.822104,156.491212 155.662598,156.313477 C155.503092,156.135741 155.15902,155.891929 154.630371,155.582031 C154.03792,155.249347 153.618654,154.923504 153.372559,154.604492 C153.126464,154.28548 153.003418,153.907229 153.003418,153.469727 C153.003418,152.840817 153.233559,152.333824 153.693848,151.94873 C154.154136,151.563637 154.76025,151.371094 155.512207,151.371094 C156.291508,151.371094 157.043453,151.539712 157.768066,151.876953 L157.398926,152.813477 L157.016113,152.642578 C156.555825,152.446614 156.054527,152.348633 155.512207,152.348633 C155.088377,152.348633 154.755698,152.447753 154.51416,152.645996 C154.272622,152.844239 154.151855,153.100584 154.151855,153.415039 C154.151855,153.670249 154.232747,153.888996 154.394531,154.071289 C154.556316,154.253582 154.890134,154.48828 155.395996,154.775391 C155.883629,155.048829 156.233397,155.283528 156.445312,155.479492 C156.657228,155.675457 156.815592,155.886229 156.92041,156.111816 C157.025228,156.337403 157.077637,156.59147 157.077637,156.874023 L157.077637,156.874023 Z M161.411621,159.136719 C160.573075,159.136719 159.914553,158.888349 159.436035,158.391602 C158.957517,157.894854 158.718262,157.20671 158.718262,156.327148 C158.718262,155.470373 158.888019,154.64893 159.227539,153.862793 C159.567059,153.076656 160.017087,152.464846 160.577637,152.027344 C161.138186,151.589842 161.755693,151.371094 162.430176,151.371094 C163.127445,151.371094 163.651528,151.522622 164.002441,151.825684 C164.353355,152.128745 164.528809,152.55143 164.528809,153.09375 C164.528809,153.914067 164.150557,154.557778 163.394043,155.024902 C162.637529,155.492027 161.555183,155.725586 160.146973,155.725586 L159.921387,155.725586 L159.894043,156.272461 C159.894043,156.869469 160.034178,157.335448 160.314453,157.67041 C160.594728,158.005373 161.028806,158.172852 161.616699,158.172852 C161.90381,158.172852 162.198892,158.131836 162.501953,158.049805 C162.805015,157.967773 163.182127,157.817384 163.633301,157.598633 L163.633301,158.59668 C163.204913,158.797202 162.826662,158.937337 162.498535,159.01709 C162.170409,159.096843 161.808107,159.136719 161.411621,159.136719 L161.411621,159.136719 Z M162.361816,152.348633 C161.892413,152.348633 161.451499,152.562823 161.039062,152.991211 C160.626626,153.419598 160.311036,154.014319 160.092285,154.775391 L160.174316,154.775391 C161.213384,154.775391 162.009763,154.639813 162.563477,154.368652 C163.11719,154.097492 163.394043,153.70443 163.394043,153.189453 C163.394043,152.947915 163.310873,152.747397 163.144531,152.587891 C162.978189,152.428385 162.717287,152.348633 162.361816,152.348633 L162.361816,152.348633 Z M172.314941,159.136719 C171.872882,159.136719 171.484377,159.020509 171.149414,158.788086 C170.814451,158.555663 170.562664,158.238934 170.394043,157.837891 L170.325684,157.837891 L169.847168,159 L168.992676,159 L171.248535,148.363281 L172.396973,148.363281 C172.16455,149.466151 171.985678,150.310381 171.860352,150.895996 C171.735025,151.481611 171.562989,152.166337 171.344238,152.950195 L171.405762,152.950195 C171.829592,152.412432 172.247719,152.017091 172.660156,151.76416 C173.072593,151.511229 173.497556,151.384766 173.935059,151.384766 C174.57764,151.384766 175.078937,151.610349 175.438965,152.061523 C175.798993,152.512698 175.979004,153.132483 175.979004,153.920898 C175.979004,154.873377 175.822918,155.754065 175.510742,156.562988 C175.198566,157.371912 174.763349,158.00309 174.205078,158.456543 C173.646807,158.909996 173.016768,159.136719 172.314941,159.136719 L172.314941,159.136719 Z M173.586426,152.334961 C173.148924,152.334961 172.703453,152.55143 172.25,152.984375 C171.796547,153.41732 171.436525,153.961911 171.169922,154.618164 C170.903319,155.274417 170.77002,155.946611 170.77002,156.634766 C170.77002,157.13607 170.896483,157.520018 171.149414,157.786621 C171.402345,158.053224 171.768064,158.186523 172.246582,158.186523 C172.697756,158.186523 173.118162,158.001955 173.507812,157.632812 C173.897463,157.26367 174.210774,156.738447 174.447754,156.057129 C174.684734,155.37581 174.803223,154.652348 174.803223,153.886719 C174.803223,152.852208 174.397628,152.334961 173.586426,152.334961 L173.586426,152.334961 Z M181.064941,151.412109 C181.930831,151.412109 182.614418,151.668454 183.115723,152.181152 C183.617027,152.69385 183.867676,153.399084 183.867676,154.296875 C183.867676,155.15365 183.703615,155.962561 183.375488,156.723633 C183.047362,157.484704 182.60303,158.072589 182.04248,158.487305 C181.481931,158.90202 180.848474,159.109375 180.14209,159.109375 C179.267085,159.109375 178.58122,158.851891 178.084473,158.336914 C177.587725,157.821938 177.339355,157.117843 177.339355,156.224609 C177.339355,155.35872 177.505695,154.544112 177.838379,153.780762 C178.171063,153.017412 178.619952,152.431805 179.185059,152.023926 C179.750166,151.616046 180.376787,151.412109 181.064941,151.412109 L181.064941,151.412109 Z M182.678223,154.139648 C182.678223,153.615557 182.535809,153.190594 182.250977,152.864746 C181.966144,152.538898 181.579918,152.375977 181.092285,152.375977 C180.595538,152.375977 180.150067,152.544595 179.755859,152.881836 C179.361652,153.219077 179.056316,153.687334 178.839844,154.286621 C178.623371,154.885908 178.515137,155.552405 178.515137,156.286133 C178.515137,156.883141 178.659829,157.344562 178.949219,157.67041 C179.238608,157.996258 179.654457,158.15918 180.196777,158.15918 C180.670738,158.15918 181.096841,157.99284 181.475098,157.660156 C181.853355,157.327472 182.148436,156.854658 182.360352,156.241699 C182.572267,155.62874 182.678223,154.928064 182.678223,154.139648 L182.678223,154.139648 Z M187.436035,156.033203 L185.070801,159 L183.737793,159 L186.984863,155.137695 L185.351074,151.507812 L186.513184,151.507812 L187.702637,154.324219 L189.958496,151.507812 L191.284668,151.507812 L188.174316,155.192383 L189.896973,159 L188.748535,159 L187.436035,156.033203 Z" id="base-box" fill="#9B9B9B"></path>
                <path d="M302.196777,60.8740234 C302.196777,61.5849645 301.944989,62.1398092 301.441406,62.5385742 C300.937823,62.9373392 300.228032,63.1367188 299.312012,63.1367188 C298.541826,63.1367188 297.846846,62.9794938 297.227051,62.6650391 L297.227051,61.5849609 C297.546063,61.7763681 297.890135,61.9244786 298.259277,62.0292969 C298.62842,62.1341151 298.970213,62.1865234 299.284668,62.1865234 C299.85889,62.1865234 300.291828,62.0725923 300.583496,61.8447266 C300.875164,61.6168608 301.020996,61.3251971 301.020996,60.9697266 C301.020996,60.7099596 300.941244,60.4912118 300.781738,60.3134766 C300.622232,60.1357413 300.27816,59.8919286 299.749512,59.5820312 C299.157061,59.2493473 298.737794,58.9235042 298.491699,58.6044922 C298.245604,58.2854802 298.122559,57.9072288 298.122559,57.4697266 C298.122559,56.8408172 298.3527,56.3338235 298.812988,55.9487305 C299.273277,55.5636374 299.879391,55.3710938 300.631348,55.3710938 C301.410648,55.3710938 302.162594,55.5397119 302.887207,55.8769531 L302.518066,56.8134766 L302.135254,56.6425781 C301.674965,56.4466136 301.173668,56.3486328 300.631348,56.3486328 C300.207517,56.3486328 299.874838,56.4477529 299.633301,56.6459961 C299.391763,56.8442393 299.270996,57.1005844 299.270996,57.4150391 C299.270996,57.6702487 299.351887,57.8889965 299.513672,58.0712891 C299.675457,58.2535816 300.009275,58.4882798 300.515137,58.7753906 C301.002769,59.0488295 301.352538,59.2835277 301.564453,59.4794922 C301.776368,59.6754567 301.934733,59.8862293 302.039551,60.1118164 C302.144369,60.3374035 302.196777,60.5914699 302.196777,60.8740234 L302.196777,60.8740234 Z M306.530762,63.1367188 C305.692216,63.1367188 305.033694,62.8883488 304.555176,62.3916016 C304.076658,61.8948543 303.837402,61.2067101 303.837402,60.3271484 C303.837402,59.4703733 304.00716,58.6489297 304.34668,57.862793 C304.6862,57.0766562 305.136228,56.4648459 305.696777,56.0273438 C306.257327,55.5898416 306.874834,55.3710938 307.549316,55.3710938 C308.246586,55.3710938 308.770669,55.5226222 309.121582,55.8256836 C309.472495,56.128745 309.647949,56.5514296 309.647949,57.09375 C309.647949,57.9140666 309.269698,58.5577776 308.513184,59.0249023 C307.756669,59.4920271 306.674323,59.7255859 305.266113,59.7255859 L305.040527,59.7255859 L305.013184,60.2724609 C305.013184,60.8694691 305.153319,61.3354475 305.433594,61.6704102 C305.713869,62.0053728 306.147946,62.1728516 306.73584,62.1728516 C307.022951,62.1728516 307.318032,62.1318363 307.621094,62.0498047 C307.924155,61.967773 308.301267,61.8173839 308.752441,61.5986328 L308.752441,62.5966797 C308.324054,62.7972015 307.945802,62.9373368 307.617676,63.0170898 C307.289549,63.0968428 306.927248,63.1367188 306.530762,63.1367188 L306.530762,63.1367188 Z M307.480957,56.3486328 C307.011554,56.3486328 306.57064,56.5628234 306.158203,56.9912109 C305.745766,57.4195985 305.430177,58.0143191 305.211426,58.7753906 L305.293457,58.7753906 C306.332525,58.7753906 307.128903,58.6398126 307.682617,58.3686523 C308.236331,58.0974921 308.513184,57.7044297 308.513184,57.1894531 C308.513184,56.9479155 308.430014,56.7473966 308.263672,56.5878906 C308.09733,56.4283846 307.836428,56.3486328 307.480957,56.3486328 L307.480957,56.3486328 Z M315.212402,55.3710938 C315.526857,55.3710938 315.800292,55.4029945 316.032715,55.4667969 L315.786621,56.4921875 C315.545083,56.4329424 315.305828,56.4033203 315.068848,56.4033203 C314.654132,56.4033203 314.265627,56.5400377 313.90332,56.8134766 C313.541014,57.0869154 313.224285,57.4663062 312.953125,57.9516602 C312.681965,58.4370141 312.482585,58.9759085 312.35498,59.5683594 L311.623535,63 L310.475098,63 L312.074707,55.5078125 L313.024902,55.5078125 L312.874512,56.8955078 L312.942871,56.8955078 C313.270998,56.4625629 313.542154,56.1515309 313.756348,55.9624023 C313.970541,55.7732738 314.194986,55.6274419 314.429688,55.5249023 C314.664389,55.4223628 314.925292,55.3710938 315.212402,55.3710938 L315.212402,55.3710938 Z M317.140137,63 L316.285645,55.5078125 L317.434082,55.5078125 L317.871582,59.6982422 C317.980958,60.8740293 318.035645,61.6988909 318.035645,62.1728516 L318.07666,62.1728516 C318.655439,60.9195901 319.063313,60.0742209 319.300293,59.6367188 L321.521973,55.5078125 L322.73877,55.5078125 L318.69873,63 L317.140137,63 Z M323.634277,63 L322.48584,63 L324.085449,55.5078125 L325.233887,55.5078125 L323.634277,63 Z M324.406738,53.59375 C324.406738,53.3385404 324.479654,53.1300464 324.625488,52.9682617 C324.771322,52.8064771 324.960448,52.7255859 325.192871,52.7255859 C325.593915,52.7255859 325.794434,52.930662 325.794434,53.3408203 C325.794434,53.5914726 325.7181,53.8033846 325.56543,53.9765625 C325.41276,54.1497404 325.236166,54.2363281 325.035645,54.2363281 C324.853352,54.2363281 324.702963,54.1805019 324.584473,54.0688477 C324.465982,53.9571935 324.406738,53.7988292 324.406738,53.59375 L324.406738,53.59375 Z M329.096191,63.1367188 C328.212072,63.1367188 327.526207,62.8929061 327.038574,62.4052734 C326.550942,61.9176408 326.307129,61.2294966 326.307129,60.3408203 C326.307129,59.4293574 326.475747,58.5885455 326.812988,57.8183594 C327.15023,57.0481732 327.616208,56.4477561 328.210938,56.0170898 C328.805667,55.5864236 329.474443,55.3710938 330.217285,55.3710938 C330.841637,55.3710938 331.452308,55.4873035 332.049316,55.7197266 L331.728027,56.6835938 C331.18115,56.4511707 330.682131,56.3349609 330.230957,56.3349609 C329.720538,56.3349609 329.254559,56.5092756 328.833008,56.8579102 C328.411456,57.2065447 328.081056,57.6918914 327.841797,58.3139648 C327.602538,58.9360383 327.48291,59.61165 327.48291,60.3408203 C327.48291,60.9241566 327.634439,61.3776025 327.9375,61.7011719 C328.240561,62.0247412 328.658689,62.1865234 329.191895,62.1865234 C329.520021,62.1865234 329.829914,62.140951 330.121582,62.0498047 C330.41325,61.9586584 330.700357,61.8515631 330.98291,61.7285156 L330.98291,62.7060547 C330.417803,62.9931655 329.788903,63.1367188 329.096191,63.1367188 L329.096191,63.1367188 Z M335.303223,63.1367188 C334.464677,63.1367188 333.806155,62.8883488 333.327637,62.3916016 C332.849119,61.8948543 332.609863,61.2067101 332.609863,60.3271484 C332.609863,59.4703733 332.779621,58.6489297 333.119141,57.862793 C333.458661,57.0766562 333.908689,56.4648459 334.469238,56.0273438 C335.029788,55.5898416 335.647295,55.3710938 336.321777,55.3710938 C337.019046,55.3710938 337.54313,55.5226222 337.894043,55.8256836 C338.244956,56.128745 338.42041,56.5514296 338.42041,57.09375 C338.42041,57.9140666 338.042159,58.5577776 337.285645,59.0249023 C336.52913,59.4920271 335.446784,59.7255859 334.038574,59.7255859 L333.812988,59.7255859 L333.785645,60.2724609 C333.785645,60.8694691 333.92578,61.3354475 334.206055,61.6704102 C334.48633,62.0053728 334.920407,62.1728516 335.508301,62.1728516 C335.795412,62.1728516 336.090493,62.1318363 336.393555,62.0498047 C336.696616,61.967773 337.073728,61.8173839 337.524902,61.5986328 L337.524902,62.5966797 C337.096515,62.7972015 336.718263,62.9373368 336.390137,63.0170898 C336.06201,63.0968428 335.699709,63.1367188 335.303223,63.1367188 L335.303223,63.1367188 Z M336.253418,56.3486328 C335.784015,56.3486328 335.343101,56.5628234 334.930664,56.9912109 C334.518227,57.4195985 334.202638,58.0143191 333.983887,58.7753906 L334.065918,58.7753906 C335.104986,58.7753906 335.901364,58.6398126 336.455078,58.3686523 C337.008792,58.0974921 337.285645,57.7044297 337.285645,57.1894531 C337.285645,56.9479155 337.202475,56.7473966 337.036133,56.5878906 C336.869791,56.4283846 336.608888,56.3486328 336.253418,56.3486328 L336.253418,56.3486328 Z M346.206543,63.1367188 C345.764483,63.1367188 345.375978,63.020509 345.041016,62.7880859 C344.706053,62.5556629 344.454265,62.2389343 344.285645,61.8378906 L344.217285,61.8378906 L343.73877,63 L342.884277,63 L345.140137,52.3632812 L346.288574,52.3632812 C346.056151,53.4661513 345.877279,54.3103812 345.751953,54.8959961 C345.626627,55.481611 345.454591,56.1663372 345.23584,56.9501953 L345.297363,56.9501953 C345.721194,56.4124322 346.139321,56.0170911 346.551758,55.7641602 C346.964195,55.5112292 347.389158,55.3847656 347.82666,55.3847656 C348.469241,55.3847656 348.970539,55.6103493 349.330566,56.0615234 C349.690594,56.5126976 349.870605,57.132483 349.870605,57.9208984 C349.870605,58.8733772 349.71452,59.754065 349.402344,60.5629883 C349.090168,61.3719116 348.654951,62.0030902 348.09668,62.456543 C347.538409,62.9099958 346.908369,63.1367188 346.206543,63.1367188 L346.206543,63.1367188 Z M347.478027,56.3349609 C347.040525,56.3349609 346.595054,56.5514301 346.141602,56.984375 C345.688149,57.4173199 345.328126,57.9619108 345.061523,58.6181641 C344.794921,59.2744173 344.661621,59.9466111 344.661621,60.6347656 C344.661621,61.1360702 344.788085,61.5200182 345.041016,61.7866211 C345.293947,62.053224 345.659666,62.1865234 346.138184,62.1865234 C346.589358,62.1865234 347.009764,62.001955 347.399414,61.6328125 C347.789064,61.26367 348.102375,60.7384474 348.339355,60.0571289 C348.576336,59.3758104 348.694824,58.6523476 348.694824,57.8867188 C348.694824,56.8522084 348.289229,56.3349609 347.478027,56.3349609 L347.478027,56.3349609 Z M354.956543,55.4121094 C355.822433,55.4121094 356.50602,55.6684545 357.007324,56.1811523 C357.508629,56.6938502 357.759277,57.3990841 357.759277,58.296875 C357.759277,59.1536501 357.595216,59.9625613 357.26709,60.7236328 C356.938963,61.4847043 356.494632,62.0725891 355.934082,62.4873047 C355.373532,62.9020203 354.740075,63.109375 354.033691,63.109375 C353.158687,63.109375 352.472821,62.8518906 351.976074,62.3369141 C351.479327,61.8219375 351.230957,61.117843 351.230957,60.2246094 C351.230957,59.3587196 351.397297,58.5441119 351.72998,57.7807617 C352.062664,57.0174115 352.511553,56.4318054 353.07666,56.0239258 C353.641767,55.6160461 354.268388,55.4121094 354.956543,55.4121094 L354.956543,55.4121094 Z M356.569824,58.1396484 C356.569824,57.6155573 356.42741,57.1905941 356.142578,56.8647461 C355.857746,56.5388981 355.471519,56.3759766 354.983887,56.3759766 C354.487139,56.3759766 354.041669,56.5445947 353.647461,56.8818359 C353.253253,57.2190772 352.947918,57.6873342 352.731445,58.2866211 C352.514973,58.8859079 352.406738,59.5524052 352.406738,60.2861328 C352.406738,60.883141 352.551431,61.3445622 352.84082,61.6704102 C353.13021,61.9962581 353.546058,62.1591797 354.088379,62.1591797 C354.56234,62.1591797 354.988442,61.9928402 355.366699,61.6601562 C355.744956,61.3274723 356.040038,60.854658 356.251953,60.2416992 C356.463868,59.6287404 356.569824,58.9280638 356.569824,58.1396484 L356.569824,58.1396484 Z M361.327637,60.0332031 L358.962402,63 L357.629395,63 L360.876465,59.1376953 L359.242676,55.5078125 L360.404785,55.5078125 L361.594238,58.3242188 L363.850098,55.5078125 L365.17627,55.5078125 L362.065918,59.1923828 L363.788574,63 L362.640137,63 L361.327637,60.0332031 Z" id="service-box" fill="#9B9B9B"></path>
                <path d="M403.861816,37.1367188 C403.023271,37.1367188 402.364748,36.8883488 401.88623,36.3916016 C401.407712,35.8948543 401.168457,35.2067101 401.168457,34.3271484 C401.168457,33.4703733 401.338214,32.6489297 401.677734,31.862793 C402.017254,31.0766562 402.467282,30.4648459 403.027832,30.0273438 C403.588382,29.5898416 404.205889,29.3710938 404.880371,29.3710938 C405.57764,29.3710938 406.101724,29.5226222 406.452637,29.8256836 C406.80355,30.128745 406.979004,30.5514296 406.979004,31.09375 C406.979004,31.9140666 406.600752,32.5577776 405.844238,33.0249023 C405.087724,33.4920271 404.005378,33.7255859 402.597168,33.7255859 L402.371582,33.7255859 L402.344238,34.2724609 C402.344238,34.8694691 402.484374,35.3354475 402.764648,35.6704102 C403.044923,36.0053728 403.479001,36.1728516 404.066895,36.1728516 C404.354005,36.1728516 404.649087,36.1318363 404.952148,36.0498047 C405.25521,35.967773 405.632322,35.8173839 406.083496,35.5986328 L406.083496,36.5966797 C405.655109,36.7972015 405.276857,36.9373368 404.94873,37.0170898 C404.620604,37.0968428 404.258303,37.1367188 403.861816,37.1367188 L403.861816,37.1367188 Z M404.812012,30.3486328 C404.342608,30.3486328 403.901695,30.5628234 403.489258,30.9912109 C403.076821,31.4195985 402.761232,32.0143191 402.54248,32.7753906 L402.624512,32.7753906 C403.663579,32.7753906 404.459958,32.6398126 405.013672,32.3686523 C405.567386,32.0974921 405.844238,31.7044297 405.844238,31.1894531 C405.844238,30.9479155 405.761069,30.7473966 405.594727,30.5878906 C405.428385,30.4283846 405.167482,30.3486328 404.812012,30.3486328 L404.812012,30.3486328 Z M412.38623,37 L413.397949,32.2695312 C413.489096,31.7955705 413.534668,31.4674488 413.534668,31.2851562 C413.534668,30.9980454 413.453777,30.7679045 413.291992,30.5947266 C413.130208,30.4215486 412.871584,30.3349609 412.516113,30.3349609 C412.110512,30.3349609 411.715171,30.4716783 411.330078,30.7451172 C410.944985,31.0185561 410.60547,31.4082006 410.311523,31.9140625 C410.017577,32.4199244 409.795411,33.032874 409.64502,33.7529297 L408.95459,37 L407.806152,37 L409.405762,29.5078125 L410.355957,29.5078125 L410.205566,30.8955078 L410.273926,30.8955078 C410.711428,30.3395154 411.134113,29.946453 411.541992,29.7163086 C411.949872,29.4861642 412.372556,29.3710938 412.810059,29.3710938 C413.388838,29.3710938 413.845701,29.5294581 414.180664,29.8461914 C414.515627,30.1629248 414.683105,30.6061169 414.683105,31.1757812 C414.683105,31.5358091 414.630697,31.9459612 414.525879,32.40625 L413.54834,37 L412.38623,37 Z M417.007324,37 L416.152832,29.5078125 L417.30127,29.5078125 L417.73877,33.6982422 C417.848145,34.8740293 417.902832,35.6988909 417.902832,36.1728516 L417.943848,36.1728516 C418.522627,34.9195901 418.9305,34.0742209 419.16748,33.6367188 L421.38916,29.5078125 L422.605957,29.5078125 L418.565918,37 L417.007324,37 Z M427.11084,37 L426.256348,29.5078125 L427.404785,29.5078125 L427.842285,33.6982422 C427.951661,34.8740293 428.006348,35.6988909 428.006348,36.1728516 L428.047363,36.1728516 C428.626142,34.9195901 429.034016,34.0742209 429.270996,33.6367188 L431.492676,29.5078125 L432.709473,29.5078125 L428.669434,37 L427.11084,37 Z M436.421387,29.3710938 C436.84066,29.3710938 437.214354,29.4838856 437.54248,29.7094727 C437.870607,29.9350597 438.125813,30.2597635 438.308105,30.6835938 L438.383301,30.6835938 L438.841309,29.5078125 L439.709473,29.5078125 L438.116699,37 L437.20752,37 L437.385254,35.5712891 L437.330566,35.5712891 C436.514807,36.6149141 435.655766,37.1367188 434.753418,37.1367188 C434.119951,37.1367188 433.623211,36.9111351 433.263184,36.4599609 C432.903156,36.0087868 432.723145,35.39128 432.723145,34.6074219 C432.723145,33.6595005 432.884927,32.779952 433.208496,31.96875 C433.532065,31.157548 433.978676,30.5218122 434.54834,30.0615234 C435.118004,29.6012347 435.742347,29.3710938 436.421387,29.3710938 L436.421387,29.3710938 Z M435.122559,36.1865234 C435.564618,36.1865234 436.004392,35.9757508 436.441895,35.5541992 C436.879397,35.1326476 437.234862,34.5834995 437.508301,33.9067383 C437.78174,33.2299771 437.918457,32.5520867 437.918457,31.8730469 C437.918457,31.4036435 437.790854,31.0299493 437.535645,30.7519531 C437.280435,30.4739569 436.945477,30.3349609 436.530762,30.3349609 C436.056801,30.3349609 435.615887,30.5309225 435.208008,30.9228516 C434.800128,31.3147806 434.479982,31.8456998 434.247559,32.515625 C434.015136,33.1855502 433.898926,33.8919234 433.898926,34.6347656 C433.898926,35.1542995 434.006021,35.5428047 434.220215,35.800293 C434.434409,36.0577812 434.735187,36.1865234 435.122559,36.1865234 L435.122559,36.1865234 Z M445.103027,29.3710938 C445.417482,29.3710938 445.690917,29.4029945 445.92334,29.4667969 L445.677246,30.4921875 C445.435708,30.4329424 445.196453,30.4033203 444.959473,30.4033203 C444.544757,30.4033203 444.156252,30.5400377 443.793945,30.8134766 C443.431639,31.0869154 443.11491,31.4663062 442.84375,31.9516602 C442.57259,32.4370141 442.37321,32.9759085 442.245605,33.5683594 L441.51416,37 L440.365723,37 L441.965332,29.5078125 L442.915527,29.5078125 L442.765137,30.8955078 L442.833496,30.8955078 C443.161623,30.4625629 443.432779,30.1515309 443.646973,29.9624023 C443.861166,29.7732738 444.085611,29.6274419 444.320312,29.5249023 C444.555014,29.4223628 444.815917,29.3710938 445.103027,29.3710938 L445.103027,29.3710938 Z M450.530762,34.8740234 C450.530762,35.5849645 450.278974,36.1398092 449.775391,36.5385742 C449.271807,36.9373392 448.562016,37.1367188 447.645996,37.1367188 C446.87581,37.1367188 446.18083,36.9794938 445.561035,36.6650391 L445.561035,35.5849609 C445.880047,35.7763681 446.224119,35.9244786 446.593262,36.0292969 C446.962404,36.1341151 447.304198,36.1865234 447.618652,36.1865234 C448.192874,36.1865234 448.625812,36.0725923 448.91748,35.8447266 C449.209149,35.6168608 449.35498,35.3251971 449.35498,34.9697266 C449.35498,34.7099596 449.275229,34.4912118 449.115723,34.3134766 C448.956217,34.1357413 448.612145,33.8919286 448.083496,33.5820312 C447.491045,33.2493473 447.071779,32.9235042 446.825684,32.6044922 C446.579589,32.2854802 446.456543,31.9072288 446.456543,31.4697266 C446.456543,30.8408172 446.686684,30.3338235 447.146973,29.9487305 C447.607261,29.5636374 448.213375,29.3710938 448.965332,29.3710938 C449.744633,29.3710938 450.496578,29.5397119 451.221191,29.8769531 L450.852051,30.8134766 L450.469238,30.6425781 C450.00895,30.4466136 449.507652,30.3486328 448.965332,30.3486328 C448.541502,30.3486328 448.208823,30.4477529 447.967285,30.6459961 C447.725747,30.8442393 447.60498,31.1005844 447.60498,31.4150391 C447.60498,31.6702487 447.685872,31.8889965 447.847656,32.0712891 C448.009441,32.2535816 448.343259,32.4882798 448.849121,32.7753906 C449.336754,33.0488295 449.686522,33.2835277 449.898438,33.4794922 C450.110353,33.6754567 450.268717,33.8862293 450.373535,34.1118164 C450.478353,34.3374035 450.530762,34.5914699 450.530762,34.8740234 L450.530762,34.8740234 Z" id="env-vars" fill="#9B9B9B"></path>
                <path d="M141.001943,98.6844273 L141.001943,122.052322 L161.47432,133.735789 L181.950583,122.051362 L181.949612,98.6844273 L161.476263,87 L141.001943,98.6844273 Z M161.475291,110.367894 L161.47432,110.367894 L161.475291,110.367894 L161.475291,110.367894 Z" id="Shape" fill="#B0B8C6"></path>
                <path d="M141,98.6844273 L161.472378,110.367894 L181.94864,98.6834672 M161.473349,87 L161.472378,87 L161.473349,87 L161.473349,87 Z" id="Shape" stroke="#FFFFFF" stroke-width="1.5"></path>
                <path d="M161.13375,110.664127 L161.13375,133.903912" id="Path-195" stroke="#FFFFFF" stroke-width="1.5"></path>
                <path d="M123.664062,22 L390,22 L389.999994,76" id="Path-259" stroke="#B1B9C7" stroke-width="3"></path>
                <path d="M123.664062,22 L390,22 L389.999994,76" id="Path-259" stroke="#B1B9C7" stroke-width="3"></path>
                <path d="M385.863961,68.863961 L394.863961,77.863961 L385.863961,77.863961 L385.863961,68.863961 Z" id="Rectangle-83" fill="#B0B8C6" transform="translate(390.363961, 73.363961) rotate(-45.000000) translate(-390.363961, -73.363961) "></path>
                <path d="M310.001943,11.6844273 L310.001943,35.0523217 L330.47432,46.735789 L350.950583,35.0513617 L350.949612,11.6844273 L330.476263,0 L310.001943,11.6844273 Z M330.475291,23.3678945 L330.47432,23.3678945 L330.475291,23.3678945 L330.475291,23.3678945 Z" id="Shape" fill="#23B0E8"></path>
                <path d="M310,11.6844273 L330.472378,23.3678945 L350.94864,11.6834672 M330.473349,0 L330.472378,0 L330.473349,0 L330.473349,0 Z" id="Shape" stroke="#FFFFFF" stroke-width="1.5"></path>
                <path d="M330.13375,23.664127 L330.13375,46.9039115" id="Path-195" stroke="#FFFFFF" stroke-width="1.5"></path>
                <path d="M97.3950914,17.7779152 C91.3881143,19.5251731 87,25.0478913 87,31.591298 C87,39.5386041 93.4726343,46 101.457411,46 C101.805411,46 102.150097,45.9815558 102.491966,45.9815558 L129.507869,45.9815558 C129.849406,45.9815558 130.194257,46 130.542257,46 C138.527366,46 145,39.5478262 145,31.6006848 C145,24.9663746 140.489257,19.3769608 134.354017,17.7122078 C132.628931,9.32454655 125.014526,3 115.881514,3 C106.723149,3 99.0921714,9.35534177 97.3950914,17.7779152 Z" id="Path-4" fill="#23B0E8"></path>
                <path d="M108.363281,33 L109.375,28.2695312 C109.457032,27.8411437 109.498047,27.5335296 109.498047,27.3466797 C109.498047,26.6721971 109.163089,26.3349609 108.493164,26.3349609 C108.087563,26.3349609 107.692222,26.4693997 107.307129,26.7382812 C106.922036,27.0071628 106.582521,27.3979467 106.288574,27.9106445 C105.994627,28.4233424 105.772462,29.0419886 105.62207,29.7666016 L104.931641,33 L103.783203,33 L106.039062,22.3632812 L107.1875,22.3632812 C107.105468,22.736981 107.026856,23.0992821 106.95166,23.4501953 C106.876464,23.8011085 106.798991,24.157713 106.719238,24.5200195 C106.639485,24.882326 106.552898,25.2617168 106.459473,25.6582031 C106.366048,26.0546895 106.257813,26.4853492 106.134766,26.9501953 L106.209961,26.9501953 C106.638348,26.3896456 107.061033,25.988608 107.478027,25.7470703 C107.895022,25.5055326 108.331378,25.3847656 108.787109,25.3847656 C109.384118,25.3847656 109.845539,25.5488265 110.171387,25.8769531 C110.497235,26.2050798 110.660156,26.6699189 110.660156,27.2714844 C110.660156,27.5540379 110.607748,27.9322893 110.50293,28.40625 C110.325194,29.2858117 109.994794,30.8170464 109.511719,33 L108.363281,33 Z M114.542969,25.5078125 L113.517578,30.2587891 C113.435546,30.66439 113.394531,30.9811187 113.394531,31.2089844 C113.394531,31.8606803 113.729489,32.1865234 114.399414,32.1865234 C114.800458,32.1865234 115.19466,32.0498061 115.582031,31.7763672 C115.969403,31.5029283 116.311196,31.1110052 116.607422,30.6005859 C116.903647,30.0901667 117.129231,29.4749385 117.28418,28.7548828 L117.967773,25.5078125 L119.102539,25.5078125 L117.523438,33 L116.573242,33 L116.723633,31.6123047 L116.641602,31.6123047 C116.194985,32.181969 115.768882,32.5784494 115.363281,32.8017578 C114.95768,33.0250662 114.538414,33.1367188 114.105469,33.1367188 C113.522132,33.1367188 113.064129,32.9783544 112.731445,32.6616211 C112.398761,32.3448877 112.232422,31.8925811 112.232422,31.3046875 C112.232422,31.022134 112.282552,30.6302108 112.382812,30.1289062 L113.380859,25.5078125 L114.542969,25.5078125 Z M123.265625,33.1367188 C122.823565,33.1367188 122.43506,33.020509 122.100098,32.7880859 C121.765135,32.5556629 121.513347,32.2389343 121.344727,31.8378906 L121.276367,31.8378906 L120.797852,33 L119.943359,33 L122.199219,22.3632812 L123.347656,22.3632812 C123.115233,23.4661513 122.936361,24.3103812 122.811035,24.8959961 C122.685709,25.481611 122.513673,26.1663372 122.294922,26.9501953 L122.356445,26.9501953 C122.780276,26.4124322 123.198403,26.0170911 123.61084,25.7641602 C124.023277,25.5112292 124.44824,25.3847656 124.885742,25.3847656 C125.528324,25.3847656 126.029621,25.6103493 126.389648,26.0615234 C126.749676,26.5126976 126.929688,27.132483 126.929688,27.9208984 C126.929688,28.8733772 126.773602,29.754065 126.461426,30.5629883 C126.14925,31.3719116 125.714033,32.0030902 125.155762,32.456543 C124.597491,32.9099958 123.967451,33.1367188 123.265625,33.1367188 L123.265625,33.1367188 Z M124.537109,26.3349609 C124.099607,26.3349609 123.654136,26.5514301 123.200684,26.984375 C122.747231,27.4173199 122.387208,27.9619108 122.120605,28.6181641 C121.854003,29.2744173 121.720703,29.9466111 121.720703,30.6347656 C121.720703,31.1360702 121.847167,31.5200182 122.100098,31.7866211 C122.353029,32.053224 122.718748,32.1865234 123.197266,32.1865234 C123.64844,32.1865234 124.068846,32.001955 124.458496,31.6328125 C124.848146,31.26367 125.161457,30.7384474 125.398438,30.0571289 C125.635418,29.3758104 125.753906,28.6523476 125.753906,27.8867188 C125.753906,26.8522084 125.348311,26.3349609 124.537109,26.3349609 L124.537109,26.3349609 Z" id="hub" fill="#FFFFFF"></path>
                <rect id="Rectangle-139" fill-opacity="0.518908514" fill="#FFFFFF" x="0" y="82" width="683" height="84"></rect>
                <path d="M392,141.328947 C405.62797,141.328947 416.675325,129.983008 416.675325,116 C416.675325,102.01104 405.62797,90.6710526 392,90.6710526 C378.377829,90.6710526 367.324675,102.01104 367.324675,116 C367.324675,129.983008 378.377829,141.328947 392,141.328947 L392,141.328947 Z" id="Stroke-9" stroke="#B0B8C6" stroke-width="3" fill="#FFFFFF"></path>
                <path d="M407.399267,105.347964 L403.433333,102.538462 L388.478388,121.361388 L381.194872,112.730166 L377.25641,115.583484 L388.572344,128.640649 L407.399267,105.347964" id="Imported-Layers" fill="#6AC03B"></path>
                <path d="M383.265137,159.874023 C383.265137,160.584964 383.013349,161.139809 382.509766,161.538574 C382.006182,161.937339 381.296391,162.136719 380.380371,162.136719 C379.610185,162.136719 378.915205,161.979494 378.29541,161.665039 L378.29541,160.584961 C378.614422,160.776368 378.958494,160.924479 379.327637,161.029297 C379.696779,161.134115 380.038573,161.186523 380.353027,161.186523 C380.927249,161.186523 381.360187,161.072592 381.651855,160.844727 C381.943524,160.616861 382.089355,160.325197 382.089355,159.969727 C382.089355,159.70996 382.009604,159.491212 381.850098,159.313477 C381.690592,159.135741 381.34652,158.891929 380.817871,158.582031 C380.22542,158.249347 379.806154,157.923504 379.560059,157.604492 C379.313964,157.28548 379.190918,156.907229 379.190918,156.469727 C379.190918,155.840817 379.421059,155.333824 379.881348,154.94873 C380.341636,154.563637 380.94775,154.371094 381.699707,154.371094 C382.479008,154.371094 383.230953,154.539712 383.955566,154.876953 L383.586426,155.813477 L383.203613,155.642578 C382.743325,155.446614 382.242027,155.348633 381.699707,155.348633 C381.275877,155.348633 380.943198,155.447753 380.70166,155.645996 C380.460122,155.844239 380.339355,156.100584 380.339355,156.415039 C380.339355,156.670249 380.420247,156.888996 380.582031,157.071289 C380.743816,157.253582 381.077634,157.48828 381.583496,157.775391 C382.071129,158.048829 382.420897,158.283528 382.632812,158.479492 C382.844728,158.675457 383.003092,158.886229 383.10791,159.111816 C383.212728,159.337403 383.265137,159.59147 383.265137,159.874023 L383.265137,159.874023 Z M386.936035,161.200195 C387.186687,161.200195 387.514809,161.140951 387.92041,161.022461 L387.92041,161.904297 C387.765461,161.968099 387.574057,162.022786 387.346191,162.068359 C387.118326,162.113933 386.936036,162.136719 386.799316,162.136719 C386.229652,162.136719 385.793296,162.001141 385.490234,161.72998 C385.187173,161.45882 385.035645,161.054365 385.035645,160.516602 C385.035645,160.215819 385.07666,159.874025 385.158691,159.491211 L386.026855,155.375977 L384.851074,155.375977 L384.946777,154.876953 L386.211426,154.34375 L387.065918,152.785156 L387.73584,152.785156 L387.359863,154.507812 L389.23291,154.507812 L389.055176,155.375977 L387.188965,155.375977 L386.307129,159.504883 C386.225097,159.901369 386.184082,160.202147 386.184082,160.407227 C386.184082,160.662436 386.250162,160.858398 386.382324,160.995117 C386.514486,161.131837 386.699055,161.200195 386.936035,161.200195 L386.936035,161.200195 Z M392.138184,162.136719 C391.299638,162.136719 390.641116,161.888349 390.162598,161.391602 C389.68408,160.894854 389.444824,160.20671 389.444824,159.327148 C389.444824,158.470373 389.614582,157.64893 389.954102,156.862793 C390.293621,156.076656 390.74365,155.464846 391.304199,155.027344 C391.864749,154.589842 392.482256,154.371094 393.156738,154.371094 C393.854007,154.371094 394.378091,154.522622 394.729004,154.825684 C395.079917,155.128745 395.255371,155.55143 395.255371,156.09375 C395.255371,156.914067 394.87712,157.557778 394.120605,158.024902 C393.364091,158.492027 392.281745,158.725586 390.873535,158.725586 L390.647949,158.725586 L390.620605,159.272461 C390.620605,159.869469 390.760741,160.335448 391.041016,160.67041 C391.32129,161.005373 391.755368,161.172852 392.343262,161.172852 C392.630373,161.172852 392.925454,161.131836 393.228516,161.049805 C393.531577,160.967773 393.908689,160.817384 394.359863,160.598633 L394.359863,161.59668 C393.931476,161.797202 393.553224,161.937337 393.225098,162.01709 C392.896971,162.096843 392.53467,162.136719 392.138184,162.136719 L392.138184,162.136719 Z M393.088379,155.348633 C392.618976,155.348633 392.178062,155.562823 391.765625,155.991211 C391.353188,156.419598 391.037599,157.014319 390.818848,157.775391 L390.900879,157.775391 C391.939947,157.775391 392.736325,157.639813 393.290039,157.368652 C393.843753,157.097492 394.120605,156.70443 394.120605,156.189453 C394.120605,155.947915 394.037436,155.747397 393.871094,155.587891 C393.704752,155.428385 393.443849,155.348633 393.088379,155.348633 L393.088379,155.348633 Z M399.404785,162.136719 C398.962726,162.136719 398.57536,162.022788 398.242676,161.794922 C397.909992,161.567056 397.652507,161.248049 397.470215,160.837891 L397.401855,160.837891 L397.374512,161.097656 C397.36084,161.211589 397.336914,161.371093 397.302734,161.576172 C397.268555,161.781251 397.007652,163.043608 396.52002,165.363281 L395.385254,165.363281 L397.682129,154.507812 L398.632324,154.507812 L398.45459,155.936523 L398.509277,155.936523 C399.325037,154.902013 400.172684,154.384766 401.052246,154.384766 C401.676598,154.384766 402.168781,154.606931 402.528809,155.05127 C402.888836,155.495608 403.068848,156.118811 403.068848,156.920898 C403.068848,157.887049 402.911623,158.773433 402.597168,159.580078 C402.282713,160.386723 401.847496,161.014483 401.291504,161.463379 C400.735512,161.912274 400.106612,162.136719 399.404785,162.136719 L399.404785,162.136719 Z M400.67627,155.334961 C400.238767,155.334961 399.793297,155.55143 399.339844,155.984375 C398.886391,156.41732 398.526369,156.961911 398.259766,157.618164 C397.993163,158.274417 397.859863,158.946611 397.859863,159.634766 C397.859863,160.13607 397.986327,160.520018 398.239258,160.786621 C398.492189,161.053224 398.857908,161.186523 399.336426,161.186523 C399.7876,161.186523 400.208006,161.001955 400.597656,160.632812 C400.987307,160.26367 401.300617,159.738447 401.537598,159.057129 C401.774578,158.37581 401.893066,157.652348 401.893066,156.886719 C401.893066,155.852208 401.487472,155.334961 400.67627,155.334961 L400.67627,155.334961 Z" id="step" fill="#9B9B9B"></path>
            </g>
        </g>
    </g>
</svg>