<?xml version="1.0" encoding="UTF-8" standalone="no"?>
<svg width="780px" height="199px" viewBox="0 0 780 199" version="1.1" xmlns="http://www.w3.org/2000/svg" xmlns:xlink="http://www.w3.org/1999/xlink" xmlns:sketch="http://www.bohemiancoding.com/sketch/ns">
    <!-- Generator: Sketch 3.5.1 (25234) - http://www.bohemiancoding.com/sketch -->
    <title>pipelines</title>
    <desc>Created with Sketch.</desc>
    <defs></defs>
    <g id="Page-1" stroke="none" stroke-width="1" fill="none" fill-rule="evenodd" sketch:type="MSPage">
        <g id="pipelines" sketch:type="MSLayerGroup">
            <rect id="Rectangle-26" fill="#FFFFFF" sketch:type="MSShapeGroup" x="0" y="0" width="780" height="199"></rect>
            <g id="Group-3" transform="translate(88.000000, 64.000000)" sketch:type="MSShapeGroup">
                <path d="M49.5,25.5 L566.500977,25.5" id="Line" stroke="#B0B8C6" stroke-width="3" stroke-linecap="square"></path>
                <path d="M162.5,45.2565789 C173.129817,45.2565789 181.746753,36.4067459 181.746753,25.5 C181.746753,14.5886109 173.129817,5.74342105 162.5,5.74342105 C151.874707,5.74342105 143.253247,14.5886109 143.253247,25.5 C143.253247,36.4067459 151.874707,45.2565789 162.5,45.2565789 L162.5,45.2565789 Z" id="Stroke-9" stroke="#B0B8C6" stroke-width="3" fill="#FFFFFF"></path>
                <path d="M174.511429,17.1914118 L171.418,15 L159.753143,29.6818824 L154.072,22.9495294 L151,25.1751176 L159.826429,35.3597059 L174.511429,17.1914118" id="Imported-Layers" fill="#6AC03B"></path>
                <path d="M296.5,45.2565789 C307.129817,45.2565789 315.746753,36.4067459 315.746753,25.5 C315.746753,14.5886109 307.129817,5.74342105 296.5,5.74342105 C285.874707,5.74342105 277.253247,14.5886109 277.253247,25.5 C277.253247,36.4067459 285.874707,45.2565789 296.5,45.2565789 L296.5,45.2565789 Z" id="Stroke-9" stroke="#B0B8C6" stroke-width="3" fill="#FFFFFF"></path>
                <path d="M308.511429,17.1914118 L305.418,15 L293.753143,29.6818824 L288.072,22.9495294 L285,25.1751176 L293.826429,35.3597059 L308.511429,17.1914118" id="Imported-Layers" fill="#6AC03B"></path>
                <path d="M430.5,45.2565789 C441.129817,45.2565789 449.746753,36.4067459 449.746753,25.5 C449.746753,14.5886109 441.129817,5.74342105 430.5,5.74342105 C419.874707,5.74342105 411.253247,14.5886109 411.253247,25.5 C411.253247,36.4067459 419.874707,45.2565789 430.5,45.2565789 L430.5,45.2565789 Z" id="Stroke-9" stroke="#B0B8C6" stroke-width="3" fill="#FFFFFF"></path>
                <path d="M442.511429,17.1914118 L439.418,15 L427.753143,29.6818824 L422.072,22.9495294 L419,25.1751176 L427.826429,35.3597059 L442.511429,17.1914118" id="Imported-Layers" fill="#6AC03B"></path>
                <g id="code">
                    <path d="M24,48.8157895 C37.0828513,48.8157895 47.6883117,37.9236873 47.6883117,24.5 C47.6883117,11.0705981 37.0828513,0.184210526 24,0.184210526 C10.9227158,0.184210526 0.311688312,11.0705981 0.311688312,24.5 C0.311688312,37.9236873 10.9227158,48.8157895 24,48.8157895 L24,48.8157895 Z" id="Stroke-9" stroke="#B0B8C6" stroke-width="3" fill="#B0B8C6"></path>
                    <rect id="Rectangle-path" fill="#FFFFFF" x="18" y="17.75" width="12" height="1"></rect>
                    <rect id="Rectangle-path" fill="#FFFFFF" x="18" y="20.75" width="5" height="1"></rect>
                    <rect id="Rectangle-path" fill="#FFFFFF" x="24" y="20.75" width="4" height="1"></rect>
                    <rect id="Rectangle-path" fill="#FFFFFF" x="20" y="23.75" width="8" height="1"></rect>
                    <rect id="Rectangle-path" fill="#FFFFFF" x="20" y="29.75" width="6" height="1"></rect>
                    <rect id="Rectangle-path" fill="#FFFFFF" x="18" y="26.75" width="3" height="1"></rect>
                    <rect id="Rectangle-path" fill="#FFFFFF" x="22" y="26.75" width="6" height="1"></rect>
                    <path d="M19.9987183,35.5 L18.5611454,35.5 L18.1515217,35.5 L16.4986883,35.5 C14.5657082,35.5 12.9988024,33.9416962 12.9989074,31.9956057 L12.9998109,15.2543943 C12.9999153,13.3189708 14.56968,11.75 16.4935108,11.75 L20,11.75" id="Shape" stroke="#FFFFFF" stroke-width="1.5"></path>
                    <path d="M34.9998103,35.5 L31.4935662,35.5 L31.4935662,35.5 C29.5640181,35.5 27.9998944,33.9416962 27.9999994,31.9956057 L28.0009029,15.2543943 C28.0010073,13.3189708 29.5698344,11.75 31.5020132,11.75 C31.5020132,11.75 32.6634325,11.75 31.4946028,11.75 C30.3257731,11.75 33.8322623,11.75 35.001092,11.75" id="Shape" stroke="#FFFFFF" stroke-width="1.5" transform="translate(31.500546, 23.625000) scale(-1, 1) translate(-31.500546, -23.625000) "></path>
                    <path d="M12.8881836,70.1367188 C12.0040646,70.1367188 11.3181991,69.8929061 10.8305664,69.4052734 C10.3429338,68.9176408 10.0991211,68.2294966 10.0991211,67.3408203 C10.0991211,66.4293574 10.2677392,65.5885455 10.6049805,64.8183594 C10.9422217,64.0481732 11.4082002,63.4477561 12.0029297,63.0170898 C12.5976592,62.5864236 13.2664351,62.3710938 14.0092773,62.3710938 C14.6336294,62.3710938 15.2443004,62.4873035 15.8413086,62.7197266 L15.5200195,63.6835938 C14.9731418,63.4511707 14.4741233,63.3349609 14.0229492,63.3349609 C13.51253,63.3349609 13.0465516,63.5092756 12.625,63.8579102 C12.2034484,64.2065447 11.8730481,64.6918914 11.6337891,65.3139648 C11.3945301,65.9360383 11.2749023,66.61165 11.2749023,67.3408203 C11.2749023,67.9241566 11.4264308,68.3776025 11.7294922,68.7011719 C12.0325536,69.0247412 12.4506809,69.1865234 12.9838867,69.1865234 C13.3120134,69.1865234 13.6219061,69.140951 13.9135742,69.0498047 C14.2052423,68.9586584 14.4923488,68.8515631 14.7749023,68.7285156 L14.7749023,69.7060547 C14.2097954,69.9931655 13.5808954,70.1367188 12.8881836,70.1367188 L12.8881836,70.1367188 Z M20.1274414,62.4121094 C20.9933312,62.4121094 21.6769181,62.6684545 22.1782227,63.1811523 C22.6795272,63.6938502 22.9301758,64.3990841 22.9301758,65.296875 C22.9301758,66.1536501 22.7661149,66.9625613 22.4379883,67.7236328 C22.1098616,68.4847043 21.6655301,69.0725891 21.1049805,69.4873047 C20.5444308,69.9020203 19.9109736,70.109375 19.2045898,70.109375 C18.3295855,70.109375 17.6437199,69.8518906 17.1469727,69.3369141 C16.6502254,68.8219375 16.4018555,68.117843 16.4018555,67.2246094 C16.4018555,66.3587196 16.568195,65.5441119 16.9008789,64.7807617 C17.2335629,64.0174115 17.6824516,63.4318054 18.2475586,63.0239258 C18.8126656,62.6160461 19.4392869,62.4121094 20.1274414,62.4121094 L20.1274414,62.4121094 Z M21.7407227,65.1396484 C21.7407227,64.6155573 21.5983087,64.1905941 21.3134766,63.8647461 C21.0286444,63.5388981 20.6424178,63.3759766 20.1547852,63.3759766 C19.6580379,63.3759766 19.2125671,63.5445947 18.8183594,63.8818359 C18.4241517,64.2190772 18.1188162,64.6873342 17.9023438,65.2866211 C17.6858713,65.8859079 17.5776367,66.5524052 17.5776367,67.2861328 C17.5776367,67.883141 17.7223293,68.3445622 18.0117188,68.6704102 C18.3011082,68.9962581 18.7169569,69.1591797 19.2592773,69.1591797 C19.733238,69.1591797 20.1593406,68.9928402 20.5375977,68.6601562 C20.9158548,68.3274723 21.2109364,67.854658 21.4228516,67.2416992 C21.6347667,66.6287404 21.7407227,65.9280638 21.7407227,65.1396484 L21.7407227,65.1396484 Z M27.9545898,62.3847656 C28.8387088,62.3847656 29.4790019,62.817704 29.8754883,63.6835938 L29.9438477,63.6835938 C30.021322,62.97721 30.12386,62.3528673 30.2514648,61.8105469 L30.784668,59.3632812 L31.9194336,59.3632812 L29.6635742,70 L28.7133789,70 L28.8637695,68.5712891 L28.809082,68.5712891 C28.3487933,69.1409534 27.9181335,69.5442696 27.5170898,69.78125 C27.1160462,70.0182304 26.7013368,70.1367188 26.2729492,70.1367188 C25.6394825,70.1367188 25.1450213,69.9134137 24.7895508,69.4667969 C24.4340803,69.0201801 24.2563477,68.4003946 24.2563477,67.6074219 C24.2563477,66.6321566 24.4204085,65.7389363 24.7485352,64.9277344 C25.0766618,64.1165324 25.519854,63.4899111 26.078125,63.0478516 C26.636396,62.6057921 27.261878,62.3847656 27.9545898,62.3847656 L27.9545898,62.3847656 Z M26.6557617,69.1865234 C27.0841493,69.1865234 27.5262021,68.9734722 27.9819336,68.5473633 C28.437665,68.1212544 28.7988268,67.5766635 29.0654297,66.9135742 C29.3320326,66.250485 29.465332,65.5748732 29.465332,64.8867188 C29.465332,64.3808568 29.3422864,63.9957696 29.0961914,63.7314453 C28.8500964,63.4671211 28.4923526,63.3349609 28.0229492,63.3349609 C27.5626605,63.3349609 27.1354186,63.5229473 26.7412109,63.8989258 C26.3470032,64.2749042 26.0302746,64.8035448 25.7910156,65.4848633 C25.5517566,66.1661818 25.4321289,66.8828087 25.4321289,67.6347656 C25.4321289,68.669276 25.8400024,69.1865234 26.6557617,69.1865234 L26.6557617,69.1865234 Z M35.0297852,70.1367188 C34.1912393,70.1367188 33.5327172,69.8883488 33.0541992,69.3916016 C32.5756812,68.8948543 32.3364258,68.2067101 32.3364258,67.3271484 C32.3364258,66.4703733 32.5061832,65.6489297 32.8457031,64.862793 C33.1852231,64.0766562 33.6352511,63.4648459 34.1958008,63.0273438 C34.7563505,62.5898416 35.3738573,62.3710938 36.0483398,62.3710938 C36.745609,62.3710938 37.2696923,62.5226222 37.6206055,62.8256836 C37.9715187,63.128745 38.1469727,63.5514296 38.1469727,64.09375 C38.1469727,64.9140666 37.7687212,65.5577776 37.012207,66.0249023 C36.2556928,66.4920271 35.1733469,66.7255859 33.7651367,66.7255859 L33.5395508,66.7255859 L33.512207,67.2724609 C33.512207,67.8694691 33.6523423,68.3354475 33.9326172,68.6704102 C34.212892,69.0053728 34.6469697,69.1728516 35.2348633,69.1728516 C35.5219741,69.1728516 35.8170558,69.1318363 36.1201172,69.0498047 C36.4231786,68.967773 36.8002907,68.8173839 37.2514648,68.5986328 L37.2514648,69.5966797 C36.8230773,69.7972015 36.4448259,69.9373368 36.1166992,70.0170898 C35.7885726,70.0968428 35.4262715,70.1367188 35.0297852,70.1367188 L35.0297852,70.1367188 Z M35.9799805,63.3486328 C35.5105771,63.3486328 35.0696635,63.5628234 34.6572266,63.9912109 C34.2447896,64.4195985 33.9292003,65.0143191 33.7104492,65.7753906 L33.7924805,65.7753906 C34.8315482,65.7753906 35.6279269,65.6398126 36.1816406,65.3686523 C36.7353543,65.0974921 37.012207,64.7044297 37.012207,64.1894531 C37.012207,63.9479155 36.9290373,63.7473966 36.7626953,63.5878906 C36.5963533,63.4283846 36.335451,63.3486328 35.9799805,63.3486328 L35.9799805,63.3486328 Z" fill="#9B9B9B"></path>
                </g>
                <g id="container" transform="translate(546.000000, 0.000000)">
                    <path d="M28,48.8157895 C41.0828513,48.8157895 51.6883117,37.9236873 51.6883117,24.5 C51.6883117,11.0705981 41.0828513,0.184210526 28,0.184210526 C14.9227158,0.184210526 4.31168831,11.0705981 4.31168831,24.5 C4.31168831,37.9236873 14.9227158,48.8157895 28,48.8157895 L28,48.8157895 Z" id="Stroke-9" stroke="#B0B8C6" stroke-width="3" fill="#B0B8C6"></path>
                    <g id="Group-2" transform="translate(13.000000, 7.000000)" stroke="#FFFFFF" stroke-width="1.5">
                        <path d="M0,8.51201338 L14.9980788,17.0233274 L29.9990038,8.51131401 M14.9987904,0 L14.9980788,0 L14.9987904,0 L14.9987904,0 Z" id="Shape"></path>
                        <path d="M0.00142310265,8.51201338 L0.00142310265,25.5353407 L14.9995019,34.0466548 L30.000427,25.5346414 L29.9997154,8.51201338 L15.000925,0 L0.00142310265,8.51201338 Z M15.0002134,17.0233274 L14.9995019,17.0233274 L15.0002134,17.0233274 L15.0002134,17.0233274 Z" id="Shape"></path>
                    </g>
                    <path d="M27.75,23.8983736 L27.75,40.8283739" id="Path-195" stroke="#FFFFFF" stroke-width="1.5"></path>
                    <path d="M3.07470703,70.1367188 C2.19058803,70.1367188 1.50472249,69.8929061 1.01708984,69.4052734 C0.529457197,68.9176408 0.285644531,68.2294966 0.285644531,67.3408203 C0.285644531,66.4293574 0.454262637,65.5885455 0.791503906,64.8183594 C1.12874518,64.0481732 1.59472359,63.4477561 2.18945312,63.0170898 C2.78418266,62.5864236 3.45295853,62.3710938 4.19580078,62.3710938 C4.82015286,62.3710938 5.43082384,62.4873035 6.02783203,62.7197266 L5.70654297,63.6835938 C5.15966523,63.4511707 4.66064679,63.3349609 4.20947266,63.3349609 C3.69905344,63.3349609 3.23307502,63.5092756 2.81152344,63.8579102 C2.38997185,64.2065447 2.05957151,64.6918914 1.8203125,65.3139648 C1.58105349,65.9360383 1.46142578,66.61165 1.46142578,67.3408203 C1.46142578,67.9241566 1.61295421,68.3776025 1.91601562,68.7011719 C2.21907704,69.0247412 2.63720437,69.1865234 3.17041016,69.1865234 C3.4985368,69.1865234 3.80842953,69.140951 4.10009766,69.0498047 C4.39176578,68.9586584 4.67887229,68.8515631 4.96142578,68.7285156 L4.96142578,69.7060547 C4.39631879,69.9931655 3.76741883,70.1367188 3.07470703,70.1367188 L3.07470703,70.1367188 Z M10.3139648,62.4121094 C11.1798546,62.4121094 11.8634415,62.6684545 12.3647461,63.1811523 C12.8660507,63.6938502 13.1166992,64.3990841 13.1166992,65.296875 C13.1166992,66.1536501 12.9526384,66.9625613 12.6245117,67.7236328 C12.2963851,68.4847043 11.8520536,69.0725891 11.2915039,69.4873047 C10.7309542,69.9020203 10.097497,70.109375 9.39111328,70.109375 C8.51610891,70.109375 7.83024337,69.8518906 7.33349609,69.3369141 C6.83674882,68.8219375 6.58837891,68.117843 6.58837891,67.2246094 C6.58837891,66.3587196 6.75471839,65.5441119 7.08740234,64.7807617 C7.4200863,64.0174115 7.86897504,63.4318054 8.43408203,63.0239258 C8.99918902,62.6160461 9.62581036,62.4121094 10.3139648,62.4121094 L10.3139648,62.4121094 Z M11.9272461,65.1396484 C11.9272461,64.6155573 11.7848322,64.1905941 11.5,63.8647461 C11.2151678,63.5388981 10.8289412,63.3759766 10.3413086,63.3759766 C9.84456132,63.3759766 9.39909051,63.5445947 9.00488281,63.8818359 C8.61067511,64.2190772 8.30533962,64.6873342 8.08886719,65.2866211 C7.87239475,65.8859079 7.76416016,66.5524052 7.76416016,67.2861328 C7.76416016,67.883141 7.90885272,68.3445622 8.19824219,68.6704102 C8.48763166,68.9962581 8.90348036,69.1591797 9.44580078,69.1591797 C9.91976148,69.1591797 10.345864,68.9928402 10.7241211,68.6601562 C11.1023782,68.3274723 11.3974599,67.854658 11.609375,67.2416992 C11.8212901,66.6287404 11.9272461,65.9280638 11.9272461,65.1396484 L11.9272461,65.1396484 Z M18.7563477,70 L19.7680664,65.2695312 C19.8592127,64.7955705 19.9047852,64.4674488 19.9047852,64.2851562 C19.9047852,63.9980454 19.823894,63.7679045 19.6621094,63.5947266 C19.5003247,63.4215486 19.241701,63.3349609 18.8862305,63.3349609 C18.4806295,63.3349609 18.0852884,63.4716783 17.7001953,63.7451172 C17.3151022,64.0185561 16.9755874,64.4082006 16.6816406,64.9140625 C16.3876938,65.4199244 16.1655281,66.032874 16.0151367,66.7529297 L15.324707,70 L14.1762695,70 L15.7758789,62.5078125 L16.7260742,62.5078125 L16.5756836,63.8955078 L16.644043,63.8955078 C17.0815452,63.3395154 17.5042297,62.946453 17.9121094,62.7163086 C18.319989,62.4861642 18.7426736,62.3710938 19.1801758,62.3710938 C19.7589547,62.3710938 20.2158186,62.5294581 20.5507812,62.8461914 C20.8857439,63.1629248 21.0532227,63.6061169 21.0532227,64.1757812 C21.0532227,64.5358091 21.0008143,64.9459612 20.8959961,65.40625 L19.918457,70 L18.7563477,70 Z M24.5532227,69.2001953 C24.803875,69.2001953 25.1319967,69.1409511 25.5375977,69.0224609 L25.5375977,69.9042969 C25.382649,69.9680993 25.1912446,70.0227862 24.9633789,70.0683594 C24.7355132,70.1139325 24.5532233,70.1367188 24.4165039,70.1367188 C23.8468396,70.1367188 23.4104833,70.0011407 23.1074219,69.7299805 C22.8043605,69.4588203 22.652832,69.0543647 22.652832,68.5166016 C22.652832,68.2158188 22.6938472,67.8740254 22.7758789,67.4912109 L23.644043,63.3759766 L22.4682617,63.3759766 L22.5639648,62.8769531 L23.8286133,62.34375 L24.6831055,60.7851562 L25.3530273,60.7851562 L24.9770508,62.5078125 L26.8500977,62.5078125 L26.6723633,63.3759766 L24.8061523,63.3759766 L23.9243164,67.5048828 C23.8422847,67.9013692 23.8012695,68.2021474 23.8012695,68.4072266 C23.8012695,68.6624362 23.8673496,68.8583978 23.9995117,68.9951172 C24.1316738,69.1318366 24.3162423,69.2001953 24.5532227,69.2001953 L24.5532227,69.2001953 Z M30.7602539,62.3710938 C31.1795268,62.3710938 31.553221,62.4838856 31.8813477,62.7094727 C32.2094743,62.9350597 32.4646801,63.2597635 32.6469727,63.6835938 L32.722168,63.6835938 L33.1801758,62.5078125 L34.0483398,62.5078125 L32.4555664,70 L31.5463867,70 L31.7241211,68.5712891 L31.6694336,68.5712891 C30.8536743,69.6149141 29.9946334,70.1367188 29.0922852,70.1367188 C28.4588184,70.1367188 27.9620786,69.9111351 27.6020508,69.4599609 C27.2420229,69.0087868 27.0620117,68.39128 27.0620117,67.6074219 C27.0620117,66.6595005 27.223794,65.779952 27.5473633,64.96875 C27.8709326,64.157548 28.3175427,63.5218122 28.887207,63.0615234 C29.4568713,62.6012347 30.0812141,62.3710938 30.7602539,62.3710938 L30.7602539,62.3710938 Z M29.4614258,69.1865234 C29.9034853,69.1865234 30.3432595,68.9757508 30.7807617,68.5541992 C31.2182639,68.1326476 31.5737291,67.5834995 31.847168,66.9067383 C32.1206068,66.2299771 32.2573242,65.5520867 32.2573242,64.8730469 C32.2573242,64.4036435 32.1297213,64.0299493 31.8745117,63.7519531 C31.6193021,63.4739569 31.2843445,63.3349609 30.8696289,63.3349609 C30.3956682,63.3349609 29.9547546,63.5309225 29.546875,63.9228516 C29.1389954,64.3147806 28.8188488,64.8456998 28.5864258,65.515625 C28.3540027,66.1855502 28.237793,66.8919234 28.237793,67.6347656 C28.237793,68.1542995 28.3448883,68.5428047 28.559082,68.800293 C28.7732758,69.0577812 29.0740541,69.1865234 29.4614258,69.1865234 L29.4614258,69.1865234 Z M35.8530273,70 L34.7045898,70 L36.3041992,62.5078125 L37.4526367,62.5078125 L35.8530273,70 Z M36.6254883,60.59375 C36.6254883,60.3385404 36.6984042,60.1300464 36.8442383,59.9682617 C36.9900723,59.8064771 37.1791981,59.7255859 37.4116211,59.7255859 C37.8126648,59.7255859 38.0131836,59.930662 38.0131836,60.3408203 C38.0131836,60.5914726 37.9368497,60.8033846 37.7841797,60.9765625 C37.6315097,61.1497404 37.4549164,61.2363281 37.2543945,61.2363281 C37.072102,61.2363281 36.9217128,61.1805019 36.8032227,61.0688477 C36.6847325,60.9571935 36.6254883,60.7988292 36.6254883,60.59375 L36.6254883,60.59375 Z M42.8393555,70 L43.8510742,65.2695312 C43.9422205,64.7955705 43.987793,64.4674488 43.987793,64.2851562 C43.987793,63.9980454 43.9069019,63.7679045 43.7451172,63.5947266 C43.5833325,63.4215486 43.3247088,63.3349609 42.9692383,63.3349609 C42.5636373,63.3349609 42.1682962,63.4716783 41.7832031,63.7451172 C41.3981101,64.0185561 41.0585952,64.4082006 40.7646484,64.9140625 C40.4707017,65.4199244 40.2485359,66.032874 40.0981445,66.7529297 L39.4077148,70 L38.2592773,70 L39.8588867,62.5078125 L40.809082,62.5078125 L40.6586914,63.8955078 L40.7270508,63.8955078 C41.164553,63.3395154 41.5872375,62.946453 41.9951172,62.7163086 C42.4029968,62.4861642 42.8256814,62.3710938 43.2631836,62.3710938 C43.8419625,62.3710938 44.2988265,62.5294581 44.6337891,62.8461914 C44.9687517,63.1629248 45.1362305,63.6061169 45.1362305,64.1757812 C45.1362305,64.5358091 45.0838221,64.9459612 44.9790039,65.40625 L44.0014648,70 L42.8393555,70 Z M49.2993164,70.1367188 C48.4607705,70.1367188 47.8022485,69.8883488 47.3237305,69.3916016 C46.8452125,68.8948543 46.605957,68.2067101 46.605957,67.3271484 C46.605957,66.4703733 46.7757144,65.6489297 47.1152344,64.862793 C47.4547543,64.0766562 47.9047824,63.4648459 48.465332,63.0273438 C49.0258817,62.5898416 49.6433886,62.3710938 50.3178711,62.3710938 C51.0151402,62.3710938 51.5392235,62.5226222 51.8901367,62.8256836 C52.2410499,63.128745 52.4165039,63.5514296 52.4165039,64.09375 C52.4165039,64.9140666 52.0382525,65.5577776 51.2817383,66.0249023 C50.5252241,66.4920271 49.4428781,66.7255859 48.034668,66.7255859 L47.809082,66.7255859 L47.7817383,67.2724609 C47.7817383,67.8694691 47.9218736,68.3354475 48.2021484,68.6704102 C48.4824233,69.0053728 48.916501,69.1728516 49.5043945,69.1728516 C49.7915053,69.1728516 50.086587,69.1318363 50.3896484,69.0498047 C50.6927098,68.967773 51.069822,68.8173839 51.5209961,68.5986328 L51.5209961,69.5966797 C51.0926085,69.7972015 50.7143571,69.9373368 50.3862305,70.0170898 C50.0581038,70.0968428 49.6958028,70.1367188 49.2993164,70.1367188 L49.2993164,70.1367188 Z M50.2495117,63.3486328 C49.7801083,63.3486328 49.3391948,63.5628234 48.9267578,63.9912109 C48.5143209,64.4195985 48.1987316,65.0143191 47.9799805,65.7753906 L48.0620117,65.7753906 C49.1010794,65.7753906 49.8974582,65.6398126 50.4511719,65.3686523 C51.0048856,65.0974921 51.2817383,64.7044297 51.2817383,64.1894531 C51.2817383,63.9479155 51.1985685,63.7473966 51.0322266,63.5878906 C50.8658846,63.4283846 50.6049822,63.3486328 50.2495117,63.3486328 L50.2495117,63.3486328 Z M57.980957,62.3710938 C58.2954117,62.3710938 58.5688465,62.4029945 58.8012695,62.4667969 L58.5551758,63.4921875 C58.3136381,63.4329424 58.0743827,63.4033203 57.8374023,63.4033203 C57.4226867,63.4033203 57.0341815,63.5400377 56.671875,63.8134766 C56.3095685,64.0869154 55.9928399,64.4663062 55.7216797,64.9516602 C55.4505195,65.4370141 55.25114,65.9759085 55.1235352,66.5683594 L54.3920898,70 L53.2436523,70 L54.8432617,62.5078125 L55.793457,62.5078125 L55.6430664,63.8955078 L55.7114258,63.8955078 C56.0395524,63.4625629 56.3107086,63.1515309 56.5249023,62.9624023 C56.7390961,62.7732738 56.9635405,62.6274419 57.1982422,62.5249023 C57.4329439,62.4223628 57.6938462,62.3710938 57.980957,62.3710938 L57.980957,62.3710938 Z" fill="#9B9B9B"></path>
                </g>
            </g>
        </g>
    </g>
</svg>