<?xml version="1.0" encoding="UTF-8" standalone="no"?>
<svg width="780px" height="228px" viewBox="0 0 780 228" version="1.1" xmlns="http://www.w3.org/2000/svg" xmlns:xlink="http://www.w3.org/1999/xlink" xmlns:sketch="http://www.bohemiancoding.com/sketch/ns">
    <!-- Generator: Sketch 3.5.1 (25234) - http://www.bohemiancoding.com/sketch -->
    <title>Group 11</title>
    <desc>Created with Sketch.</desc>
    <defs></defs>
    <g id="Page-1" stroke="none" stroke-width="1" fill="none" fill-rule="evenodd" sketch:type="MSPage">
        <g id="Group-11" sketch:type="MSLayerGroup">
            <rect id="Rectangle-26" fill="#FFFFFF" sketch:type="MSShapeGroup" x="0" y="0" width="780" height="228"></rect>
            <path d="M116.5,136.5 L666.503662,136.5" id="Line" stroke="#B0B8C6" stroke-width="3" stroke-linecap="square" sketch:type="MSShapeGroup"></path>
            <path d="M326.5,156.256579 C337.129817,156.256579 345.746753,147.406746 345.746753,136.5 C345.746753,125.588611 337.129817,116.743421 326.5,116.743421 C315.874707,116.743421 307.253247,125.588611 307.253247,136.5 C307.253247,147.406746 315.874707,156.256579 326.5,156.256579 L326.5,156.256579 Z" id="Stroke-9" stroke="#B0B8C6" stroke-width="3" fill="#FFFFFF" sketch:type="MSShapeGroup"></path>
            <path d="M338.511429,128.191412 L335.418,126 L323.753143,140.681882 L318.072,133.949529 L315,136.175118 L323.826429,146.359706 L338.511429,128.191412" id="Imported-Layers" fill="#6AC03B" sketch:type="MSShapeGroup"></path>
            <path d="M440.5,156.256579 C451.129817,156.256579 459.746753,147.406746 459.746753,136.5 C459.746753,125.588611 451.129817,116.743421 440.5,116.743421 C429.874707,116.743421 421.253247,125.588611 421.253247,136.5 C421.253247,147.406746 429.874707,156.256579 440.5,156.256579 L440.5,156.256579 Z" id="Stroke-9" stroke="#B0B8C6" stroke-width="3" fill="#FFFFFF" sketch:type="MSShapeGroup"></path>
            <path d="M452.511429,128.191412 L449.418,126 L437.753143,140.681882 L432.072,133.949529 L429,136.175118 L437.826429,146.359706 L452.511429,128.191412" id="Imported-Layers" fill="#6AC03B" sketch:type="MSShapeGroup"></path>
            <path d="M554.5,155.256579 C565.129817,155.256579 573.746753,146.406746 573.746753,135.5 C573.746753,124.588611 565.129817,115.743421 554.5,115.743421 C543.874707,115.743421 535.253247,124.588611 535.253247,135.5 C535.253247,146.406746 543.874707,155.256579 554.5,155.256579 L554.5,155.256579 Z" id="Stroke-9" stroke="#B0B8C6" stroke-width="3" fill="#FFFFFF" sketch:type="MSShapeGroup"></path>
            <path d="M566.511429,127.191412 L563.418,125 L551.753143,139.681882 L546.072,132.949529 L543,135.175118 L551.826429,145.359706 L566.511429,127.191412" id="Imported-Layers" fill="#6AC03B" sketch:type="MSShapeGroup"></path>
            <path d="M74.5297852,172.507812 L74.3588867,173.239258 L72.9165039,173.40332 C73.1033538,173.685874 73.1967773,174.045896 73.1967773,174.483398 C73.1967773,175.353845 72.9313178,176.047686 72.4003906,176.564941 C71.8694635,177.082197 71.1596724,177.34082 70.2709961,177.34082 C70.0203438,177.34082 69.8289395,177.322591 69.6967773,177.286133 C69.0633106,177.52767 68.746582,177.82617 68.746582,178.181641 C68.746582,178.368491 68.8217766,178.492675 68.972168,178.554199 C69.1225593,178.615723 69.3413072,178.664713 69.628418,178.701172 L70.4282227,178.796875 C71.2530966,178.897136 71.8512351,179.097655 72.2226562,179.398438 C72.5940774,179.69922 72.7797852,180.141273 72.7797852,180.724609 C72.7797852,181.563155 72.4471062,182.212563 71.7817383,182.672852 C71.1163704,183.13314 70.1798563,183.363281 68.972168,183.363281 C68.088049,183.363281 67.3953476,183.195802 66.894043,182.86084 C66.3927384,182.525877 66.1420898,182.053063 66.1420898,181.442383 C66.1420898,180.963865 66.3061507,180.549155 66.6342773,180.198242 C66.962404,179.847329 67.4933232,179.548829 68.2270508,179.302734 C67.8715803,179.115884 67.6938477,178.840171 67.6938477,178.475586 C67.6938477,178.161131 67.8100574,177.891114 68.0424805,177.665527 C68.2749035,177.43994 68.598468,177.229168 69.0131836,177.033203 C68.7260728,176.887369 68.4913746,176.672039 68.309082,176.387207 C68.1267895,176.102375 68.0356445,175.770835 68.0356445,175.392578 C68.0356445,174.508459 68.30794,173.783857 68.8525391,173.21875 C69.3971381,172.653643 70.0932575,172.371094 70.940918,172.371094 C71.2963885,172.371094 71.6472964,172.416666 71.9936523,172.507812 L74.5297852,172.507812 Z M67.2495117,181.333008 C67.2495117,181.683921 67.3976222,181.961913 67.6938477,182.166992 C67.9900731,182.372071 68.4298473,182.474609 69.0131836,182.474609 C69.8426148,182.474609 70.4908831,182.329917 70.9580078,182.040527 C71.4251325,181.751138 71.6586914,181.342125 71.6586914,180.813477 C71.6586914,180.530923 71.5356458,180.307618 71.2895508,180.143555 C71.0434558,179.979491 70.6241892,179.86556 70.0317383,179.801758 L68.9448242,179.692383 C68.3979465,179.806316 67.9786798,180.006835 67.6870117,180.293945 C67.3953436,180.581056 67.2495117,180.927407 67.2495117,181.333008 L67.2495117,181.333008 Z M69.1499023,175.351562 C69.1499023,175.738934 69.2524404,176.034016 69.4575195,176.236816 C69.6625987,176.439617 69.9474266,176.541016 70.3120117,176.541016 C70.6720396,176.541016 70.9864895,176.445313 71.2553711,176.253906 C71.5242526,176.062499 71.730468,175.799318 71.8740234,175.464355 C72.0175788,175.129393 72.0893555,174.765952 72.0893555,174.374023 C72.0893555,174.000324 71.9890961,173.715496 71.7885742,173.519531 C71.5880524,173.323567 71.3009459,173.225586 70.9272461,173.225586 C70.5717756,173.225586 70.2607435,173.31787 69.9941406,173.502441 C69.7275377,173.687013 69.520183,173.944497 69.3720703,174.274902 C69.2239576,174.605308 69.1499023,174.964191 69.1499023,175.351562 L69.1499023,175.351562 Z M75.5756836,180 L74.4272461,180 L76.0268555,172.507812 L77.175293,172.507812 L75.5756836,180 Z M76.3481445,170.59375 C76.3481445,170.33854 76.4210605,170.130046 76.5668945,169.968262 C76.7127286,169.806477 76.9018543,169.725586 77.1342773,169.725586 C77.535321,169.725586 77.7358398,169.930662 77.7358398,170.34082 C77.7358398,170.591473 77.659506,170.803385 77.5068359,170.976562 C77.3541659,171.14974 77.1775726,171.236328 76.9770508,171.236328 C76.7947582,171.236328 76.6443691,171.180502 76.5258789,171.068848 C76.4073887,170.957193 76.3481445,170.798829 76.3481445,170.59375 L76.3481445,170.59375 Z M80.2788086,179.200195 C80.5294609,179.200195 80.8575826,179.140951 81.2631836,179.022461 L81.2631836,179.904297 C81.1082349,179.968099 80.9168306,180.022786 80.6889648,180.068359 C80.4610991,180.113933 80.2788093,180.136719 80.1420898,180.136719 C79.5724255,180.136719 79.1360692,180.001141 78.8330078,179.72998 C78.5299464,179.45882 78.378418,179.054365 78.378418,178.516602 C78.378418,178.215819 78.4194332,177.874025 78.5014648,177.491211 L79.3696289,173.375977 L78.1938477,173.375977 L78.2895508,172.876953 L79.5541992,172.34375 L80.4086914,170.785156 L81.0786133,170.785156 L80.7026367,172.507812 L82.5756836,172.507812 L82.3979492,173.375977 L80.5317383,173.375977 L79.6499023,177.504883 C79.5678707,177.901369 79.5268555,178.202147 79.5268555,178.407227 C79.5268555,178.662436 79.5929355,178.858398 79.7250977,178.995117 C79.8572598,179.131837 80.0418282,179.200195 80.2788086,179.200195 L80.2788086,179.200195 Z M89.4799805,180.136719 C89.037921,180.136719 88.650555,180.022788 88.3178711,179.794922 C87.9851871,179.567056 87.7277027,179.248049 87.5454102,178.837891 L87.4770508,178.837891 L87.449707,179.097656 C87.4360351,179.211589 87.4121095,179.371093 87.3779297,179.576172 C87.3437498,179.781251 87.0828475,181.043608 86.5952148,183.363281 L85.4604492,183.363281 L87.7573242,172.507812 L88.7075195,172.507812 L88.5297852,173.936523 L88.5844727,173.936523 C89.4002319,172.902013 90.2478797,172.384766 91.1274414,172.384766 C91.7517935,172.384766 92.2439761,172.606931 92.6040039,173.05127 C92.9640317,173.495608 93.144043,174.118811 93.144043,174.920898 C93.144043,175.887049 92.986818,176.773433 92.6723633,177.580078 C92.3579086,178.386723 91.9226916,179.014483 91.3666992,179.463379 C90.8107069,179.912274 90.1818069,180.136719 89.4799805,180.136719 L89.4799805,180.136719 Z M90.7514648,173.334961 C90.3139627,173.334961 89.8684919,173.55143 89.4150391,173.984375 C88.9615863,174.41732 88.6015638,174.961911 88.3349609,175.618164 C88.068358,176.274417 87.9350586,176.946611 87.9350586,177.634766 C87.9350586,178.13607 88.0615222,178.520018 88.3144531,178.786621 C88.5673841,179.053224 88.9331031,179.186523 89.4116211,179.186523 C89.8627952,179.186523 90.2832012,179.001955 90.6728516,178.632812 C91.0625019,178.26367 91.3758126,177.738447 91.612793,177.057129 C91.8497733,176.37581 91.9682617,175.652348 91.9682617,174.886719 C91.9682617,173.852208 91.5626668,173.334961 90.7514648,173.334961 L90.7514648,173.334961 Z M96.9174805,172.507812 L95.8920898,177.258789 C95.8100582,177.66439 95.769043,177.981119 95.769043,178.208984 C95.769043,178.86068 96.1040006,179.186523 96.7739258,179.186523 C97.1749695,179.186523 97.5691712,179.049806 97.956543,178.776367 C98.3439147,178.502928 98.6857082,178.111005 98.9819336,177.600586 C99.278159,177.090167 99.5037427,176.474938 99.6586914,175.754883 L100.342285,172.507812 L101.477051,172.507812 L99.8979492,180 L98.9477539,180 L99.0981445,178.612305 L99.0161133,178.612305 C98.5694965,179.181969 98.143394,179.578449 97.737793,179.801758 C97.332192,180.025066 96.9129253,180.136719 96.4799805,180.136719 C95.8966442,180.136719 95.438641,179.978354 95.105957,179.661621 C94.7732731,179.344888 94.6069336,178.892581 94.6069336,178.304688 C94.6069336,178.022134 94.6570633,177.630211 94.7573242,177.128906 L95.7553711,172.507812 L96.9174805,172.507812 Z M106.938965,177.874023 C106.938965,178.584964 106.687177,179.139809 106.183594,179.538574 C105.680011,179.937339 104.970219,180.136719 104.054199,180.136719 C103.284013,180.136719 102.589033,179.979494 101.969238,179.665039 L101.969238,178.584961 C102.28825,178.776368 102.632322,178.924479 103.001465,179.029297 C103.370607,179.134115 103.712401,179.186523 104.026855,179.186523 C104.601077,179.186523 105.034015,179.072592 105.325684,178.844727 C105.617352,178.616861 105.763184,178.325197 105.763184,177.969727 C105.763184,177.70996 105.683432,177.491212 105.523926,177.313477 C105.36442,177.135741 105.020348,176.891929 104.491699,176.582031 C103.899248,176.249347 103.479982,175.923504 103.233887,175.604492 C102.987792,175.28548 102.864746,174.907229 102.864746,174.469727 C102.864746,173.840817 103.094887,173.333824 103.555176,172.94873 C104.015465,172.563637 104.621578,172.371094 105.373535,172.371094 C106.152836,172.371094 106.904782,172.539712 107.629395,172.876953 L107.260254,173.813477 L106.877441,173.642578 C106.417153,173.446614 105.915856,173.348633 105.373535,173.348633 C104.949705,173.348633 104.617026,173.447753 104.375488,173.645996 C104.133951,173.844239 104.013184,174.100584 104.013184,174.415039 C104.013184,174.670249 104.094075,174.888996 104.255859,175.071289 C104.417644,175.253582 104.751462,175.48828 105.257324,175.775391 C105.744957,176.048829 106.094726,176.283528 106.306641,176.479492 C106.518556,176.675457 106.67692,176.886229 106.781738,177.111816 C106.886557,177.337403 106.938965,177.59147 106.938965,177.874023 L106.938965,177.874023 Z M112.893066,180 L113.904785,175.269531 C113.986817,174.841144 114.027832,174.53353 114.027832,174.34668 C114.027832,173.672197 113.692874,173.334961 113.022949,173.334961 C112.617348,173.334961 112.222007,173.4694 111.836914,173.738281 C111.451821,174.007163 111.112306,174.397947 110.818359,174.910645 C110.524413,175.423342 110.302247,176.041989 110.151855,176.766602 L109.461426,180 L108.312988,180 L110.568848,169.363281 L111.717285,169.363281 C111.635253,169.736981 111.556641,170.099282 111.481445,170.450195 C111.40625,170.801109 111.328776,171.157713 111.249023,171.52002 C111.16927,171.882326 111.082683,172.261717 110.989258,172.658203 C110.895833,173.054689 110.787598,173.485349 110.664551,173.950195 L110.739746,173.950195 C111.168134,173.389646 111.590818,172.988608 112.007812,172.74707 C112.424807,172.505533 112.861163,172.384766 113.316895,172.384766 C113.913903,172.384766 114.375324,172.548826 114.701172,172.876953 C115.02702,173.20508 115.189941,173.669919 115.189941,174.271484 C115.189941,174.554038 115.137533,174.932289 115.032715,175.40625 C114.85498,176.285812 114.524579,177.817046 114.041504,180 L112.893066,180 Z" id="git-push" fill="#9B9B9B" sketch:type="MSShapeGroup"></path>
            <path d="M91,159.315789 C104.082851,159.315789 114.688312,148.423687 114.688312,135 C114.688312,121.570598 104.082851,110.684211 91,110.684211 C77.9227158,110.684211 67.3116883,121.570598 67.3116883,135 C67.3116883,148.423687 77.9227158,159.315789 91,159.315789 L91,159.315789 Z" id="Stroke-9" stroke="#B0B8C6" stroke-width="3" fill="#B0B8C6" sketch:type="MSShapeGroup"></path>
            <rect id="Rectangle-path" fill="#FFFFFF" sketch:type="MSShapeGroup" x="85" y="128" width="12" height="1"></rect>
            <rect id="Rectangle-path" fill="#FFFFFF" sketch:type="MSShapeGroup" x="85" y="131" width="5" height="1"></rect>
            <rect id="Rectangle-path" fill="#FFFFFF" sketch:type="MSShapeGroup" x="91" y="131" width="4" height="1"></rect>
            <rect id="Rectangle-path" fill="#FFFFFF" sketch:type="MSShapeGroup" x="87" y="134" width="8" height="1"></rect>
            <rect id="Rectangle-path" fill="#FFFFFF" sketch:type="MSShapeGroup" x="87" y="140" width="6" height="1"></rect>
            <rect id="Rectangle-path" fill="#FFFFFF" sketch:type="MSShapeGroup" x="85" y="137" width="3" height="1"></rect>
            <rect id="Rectangle-path" fill="#FFFFFF" sketch:type="MSShapeGroup" x="89" y="137" width="6" height="1"></rect>
            <path d="M86.9998109,145.75 L85.562238,145.75 L85.1526143,145.75 L83.4997809,145.75 C81.5668008,145.75 79.999895,144.191696 80,142.245606 L80.0009035,125.504394 C80.0010079,123.568971 81.5707726,122 83.4946034,122 L87.0010926,122" id="Shape" stroke="#FFFFFF" stroke-width="1.5" sketch:type="MSShapeGroup"></path>
            <path d="M101.999811,145.75 L98.4935668,145.75 L98.4935668,145.75 C96.5640187,145.75 94.999895,144.191696 95,142.245606 L95.0009035,125.504394 C95.0010079,123.568971 96.569835,122 98.5020138,122 C98.5020138,122 99.6634331,122 98.4946034,122 C97.3257737,122 100.832263,122 102.001093,122" id="Shape" stroke="#FFFFFF" stroke-width="1.5" sketch:type="MSShapeGroup" transform="translate(98.500546, 133.875000) scale(-1, 1) translate(-98.500546, -133.875000) "></path>
            <path d="M637.892578,180.136719 C637.450519,180.136719 637.062013,180.020509 636.727051,179.788086 C636.392088,179.555663 636.1403,179.238934 635.97168,178.837891 L635.90332,178.837891 L635.424805,180 L634.570312,180 L636.826172,169.363281 L637.974609,169.363281 C637.742186,170.466151 637.563314,171.310381 637.437988,171.895996 C637.312662,172.481611 637.140626,173.166337 636.921875,173.950195 L636.983398,173.950195 C637.407229,173.412432 637.825356,173.017091 638.237793,172.76416 C638.65023,172.511229 639.075193,172.384766 639.512695,172.384766 C640.155277,172.384766 640.656574,172.610349 641.016602,173.061523 C641.376629,173.512698 641.556641,174.132483 641.556641,174.920898 C641.556641,175.873377 641.400555,176.754065 641.088379,177.562988 C640.776203,178.371912 640.340986,179.00309 639.782715,179.456543 C639.224444,179.909996 638.594405,180.136719 637.892578,180.136719 L637.892578,180.136719 Z M639.164062,173.334961 C638.72656,173.334961 638.28109,173.55143 637.827637,173.984375 C637.374184,174.41732 637.014161,174.961911 636.747559,175.618164 C636.480956,176.274417 636.347656,176.946611 636.347656,177.634766 C636.347656,178.13607 636.47412,178.520018 636.727051,178.786621 C636.979982,179.053224 637.345701,179.186523 637.824219,179.186523 C638.275393,179.186523 638.695799,179.001955 639.085449,178.632812 C639.4751,178.26367 639.78841,177.738447 640.025391,177.057129 C640.262371,176.37581 640.380859,175.652348 640.380859,174.886719 C640.380859,173.852208 639.975264,173.334961 639.164062,173.334961 L639.164062,173.334961 Z M645.330078,172.507812 L644.304688,177.258789 C644.222656,177.66439 644.181641,177.981119 644.181641,178.208984 C644.181641,178.86068 644.516598,179.186523 645.186523,179.186523 C645.587567,179.186523 645.981769,179.049806 646.369141,178.776367 C646.756512,178.502928 647.098306,178.111005 647.394531,177.600586 C647.690757,177.090167 647.91634,176.474938 648.071289,175.754883 L648.754883,172.507812 L649.889648,172.507812 L648.310547,180 L647.360352,180 L647.510742,178.612305 L647.428711,178.612305 C646.982094,179.181969 646.555992,179.578449 646.150391,179.801758 C645.74479,180.025066 645.325523,180.136719 644.892578,180.136719 C644.309242,180.136719 643.851239,179.978354 643.518555,179.661621 C643.185871,179.344888 643.019531,178.892581 643.019531,178.304688 C643.019531,178.022134 643.069661,177.630211 643.169922,177.128906 L644.167969,172.507812 L645.330078,172.507812 Z M651.878906,180 L650.730469,180 L652.330078,172.507812 L653.478516,172.507812 L651.878906,180 Z M652.651367,170.59375 C652.651367,170.33854 652.724283,170.130046 652.870117,169.968262 C653.015951,169.806477 653.205077,169.725586 653.4375,169.725586 C653.838544,169.725586 654.039062,169.930662 654.039062,170.34082 C654.039062,170.591473 653.962729,170.803385 653.810059,170.976562 C653.657389,171.14974 653.480795,171.236328 653.280273,171.236328 C653.097981,171.236328 652.947592,171.180502 652.829102,171.068848 C652.710611,170.957193 652.651367,170.798829 652.651367,170.59375 L652.651367,170.59375 Z M655.419922,180 L654.271484,180 L656.541016,169.363281 L657.689453,169.363281 L655.419922,180 Z M661.804688,172.384766 C662.688807,172.384766 663.3291,172.817704 663.725586,173.683594 L663.793945,173.683594 C663.87142,172.97721 663.973958,172.352867 664.101562,171.810547 L664.634766,169.363281 L665.769531,169.363281 L663.513672,180 L662.563477,180 L662.713867,178.571289 L662.65918,178.571289 C662.198891,179.140953 661.768231,179.54427 661.367188,179.78125 C660.966144,180.01823 660.551434,180.136719 660.123047,180.136719 C659.48958,180.136719 658.995119,179.913414 658.639648,179.466797 C658.284178,179.02018 658.106445,178.400395 658.106445,177.607422 C658.106445,176.632157 658.270506,175.738936 658.598633,174.927734 C658.926759,174.116532 659.369952,173.489911 659.928223,173.047852 C660.486494,172.605792 661.111976,172.384766 661.804688,172.384766 L661.804688,172.384766 Z M660.505859,179.186523 C660.934247,179.186523 661.3763,178.973472 661.832031,178.547363 C662.287763,178.121254 662.648924,177.576663 662.915527,176.913574 C663.18213,176.250485 663.31543,175.574873 663.31543,174.886719 C663.31543,174.380857 663.192384,173.99577 662.946289,173.731445 C662.700194,173.467121 662.34245,173.334961 661.873047,173.334961 C661.412758,173.334961 660.985516,173.522947 660.591309,173.898926 C660.197101,174.274904 659.880372,174.803545 659.641113,175.484863 C659.401854,176.166182 659.282227,176.882809 659.282227,177.634766 C659.282227,178.669276 659.6901,179.186523 660.505859,179.186523 L660.505859,179.186523 Z M673.521484,172.371094 C673.940757,172.371094 674.314451,172.483886 674.642578,172.709473 C674.970705,172.93506 675.225911,173.259764 675.408203,173.683594 L675.483398,173.683594 L675.941406,172.507812 L676.80957,172.507812 L675.216797,180 L674.307617,180 L674.485352,178.571289 L674.430664,178.571289 C673.614905,179.614914 672.755864,180.136719 671.853516,180.136719 C671.220049,180.136719 670.723309,179.911135 670.363281,179.459961 C670.003253,179.008787 669.823242,178.39128 669.823242,177.607422 C669.823242,176.6595 669.985024,175.779952 670.308594,174.96875 C670.632163,174.157548 671.078773,173.521812 671.648438,173.061523 C672.218102,172.601235 672.842445,172.371094 673.521484,172.371094 L673.521484,172.371094 Z M672.222656,179.186523 C672.664716,179.186523 673.10449,178.975751 673.541992,178.554199 C673.979494,178.132648 674.33496,177.583499 674.608398,176.906738 C674.881837,176.229977 675.018555,175.552087 675.018555,174.873047 C675.018555,174.403643 674.890952,174.029949 674.635742,173.751953 C674.380533,173.473957 674.045575,173.334961 673.630859,173.334961 C673.156899,173.334961 672.715985,173.530923 672.308105,173.922852 C671.900226,174.314781 671.580079,174.8457 671.347656,175.515625 C671.115233,176.18555 670.999023,176.891923 670.999023,177.634766 C670.999023,178.154299 671.106119,178.542805 671.320312,178.800293 C671.534506,179.057781 671.835285,179.186523 672.222656,179.186523 L672.222656,179.186523 Z M682.203125,172.371094 C682.51758,172.371094 682.791014,172.402994 683.023438,172.466797 L682.777344,173.492188 C682.535806,173.432942 682.296551,173.40332 682.05957,173.40332 C681.644855,173.40332 681.256349,173.540038 680.894043,173.813477 C680.531736,174.086915 680.215008,174.466306 679.943848,174.95166 C679.672687,175.437014 679.473308,175.975908 679.345703,176.568359 L678.614258,180 L677.46582,180 L679.06543,172.507812 L680.015625,172.507812 L679.865234,173.895508 L679.933594,173.895508 C680.26172,173.462563 680.532877,173.151531 680.74707,172.962402 C680.961264,172.773274 681.185708,172.627442 681.42041,172.524902 C681.655112,172.422363 681.916014,172.371094 682.203125,172.371094 L682.203125,172.371094 Z M685.306641,179.200195 C685.557293,179.200195 685.885415,179.140951 686.291016,179.022461 L686.291016,179.904297 C686.136067,179.968099 685.944663,180.022786 685.716797,180.068359 C685.488931,180.113933 685.306641,180.136719 685.169922,180.136719 C684.600258,180.136719 684.163901,180.001141 683.86084,179.72998 C683.557778,179.45882 683.40625,179.054365 683.40625,178.516602 C683.40625,178.215819 683.447265,177.874025 683.529297,177.491211 L684.397461,173.375977 L683.22168,173.375977 L683.317383,172.876953 L684.582031,172.34375 L685.436523,170.785156 L686.106445,170.785156 L685.730469,172.507812 L687.603516,172.507812 L687.425781,173.375977 L685.55957,173.375977 L684.677734,177.504883 C684.595703,177.901369 684.554688,178.202147 684.554688,178.407227 C684.554688,178.662436 684.620768,178.858398 684.75293,178.995117 C684.885092,179.131837 685.06966,179.200195 685.306641,179.200195 L685.306641,179.200195 Z M688.697266,180 L687.548828,180 L689.148438,172.507812 L690.296875,172.507812 L688.697266,180 Z M689.469727,170.59375 C689.469727,170.33854 689.542643,170.130046 689.688477,169.968262 C689.834311,169.806477 690.023436,169.725586 690.255859,169.725586 C690.656903,169.725586 690.857422,169.930662 690.857422,170.34082 C690.857422,170.591473 690.781088,170.803385 690.628418,170.976562 C690.475748,171.14974 690.299155,171.236328 690.098633,171.236328 C689.91634,171.236328 689.765951,171.180502 689.647461,171.068848 C689.528971,170.957193 689.469727,170.798829 689.469727,170.59375 L689.469727,170.59375 Z M689.989258,183.363281 C689.674803,183.363281 689.389975,183.31543 689.134766,183.219727 L689.134766,182.255859 C689.426434,182.35612 689.68164,182.40625 689.900391,182.40625 C690.246747,182.40625 690.513345,182.264975 690.700195,181.982422 C690.887045,181.699868 691.037434,181.296552 691.151367,180.772461 L692.703125,173.375977 L691.383789,173.375977 L691.472656,172.917969 L692.880859,172.466797 L693.038086,171.783203 C693.247722,170.87174 693.538247,170.228029 693.909668,169.852051 C694.281089,169.476072 694.831377,169.288086 695.560547,169.288086 C695.742839,169.288086 695.966145,169.31429 696.230469,169.366699 C696.494793,169.419108 696.699869,169.477213 696.845703,169.541016 L696.551758,170.422852 C696.205402,170.290689 695.893231,170.224609 695.615234,170.224609 C695.218748,170.224609 694.914552,170.335123 694.702637,170.556152 C694.490722,170.777182 694.318686,171.181638 694.186523,171.769531 L694.015625,172.507812 L695.642578,172.507812 L695.47168,173.375977 L693.851562,173.375977 L692.265625,180.881836 C692.08789,181.743168 691.814455,182.372068 691.445312,182.768555 C691.07617,183.165041 690.590823,183.363281 689.989258,183.363281 L689.989258,183.363281 Z M699.450195,172.371094 C699.869468,172.371094 700.243162,172.483886 700.571289,172.709473 C700.899416,172.93506 701.154621,173.259764 701.336914,173.683594 L701.412109,173.683594 L701.870117,172.507812 L702.738281,172.507812 L701.145508,180 L700.236328,180 L700.414062,178.571289 L700.359375,178.571289 C699.543616,179.614914 698.684575,180.136719 697.782227,180.136719 C697.14876,180.136719 696.65202,179.911135 696.291992,179.459961 C695.931964,179.008787 695.751953,178.39128 695.751953,177.607422 C695.751953,176.6595 695.913735,175.779952 696.237305,174.96875 C696.560874,174.157548 697.007484,173.521812 697.577148,173.061523 C698.146813,172.601235 698.771155,172.371094 699.450195,172.371094 L699.450195,172.371094 Z M698.151367,179.186523 C698.593427,179.186523 699.033201,178.975751 699.470703,178.554199 C699.908205,178.132648 700.263671,177.583499 700.537109,176.906738 C700.810548,176.229977 700.947266,175.552087 700.947266,174.873047 C700.947266,174.403643 700.819663,174.029949 700.564453,173.751953 C700.309244,173.473957 699.974286,173.334961 699.55957,173.334961 C699.08561,173.334961 698.644696,173.530923 698.236816,173.922852 C697.828937,174.314781 697.50879,174.8457 697.276367,175.515625 C697.043944,176.18555 696.927734,176.891923 696.927734,177.634766 C696.927734,178.154299 697.03483,178.542805 697.249023,178.800293 C697.463217,179.057781 697.763995,179.186523 698.151367,179.186523 L698.151367,179.186523 Z M706.450195,180.136719 C705.566076,180.136719 704.880211,179.892906 704.392578,179.405273 C703.904945,178.917641 703.661133,178.229497 703.661133,177.34082 C703.661133,176.429357 703.829751,175.588546 704.166992,174.818359 C704.504233,174.048173 704.970212,173.447756 705.564941,173.01709 C706.159671,172.586424 706.828447,172.371094 707.571289,172.371094 C708.195641,172.371094 708.806312,172.487304 709.40332,172.719727 L709.082031,173.683594 C708.535154,173.451171 708.036135,173.334961 707.584961,173.334961 C707.074542,173.334961 706.608563,173.509276 706.187012,173.85791 C705.76546,174.206545 705.43506,174.691891 705.195801,175.313965 C704.956542,175.936038 704.836914,176.61165 704.836914,177.34082 C704.836914,177.924157 704.988442,178.377603 705.291504,178.701172 C705.594565,179.024741 706.012693,179.186523 706.545898,179.186523 C706.874025,179.186523 707.183918,179.140951 707.475586,179.049805 C707.767254,178.958658 708.054361,178.851563 708.336914,178.728516 L708.336914,179.706055 C707.771807,179.993165 707.142907,180.136719 706.450195,180.136719 L706.450195,180.136719 Z M711.994141,179.200195 C712.244793,179.200195 712.572915,179.140951 712.978516,179.022461 L712.978516,179.904297 C712.823567,179.968099 712.632163,180.022786 712.404297,180.068359 C712.176431,180.113933 711.994141,180.136719 711.857422,180.136719 C711.287758,180.136719 710.851401,180.001141 710.54834,179.72998 C710.245278,179.45882 710.09375,179.054365 710.09375,178.516602 C710.09375,178.215819 710.134765,177.874025 710.216797,177.491211 L711.084961,173.375977 L709.90918,173.375977 L710.004883,172.876953 L711.269531,172.34375 L712.124023,170.785156 L712.793945,170.785156 L712.417969,172.507812 L714.291016,172.507812 L714.113281,173.375977 L712.24707,173.375977 L711.365234,177.504883 C711.283203,177.901369 711.242188,178.202147 711.242188,178.407227 C711.242188,178.662436 711.308268,178.858398 711.44043,178.995117 C711.572592,179.131837 711.75716,179.200195 711.994141,179.200195 L711.994141,179.200195 Z" id="build-artifact" fill="#9B9B9B" sketch:type="MSShapeGroup"></path>
            <path d="M674,159.315789 C687.082851,159.315789 697.688312,148.423687 697.688312,135 C697.688312,121.570598 687.082851,110.684211 674,110.684211 C660.922716,110.684211 650.311688,121.570598 650.311688,135 C650.311688,148.423687 660.922716,159.315789 674,159.315789 L674,159.315789 Z" id="Stroke-9" stroke="#B0B8C6" stroke-width="3" fill="#B0B8C6" sketch:type="MSShapeGroup"></path>
            <path d="M659,126.512013 L673.998079,135.023327 L688.999004,126.511314 M673.99879,118 L673.998079,118 L673.99879,118 L673.99879,118 Z" id="Shape" stroke="#FFFFFF" stroke-width="1.5" sketch:type="MSShapeGroup"></path>
            <path d="M659.001423,126.512013 L659.001423,143.535341 L673.999502,152.046655 L689.000427,143.534641 L688.999715,126.512013 L674.000925,118 L659.001423,126.512013 Z M674.000213,135.023327 L673.999502,135.023327 L674.000213,135.023327 L674.000213,135.023327 Z" id="Shape" stroke="#FFFFFF" stroke-width="1.5" sketch:type="MSShapeGroup"></path>
            <path d="M673.75,134 L673.75,150.93" id="Path-195" stroke="#FFFFFF" stroke-width="1.5" sketch:type="MSShapeGroup"></path>
            <path d="M188.789551,180.136719 C188.347491,180.136719 187.958986,180.020509 187.624023,179.788086 C187.289061,179.555663 187.037273,179.238934 186.868652,178.837891 L186.800293,178.837891 L186.321777,180 L185.467285,180 L187.723145,169.363281 L188.871582,169.363281 C188.639159,170.466151 188.460287,171.310381 188.334961,171.895996 C188.209635,172.481611 188.037599,173.166337 187.818848,173.950195 L187.880371,173.950195 C188.304201,173.412432 188.722329,173.017091 189.134766,172.76416 C189.547203,172.511229 189.972166,172.384766 190.409668,172.384766 C191.052249,172.384766 191.553546,172.610349 191.913574,173.061523 C192.273602,173.512698 192.453613,174.132483 192.453613,174.920898 C192.453613,175.873377 192.297528,176.754065 191.985352,177.562988 C191.673176,178.371912 191.237959,179.00309 190.679688,179.456543 C190.121416,179.909996 189.491377,180.136719 188.789551,180.136719 L188.789551,180.136719 Z M190.061035,173.334961 C189.623533,173.334961 189.178062,173.55143 188.724609,173.984375 C188.271157,174.41732 187.911134,174.961911 187.644531,175.618164 C187.377928,176.274417 187.244629,176.946611 187.244629,177.634766 C187.244629,178.13607 187.371092,178.520018 187.624023,178.786621 C187.876954,179.053224 188.242673,179.186523 188.721191,179.186523 C189.172366,179.186523 189.592771,179.001955 189.982422,178.632812 C190.372072,178.26367 190.685383,177.738447 190.922363,177.057129 C191.159344,176.37581 191.277832,175.652348 191.277832,174.886719 C191.277832,173.852208 190.872237,173.334961 190.061035,173.334961 L190.061035,173.334961 Z M197.512207,172.371094 C197.93148,172.371094 198.305174,172.483886 198.633301,172.709473 C198.961427,172.93506 199.216633,173.259764 199.398926,173.683594 L199.474121,173.683594 L199.932129,172.507812 L200.800293,172.507812 L199.20752,180 L198.29834,180 L198.476074,178.571289 L198.421387,178.571289 C197.605627,179.614914 196.746587,180.136719 195.844238,180.136719 C195.210772,180.136719 194.714032,179.911135 194.354004,179.459961 C193.993976,179.008787 193.813965,178.39128 193.813965,177.607422 C193.813965,176.6595 193.975747,175.779952 194.299316,174.96875 C194.622886,174.157548 195.069496,173.521812 195.63916,173.061523 C196.208824,172.601235 196.833167,172.371094 197.512207,172.371094 L197.512207,172.371094 Z M196.213379,179.186523 C196.655438,179.186523 197.095213,178.975751 197.532715,178.554199 C197.970217,178.132648 198.325682,177.583499 198.599121,176.906738 C198.87256,176.229977 199.009277,175.552087 199.009277,174.873047 C199.009277,174.403643 198.881674,174.029949 198.626465,173.751953 C198.371255,173.473957 198.036298,173.334961 197.621582,173.334961 C197.147621,173.334961 196.706708,173.530923 196.298828,173.922852 C195.890948,174.314781 195.570802,174.8457 195.338379,175.515625 C195.105956,176.18555 194.989746,176.891923 194.989746,177.634766 C194.989746,178.154299 195.096841,178.542805 195.311035,178.800293 C195.525229,179.057781 195.826007,179.186523 196.213379,179.186523 L196.213379,179.186523 Z M206.077637,177.874023 C206.077637,178.584964 205.825849,179.139809 205.322266,179.538574 C204.818682,179.937339 204.108891,180.136719 203.192871,180.136719 C202.422685,180.136719 201.727705,179.979494 201.10791,179.665039 L201.10791,178.584961 C201.426922,178.776368 201.770994,178.924479 202.140137,179.029297 C202.509279,179.134115 202.851073,179.186523 203.165527,179.186523 C203.739749,179.186523 204.172687,179.072592 204.464355,178.844727 C204.756024,178.616861 204.901855,178.325197 204.901855,177.969727 C204.901855,177.70996 204.822104,177.491212 204.662598,177.313477 C204.503092,177.135741 204.15902,176.891929 203.630371,176.582031 C203.03792,176.249347 202.618654,175.923504 202.372559,175.604492 C202.126464,175.28548 202.003418,174.907229 202.003418,174.469727 C202.003418,173.840817 202.233559,173.333824 202.693848,172.94873 C203.154136,172.563637 203.76025,172.371094 204.512207,172.371094 C205.291508,172.371094 206.043453,172.539712 206.768066,172.876953 L206.398926,173.813477 L206.016113,173.642578 C205.555825,173.446614 205.054527,173.348633 204.512207,173.348633 C204.088377,173.348633 203.755698,173.447753 203.51416,173.645996 C203.272622,173.844239 203.151855,174.100584 203.151855,174.415039 C203.151855,174.670249 203.232747,174.888996 203.394531,175.071289 C203.556316,175.253582 203.890134,175.48828 204.395996,175.775391 C204.883629,176.048829 205.233397,176.283528 205.445312,176.479492 C205.657228,176.675457 205.815592,176.886229 205.92041,177.111816 C206.025228,177.337403 206.077637,177.59147 206.077637,177.874023 L206.077637,177.874023 Z M210.411621,180.136719 C209.573075,180.136719 208.914553,179.888349 208.436035,179.391602 C207.957517,178.894854 207.718262,178.20671 207.718262,177.327148 C207.718262,176.470373 207.888019,175.64893 208.227539,174.862793 C208.567059,174.076656 209.017087,173.464846 209.577637,173.027344 C210.138186,172.589842 210.755693,172.371094 211.430176,172.371094 C212.127445,172.371094 212.651528,172.522622 213.002441,172.825684 C213.353355,173.128745 213.528809,173.55143 213.528809,174.09375 C213.528809,174.914067 213.150557,175.557778 212.394043,176.024902 C211.637529,176.492027 210.555183,176.725586 209.146973,176.725586 L208.921387,176.725586 L208.894043,177.272461 C208.894043,177.869469 209.034178,178.335448 209.314453,178.67041 C209.594728,179.005373 210.028806,179.172852 210.616699,179.172852 C210.90381,179.172852 211.198892,179.131836 211.501953,179.049805 C211.805015,178.967773 212.182127,178.817384 212.633301,178.598633 L212.633301,179.59668 C212.204913,179.797202 211.826662,179.937337 211.498535,180.01709 C211.170409,180.096843 210.808107,180.136719 210.411621,180.136719 L210.411621,180.136719 Z M211.361816,173.348633 C210.892413,173.348633 210.451499,173.562823 210.039062,173.991211 C209.626626,174.419598 209.311036,175.014319 209.092285,175.775391 L209.174316,175.775391 C210.213384,175.775391 211.009763,175.639813 211.563477,175.368652 C212.11719,175.097492 212.394043,174.70443 212.394043,174.189453 C212.394043,173.947915 212.310873,173.747397 212.144531,173.587891 C211.978189,173.428385 211.717287,173.348633 211.361816,173.348633 L211.361816,173.348633 Z M221.314941,180.136719 C220.872882,180.136719 220.484377,180.020509 220.149414,179.788086 C219.814451,179.555663 219.562664,179.238934 219.394043,178.837891 L219.325684,178.837891 L218.847168,180 L217.992676,180 L220.248535,169.363281 L221.396973,169.363281 C221.16455,170.466151 220.985678,171.310381 220.860352,171.895996 C220.735025,172.481611 220.562989,173.166337 220.344238,173.950195 L220.405762,173.950195 C220.829592,173.412432 221.247719,173.017091 221.660156,172.76416 C222.072593,172.511229 222.497556,172.384766 222.935059,172.384766 C223.57764,172.384766 224.078937,172.610349 224.438965,173.061523 C224.798993,173.512698 224.979004,174.132483 224.979004,174.920898 C224.979004,175.873377 224.822918,176.754065 224.510742,177.562988 C224.198566,178.371912 223.763349,179.00309 223.205078,179.456543 C222.646807,179.909996 222.016768,180.136719 221.314941,180.136719 L221.314941,180.136719 Z M222.586426,173.334961 C222.148924,173.334961 221.703453,173.55143 221.25,173.984375 C220.796547,174.41732 220.436525,174.961911 220.169922,175.618164 C219.903319,176.274417 219.77002,176.946611 219.77002,177.634766 C219.77002,178.13607 219.896483,178.520018 220.149414,178.786621 C220.402345,179.053224 220.768064,179.186523 221.246582,179.186523 C221.697756,179.186523 222.118162,179.001955 222.507812,178.632812 C222.897463,178.26367 223.210774,177.738447 223.447754,177.057129 C223.684734,176.37581 223.803223,175.652348 223.803223,174.886719 C223.803223,173.852208 223.397628,173.334961 222.586426,173.334961 L222.586426,173.334961 Z M230.064941,172.412109 C230.930831,172.412109 231.614418,172.668454 232.115723,173.181152 C232.617027,173.69385 232.867676,174.399084 232.867676,175.296875 C232.867676,176.15365 232.703615,176.962561 232.375488,177.723633 C232.047362,178.484704 231.60303,179.072589 231.04248,179.487305 C230.481931,179.90202 229.848474,180.109375 229.14209,180.109375 C228.267085,180.109375 227.58122,179.851891 227.084473,179.336914 C226.587725,178.821938 226.339355,178.117843 226.339355,177.224609 C226.339355,176.35872 226.505695,175.544112 226.838379,174.780762 C227.171063,174.017412 227.619952,173.431805 228.185059,173.023926 C228.750166,172.616046 229.376787,172.412109 230.064941,172.412109 L230.064941,172.412109 Z M231.678223,175.139648 C231.678223,174.615557 231.535809,174.190594 231.250977,173.864746 C230.966144,173.538898 230.579918,173.375977 230.092285,173.375977 C229.595538,173.375977 229.150067,173.544595 228.755859,173.881836 C228.361652,174.219077 228.056316,174.687334 227.839844,175.286621 C227.623371,175.885908 227.515137,176.552405 227.515137,177.286133 C227.515137,177.883141 227.659829,178.344562 227.949219,178.67041 C228.238608,178.996258 228.654457,179.15918 229.196777,179.15918 C229.670738,179.15918 230.096841,178.99284 230.475098,178.660156 C230.853355,178.327472 231.148436,177.854658 231.360352,177.241699 C231.572267,176.62874 231.678223,175.928064 231.678223,175.139648 L231.678223,175.139648 Z M236.436035,177.033203 L234.070801,180 L232.737793,180 L235.984863,176.137695 L234.351074,172.507812 L235.513184,172.507812 L236.702637,175.324219 L238.958496,172.507812 L240.284668,172.507812 L237.174316,176.192383 L238.896973,180 L237.748535,180 L236.436035,177.033203 Z" id="base-box" fill="#9B9B9B" sketch:type="MSShapeGroup"></path>
            <path d="M190.001943,119.684427 L190.001943,143.052322 L210.47432,154.735789 L230.950583,143.051362 L230.949612,119.684427 L210.476263,108 L190.001943,119.684427 Z M210.475291,131.367894 L210.47432,131.367894 L210.475291,131.367894 L210.475291,131.367894 Z" id="Shape" fill="#23B0E8" sketch:type="MSShapeGroup"></path>
            <path d="M190,119.684427 L210.472378,131.367894 L230.94864,119.683467 M210.473349,108 L210.472378,108 L210.473349,108 L210.473349,108 Z" id="Shape" stroke="#FFFFFF" stroke-width="1.5" sketch:type="MSShapeGroup"></path>
            <path d="M210.13375,131.664127 L210.13375,154.903912" id="Path-195" stroke="#FFFFFF" stroke-width="1.5" sketch:type="MSShapeGroup"></path>
            <path d="M146.395091,58.7779152 C140.388114,60.5251731 136,66.0478913 136,72.591298 C136,80.5386041 142.472634,87 150.457411,87 C150.805411,87 151.150097,86.9815558 151.491966,86.9815558 L178.507869,86.9815558 C178.849406,86.9815558 179.194257,87 179.542257,87 C187.527366,87 194,80.5478262 194,72.6006848 C194,65.9663746 189.489257,60.3769608 183.354017,58.7122078 C181.628931,50.3245466 174.014526,44 164.881514,44 C155.723149,44 148.092171,50.3553418 146.395091,58.7779152 Z" id="Path-4" fill="#23B0E8" sketch:type="MSShapeGroup"></path>
            <path d="M157.363281,74 L158.375,69.2695312 C158.457032,68.8411437 158.498047,68.5335296 158.498047,68.3466797 C158.498047,67.6721971 158.163089,67.3349609 157.493164,67.3349609 C157.087563,67.3349609 156.692222,67.4693997 156.307129,67.7382812 C155.922036,68.0071628 155.582521,68.3979467 155.288574,68.9106445 C154.994627,69.4233424 154.772462,70.0419886 154.62207,70.7666016 L153.931641,74 L152.783203,74 L155.039062,63.3632812 L156.1875,63.3632812 C156.105468,63.736981 156.026856,64.0992821 155.95166,64.4501953 C155.876464,64.8011085 155.798991,65.157713 155.719238,65.5200195 C155.639485,65.882326 155.552898,66.2617168 155.459473,66.6582031 C155.366048,67.0546895 155.257813,67.4853492 155.134766,67.9501953 L155.209961,67.9501953 C155.638348,67.3896456 156.061033,66.988608 156.478027,66.7470703 C156.895022,66.5055326 157.331378,66.3847656 157.787109,66.3847656 C158.384118,66.3847656 158.845539,66.5488265 159.171387,66.8769531 C159.497235,67.2050798 159.660156,67.6699189 159.660156,68.2714844 C159.660156,68.5540379 159.607748,68.9322893 159.50293,69.40625 C159.325194,70.2858117 158.994794,71.8170464 158.511719,74 L157.363281,74 Z M163.542969,66.5078125 L162.517578,71.2587891 C162.435546,71.66439 162.394531,71.9811187 162.394531,72.2089844 C162.394531,72.8606803 162.729489,73.1865234 163.399414,73.1865234 C163.800458,73.1865234 164.19466,73.0498061 164.582031,72.7763672 C164.969403,72.5029283 165.311196,72.1110052 165.607422,71.6005859 C165.903647,71.0901667 166.129231,70.4749385 166.28418,69.7548828 L166.967773,66.5078125 L168.102539,66.5078125 L166.523438,74 L165.573242,74 L165.723633,72.6123047 L165.641602,72.6123047 C165.194985,73.181969 164.768882,73.5784494 164.363281,73.8017578 C163.95768,74.0250662 163.538414,74.1367188 163.105469,74.1367188 C162.522132,74.1367188 162.064129,73.9783544 161.731445,73.6616211 C161.398761,73.3448877 161.232422,72.8925811 161.232422,72.3046875 C161.232422,72.022134 161.282552,71.6302108 161.382812,71.1289062 L162.380859,66.5078125 L163.542969,66.5078125 Z M172.265625,74.1367188 C171.823565,74.1367188 171.43506,74.020509 171.100098,73.7880859 C170.765135,73.5556629 170.513347,73.2389343 170.344727,72.8378906 L170.276367,72.8378906 L169.797852,74 L168.943359,74 L171.199219,63.3632812 L172.347656,63.3632812 C172.115233,64.4661513 171.936361,65.3103812 171.811035,65.8959961 C171.685709,66.481611 171.513673,67.1663372 171.294922,67.9501953 L171.356445,67.9501953 C171.780276,67.4124322 172.198403,67.0170911 172.61084,66.7641602 C173.023277,66.5112292 173.44824,66.3847656 173.885742,66.3847656 C174.528324,66.3847656 175.029621,66.6103493 175.389648,67.0615234 C175.749676,67.5126976 175.929688,68.132483 175.929688,68.9208984 C175.929688,69.8733772 175.773602,70.754065 175.461426,71.5629883 C175.14925,72.3719116 174.714033,73.0030902 174.155762,73.456543 C173.597491,73.9099958 172.967451,74.1367188 172.265625,74.1367188 L172.265625,74.1367188 Z M173.537109,67.3349609 C173.099607,67.3349609 172.654136,67.5514301 172.200684,67.984375 C171.747231,68.4173199 171.387208,68.9619108 171.120605,69.6181641 C170.854003,70.2744173 170.720703,70.9466111 170.720703,71.6347656 C170.720703,72.1360702 170.847167,72.5200182 171.100098,72.7866211 C171.353029,73.053224 171.718748,73.1865234 172.197266,73.1865234 C172.64844,73.1865234 173.068846,73.001955 173.458496,72.6328125 C173.848146,72.26367 174.161457,71.7384474 174.398438,71.0571289 C174.635418,70.3758104 174.753906,69.6523476 174.753906,68.8867188 C174.753906,67.8522084 174.348311,67.3349609 173.537109,67.3349609 L173.537109,67.3349609 Z" id="hub" fill="#FFFFFF" sketch:type="MSShapeGroup"></path>
            <path d="M193,69 L211,69 L211,95" id="Path-259" stroke="#B1B9C7" stroke-width="3" sketch:type="MSShapeGroup"></path>
            <path d="M206.863961,85.863961 L215.863961,94.863961 L206.863961,94.863961 L206.863961,85.863961 Z" id="Rectangle-83" fill="#B0B8C6" sketch:type="MSShapeGroup" transform="translate(211.363961, 90.363961) rotate(-45.000000) translate(-211.363961, -90.363961) "></path>
        </g>
    </g>
</svg>